<svg width="277" height="60" viewBox="0 0 277 60" version="1.1" xmlns="http://www.w3.org/2000/svg" xmlns:xlink="http://www.w3.org/1999/xlink">
<title>&#60;RETO&#62;</title>
<desc>Created using Figma</desc>
<g id="Canvas" transform="translate(-157 158)">
<g id="&#60;RETO&#62;">
<use xlink:href="#path0_fill" transform="translate(75 -173.521)" fill="#F96E36"/>
<use xlink:href="#path1_fill" transform="translate(75 -173.521)" fill="#344154"/>
</g>
</g>
<defs>
<path id="path0_fill" d="M 95.6172 48.7266L 92.9609 49.7031L 95.6172 50.6406L 117.023 57.7891L 117.023 68.375L 82.4531 54.0391L 82.4531 45.25L 117.023 30.9141L 117.023 41.4609L 95.6172 48.7266ZM 322.883 41.4219L 322.883 30.9141L 358.039 45.2109L 358.039 54.0781L 322.883 68.4141L 322.883 57.8672L 345.266 50.3672L 347.648 49.5859L 345.305 48.8047L 322.883 41.4219Z"/>
<path id="path1_fill" d="M 148.82 52.75L 140.5 52.75L 140.5 74L 129.523 74L 129.523 17.125L 148.586 17.125C 151.737 17.125 154.589 17.5026 157.141 18.2578C 159.693 18.987 161.867 20.0677 163.664 21.5C 165.487 22.9323 166.88 24.7161 167.844 26.8516C 168.833 28.987 169.328 31.4609 169.328 34.2734C 169.328 36.3047 169.081 38.1406 168.586 39.7812C 168.117 41.3958 167.427 42.8542 166.516 44.1562C 165.63 45.4323 164.549 46.5521 163.273 47.5156C 162.023 48.4792 160.617 49.3125 159.055 50.0156L 171.281 73.4922L 171.281 74L 159.523 74L 148.82 52.75ZM 140.5 43.8438L 148.625 43.8438C 151.724 43.8438 154.107 43.0625 155.773 41.5C 157.466 39.9115 158.312 37.75 158.312 35.0156C 158.312 32.1771 157.492 29.9766 155.852 28.4141C 154.211 26.8255 151.789 26.0312 148.586 26.0312L 140.5 26.0312L 140.5 43.8438ZM 212.57 49.0781L 189.211 49.0781L 189.211 65.1328L 216.516 65.1328L 216.516 74L 178.195 74L 178.195 17.125L 216.398 17.125L 216.398 26.0703L 189.211 26.0703L 189.211 40.4062L 212.57 40.4062L 212.57 49.0781ZM 267.414 26.0703L 249.875 26.0703L 249.875 74L 238.859 74L 238.859 26.0703L 221.555 26.0703L 221.555 17.125L 267.414 17.125L 267.414 26.0703ZM 313.352 49.7422C 313.352 53.388 312.87 56.7474 311.906 59.8203C 310.943 62.8932 309.549 65.5365 307.727 67.75C 305.904 69.9635 303.677 71.6953 301.047 72.9453C 298.443 74.1693 295.5 74.7812 292.219 74.7812C 288.938 74.7812 286.021 74.1693 283.469 72.9453C 280.917 71.6953 278.768 69.9635 277.023 67.75C 275.279 65.5104 273.951 62.8672 273.039 59.8203C 272.128 56.7474 271.672 53.388 271.672 49.7422L 271.672 41.4609C 271.672 37.8151 272.128 34.4557 273.039 31.3828C 273.951 28.3099 275.279 25.6667 277.023 23.4531C 278.768 21.2135 280.904 19.4688 283.43 18.2188C 285.982 16.9688 288.898 16.3438 292.18 16.3438C 295.487 16.3438 298.443 16.9688 301.047 18.2188C 303.677 19.4688 305.904 21.2135 307.727 23.4531C 309.549 25.6667 310.943 28.3099 311.906 31.3828C 312.87 34.4557 313.352 37.8151 313.352 41.4609L 313.352 49.7422ZM 302.219 41.3828C 302.219 39.0651 302.023 36.9297 301.633 34.9766C 301.268 33.0234 300.682 31.3438 299.875 29.9375C 299.068 28.5312 298.026 27.4375 296.75 26.6562C 295.5 25.849 293.977 25.4453 292.18 25.4453C 290.409 25.4453 288.924 25.849 287.727 26.6562C 286.529 27.4375 285.565 28.5312 284.836 29.9375C 284.107 31.3438 283.586 33.0234 283.273 34.9766C 282.961 36.9297 282.805 39.0651 282.805 41.3828L 282.805 49.7422C 282.805 52.0339 282.961 54.1562 283.273 56.1094C 283.586 58.0625 284.107 59.7552 284.836 61.1875C 285.565 62.6198 286.529 63.7396 287.727 64.5469C 288.924 65.3542 290.422 65.7578 292.219 65.7578C 293.99 65.7578 295.5 65.3542 296.75 64.5469C 298.026 63.7396 299.055 62.6328 299.836 61.2266C 300.643 59.7943 301.242 58.1016 301.633 56.1484C 302.023 54.1953 302.219 52.0599 302.219 49.7422L 302.219 41.3828Z"/>
</defs>
</svg>
