<svg width="391" height="56" viewBox="0 0 391 56" version="1.1" xmlns="http://www.w3.org/2000/svg" xmlns:xlink="http://www.w3.org/1999/xlink">
<title>&#60; DESCARGA LA CONVOCATORIA &#62; &#60; DESCARGA EL LISTADO DE BASES DE DATOS &#62;</title>
<desc>Created using Figma</desc>
<g id="Canvas" transform="translate(274 -1012)">
<g id="&#60; DESCARGA LA CONVOCATORIA &#62; &#60; DESCARGA EL LISTADO DE BASES DE DATOS &#62;">
<use xlink:href="#path0_fill" transform="translate(-274 1008)" fill="#344154"/>
<use xlink:href="#path1_fill" transform="translate(-274 1008)" fill="#F96E36"/>
</g>
</g>
<defs>
<path id="path0_fill" d="M 19.5732 17L 19.5732 4.20312L 23.1855 4.20312C 24.2988 4.20312 25.2832 4.44922 26.1387 4.94141C 26.9941 5.43359 27.6533 6.13379 28.1162 7.04199C 28.585 7.9502 28.8223 8.99316 28.8281 10.1709L 28.8281 10.9883C 28.8281 12.1953 28.5938 13.2529 28.125 14.1611C 27.6621 15.0693 26.9971 15.7666 26.1299 16.2529C 25.2686 16.7393 24.2637 16.9883 23.1152 17L 19.5732 17ZM 21.2607 5.5918L 21.2607 15.6201L 23.0361 15.6201C 24.3369 15.6201 25.3477 15.2158 26.0684 14.4072C 26.7949 13.5986 27.1582 12.4473 27.1582 10.9531L 27.1582 10.2061C 27.1582 8.75293 26.8154 7.625 26.1299 6.82227C 25.4502 6.01367 24.4834 5.60352 23.2295 5.5918L 21.2607 5.5918ZM 38.6191 11.085L 33.0732 11.085L 33.0732 15.6201L 39.5156 15.6201L 39.5156 17L 31.3857 17L 31.3857 4.20312L 39.4277 4.20312L 39.4277 5.5918L 33.0732 5.5918L 33.0732 9.70508L 38.6191 9.70508L 38.6191 11.085ZM 45.3867 11.2959C 43.9395 10.8799 42.8848 10.3701 42.2227 9.7666C 41.5664 9.15723 41.2383 8.40723 41.2383 7.5166C 41.2383 6.50879 41.6396 5.67676 42.4424 5.02051C 43.251 4.3584 44.2998 4.02734 45.5889 4.02734C 46.4678 4.02734 47.25 4.19727 47.9355 4.53711C 48.627 4.87695 49.1602 5.3457 49.5352 5.94336C 49.916 6.54102 50.1064 7.19434 50.1064 7.90332L 48.4102 7.90332C 48.4102 7.12988 48.1641 6.52344 47.6719 6.08398C 47.1797 5.63867 46.4854 5.41602 45.5889 5.41602C 44.7568 5.41602 44.1064 5.60059 43.6377 5.96973C 43.1748 6.33301 42.9434 6.83984 42.9434 7.49023C 42.9434 8.01172 43.1631 8.4541 43.6025 8.81738C 44.0479 9.1748 44.8008 9.50293 45.8613 9.80176C 46.9277 10.1006 47.7598 10.4316 48.3574 10.7949C 48.9609 11.1523 49.4063 11.5713 49.6934 12.0518C 49.9863 12.5322 50.1328 13.0977 50.1328 13.748C 50.1328 14.7852 49.7285 15.6172 48.9199 16.2441C 48.1113 16.8652 47.0303 17.1758 45.6768 17.1758C 44.7979 17.1758 43.9775 17.0088 43.2158 16.6748C 42.4541 16.335 41.8652 15.8721 41.4492 15.2861C 41.0391 14.7002 40.834 14.0352 40.834 13.291L 42.5303 13.291C 42.5303 14.0645 42.8145 14.6768 43.3828 15.1279C 43.957 15.5732 44.7217 15.7959 45.6768 15.7959C 46.5674 15.7959 47.25 15.6143 47.7246 15.251C 48.1992 14.8877 48.4365 14.3926 48.4365 13.7656C 48.4365 13.1387 48.2168 12.6553 47.7773 12.3154C 47.3379 11.9697 46.541 11.6299 45.3867 11.2959ZM 61.7168 12.9395C 61.5586 14.293 61.0576 15.3389 60.2139 16.0771C 59.376 16.8096 58.2598 17.1758 56.8652 17.1758C 55.3535 17.1758 54.1406 16.6338 53.2266 15.5498C 52.3184 14.4658 51.8643 13.0156 51.8643 11.1992L 51.8643 9.96875C 51.8643 8.7793 52.0752 7.7334 52.4971 6.83105C 52.9248 5.92871 53.5283 5.2373 54.3076 4.75684C 55.0869 4.27051 55.9893 4.02734 57.0146 4.02734C 58.374 4.02734 59.4639 4.4082 60.2842 5.16992C 61.1045 5.92578 61.582 6.97461 61.7168 8.31641L 60.0205 8.31641C 59.874 7.29688 59.5547 6.55859 59.0625 6.10156C 58.5762 5.64453 57.8936 5.41602 57.0146 5.41602C 55.9365 5.41602 55.0898 5.81445 54.4746 6.61133C 53.8652 7.4082 53.5605 8.54199 53.5605 10.0127L 53.5605 11.252C 53.5605 12.6406 53.8506 13.7451 54.4307 14.5654C 55.0107 15.3857 55.8223 15.7959 56.8652 15.7959C 57.8027 15.7959 58.5205 15.585 59.0186 15.1631C 59.5225 14.7354 59.8564 13.9941 60.0205 12.9395L 61.7168 12.9395ZM 71.0947 13.6602L 65.7334 13.6602L 64.5293 17L 62.7891 17L 67.6758 4.20312L 69.1523 4.20312L 74.0479 17L 72.3164 17L 71.0947 13.6602ZM 66.2432 12.2715L 70.5938 12.2715L 68.4141 6.28613L 66.2432 12.2715ZM 80.4639 11.8232L 77.458 11.8232L 77.458 17L 75.7617 17L 75.7617 4.20312L 79.998 4.20312C 81.4395 4.20312 82.5469 4.53125 83.3203 5.1875C 84.0996 5.84375 84.4893 6.79883 84.4893 8.05273C 84.4893 8.84961 84.2725 9.54395 83.8389 10.1357C 83.4111 10.7275 82.8135 11.1699 82.0459 11.4629L 85.0518 16.8945L 85.0518 17L 83.2412 17L 80.4639 11.8232ZM 77.458 10.4434L 80.0508 10.4434C 80.8887 10.4434 81.5537 10.2266 82.0459 9.79297C 82.5439 9.35938 82.793 8.7793 82.793 8.05273C 82.793 7.26172 82.5557 6.65527 82.0811 6.2334C 81.6123 5.81152 80.9326 5.59766 80.042 5.5918L 77.458 5.5918L 77.458 10.4434ZM 96.3105 15.3213C 95.877 15.9424 95.2705 16.4082 94.4912 16.7188C 93.7178 17.0234 92.8154 17.1758 91.7842 17.1758C 90.7412 17.1758 89.8154 16.9326 89.0068 16.4463C 88.1982 15.9541 87.5713 15.2568 87.126 14.3545C 86.6865 13.4521 86.4609 12.4062 86.4492 11.2168L 86.4492 10.1006C 86.4492 8.17285 86.8975 6.67871 87.7939 5.61816C 88.6963 4.55762 89.9619 4.02734 91.5908 4.02734C 92.9268 4.02734 94.002 4.37012 94.8164 5.05566C 95.6309 5.73535 96.1289 6.70215 96.3105 7.95605L 94.623 7.95605C 94.3066 6.2627 93.2988 5.41602 91.5996 5.41602C 90.4687 5.41602 89.6104 5.81445 89.0244 6.61133C 88.4443 7.40234 88.1514 8.55078 88.1455 10.0566L 88.1455 11.1025C 88.1455 12.5381 88.4736 13.6807 89.1299 14.5303C 89.7861 15.374 90.6738 15.7959 91.793 15.7959C 92.4258 15.7959 92.9795 15.7256 93.4541 15.585C 93.9287 15.4443 94.3213 15.207 94.6318 14.873L 94.6318 11.999L 91.6699 11.999L 91.6699 10.6279L 96.3105 10.6279L 96.3105 15.3213ZM 106.198 13.6602L 100.837 13.6602L 99.6328 17L 97.8926 17L 102.779 4.20312L 104.256 4.20312L 109.151 17L 107.42 17L 106.198 13.6602ZM 101.347 12.2715L 105.697 12.2715L 103.518 6.28613L 101.347 12.2715ZM 117.035 15.6201L 123.1 15.6201L 123.1 17L 115.339 17L 115.339 4.20312L 117.035 4.20312L 117.035 15.6201ZM 132.267 13.6602L 126.905 13.6602L 125.701 17L 123.961 17L 128.848 4.20312L 130.324 4.20312L 135.22 17L 133.488 17L 132.267 13.6602ZM 127.415 12.2715L 131.766 12.2715L 129.586 6.28613L 127.415 12.2715ZM 150.82 12.9395C 150.662 14.293 150.161 15.3389 149.317 16.0771C 148.479 16.8096 147.363 17.1758 145.969 17.1758C 144.457 17.1758 143.244 16.6338 142.33 15.5498C 141.422 14.4658 140.968 13.0156 140.968 11.1992L 140.968 9.96875C 140.968 8.7793 141.179 7.7334 141.601 6.83105C 142.028 5.92871 142.632 5.2373 143.411 4.75684C 144.19 4.27051 145.093 4.02734 146.118 4.02734C 147.478 4.02734 148.567 4.4082 149.388 5.16992C 150.208 5.92578 150.686 6.97461 150.82 8.31641L 149.124 8.31641C 148.978 7.29688 148.658 6.55859 148.166 6.10156C 147.68 5.64453 146.997 5.41602 146.118 5.41602C 145.04 5.41602 144.193 5.81445 143.578 6.61133C 142.969 7.4082 142.664 8.54199 142.664 10.0127L 142.664 11.252C 142.664 12.6406 142.954 13.7451 143.534 14.5654C 144.114 15.3857 144.926 15.7959 145.969 15.7959C 146.906 15.7959 147.624 15.585 148.122 15.1631C 148.626 14.7354 148.96 13.9941 149.124 12.9395L 150.82 12.9395ZM 162.976 11.0146C 162.976 12.2686 162.765 13.3643 162.343 14.3018C 161.921 15.2334 161.323 15.9453 160.55 16.4375C 159.776 16.9297 158.874 17.1758 157.843 17.1758C 156.835 17.1758 155.941 16.9297 155.162 16.4375C 154.383 15.9395 153.776 15.2334 153.343 14.3193C 152.915 13.3994 152.695 12.3359 152.684 11.1289L 152.684 10.2061C 152.684 8.97559 152.897 7.88867 153.325 6.94531C 153.753 6.00195 154.356 5.28125 155.136 4.7832C 155.921 4.2793 156.817 4.02734 157.825 4.02734C 158.851 4.02734 159.753 4.27637 160.532 4.77441C 161.317 5.2666 161.921 5.98437 162.343 6.92773C 162.765 7.86523 162.976 8.95801 162.976 10.2061L 162.976 11.0146ZM 161.297 10.1885C 161.297 8.6709 160.992 7.50781 160.383 6.69922C 159.773 5.88477 158.921 5.47754 157.825 5.47754C 156.759 5.47754 155.918 5.88477 155.303 6.69922C 154.693 7.50781 154.38 8.63281 154.362 10.0742L 154.362 11.0146C 154.362 12.4854 154.67 13.6426 155.285 14.4863C 155.906 15.3242 156.759 15.7432 157.843 15.7432C 158.933 15.7432 159.776 15.3477 160.374 14.5566C 160.972 13.7598 161.279 12.6201 161.297 11.1377L 161.297 10.1885ZM 175.342 17L 173.646 17L 167.203 7.13867L 167.203 17L 165.507 17L 165.507 4.20312L 167.203 4.20312L 173.663 14.1084L 173.663 4.20312L 175.342 4.20312L 175.342 17ZM 182.575 14.7588L 186.231 4.20312L 188.077 4.20312L 183.331 17L 181.837 17L 177.1 4.20312L 178.937 4.20312L 182.575 14.7588ZM 199.521 11.0146C 199.521 12.2686 199.31 13.3643 198.888 14.3018C 198.466 15.2334 197.868 15.9453 197.095 16.4375C 196.321 16.9297 195.419 17.1758 194.388 17.1758C 193.38 17.1758 192.486 16.9297 191.707 16.4375C 190.928 15.9395 190.321 15.2334 189.888 14.3193C 189.46 13.3994 189.24 12.3359 189.229 11.1289L 189.229 10.2061C 189.229 8.97559 189.442 7.88867 189.87 6.94531C 190.298 6.00195 190.901 5.28125 191.681 4.7832C 192.466 4.2793 193.362 4.02734 194.37 4.02734C 195.396 4.02734 196.298 4.27637 197.077 4.77441C 197.862 5.2666 198.466 5.98437 198.888 6.92773C 199.31 7.86523 199.521 8.95801 199.521 10.2061L 199.521 11.0146ZM 197.842 10.1885C 197.842 8.6709 197.537 7.50781 196.928 6.69922C 196.318 5.88477 195.466 5.47754 194.37 5.47754C 193.304 5.47754 192.463 5.88477 191.848 6.69922C 191.238 7.50781 190.925 8.63281 190.907 10.0742L 190.907 11.0146C 190.907 12.4854 191.215 13.6426 191.83 14.4863C 192.451 15.3242 193.304 15.7432 194.388 15.7432C 195.478 15.7432 196.321 15.3477 196.919 14.5566C 197.517 13.7598 197.824 12.6201 197.842 11.1377L 197.842 10.1885ZM 211.465 12.9395C 211.307 14.293 210.806 15.3389 209.962 16.0771C 209.124 16.8096 208.008 17.1758 206.613 17.1758C 205.102 17.1758 203.889 16.6338 202.975 15.5498C 202.066 14.4658 201.612 13.0156 201.612 11.1992L 201.612 9.96875C 201.612 8.7793 201.823 7.7334 202.245 6.83105C 202.673 5.92871 203.276 5.2373 204.056 4.75684C 204.835 4.27051 205.737 4.02734 206.763 4.02734C 208.122 4.02734 209.212 4.4082 210.032 5.16992C 210.853 5.92578 211.33 6.97461 211.465 8.31641L 209.769 8.31641C 209.622 7.29688 209.303 6.55859 208.811 6.10156C 208.324 5.64453 207.642 5.41602 206.763 5.41602C 205.685 5.41602 204.838 5.81445 204.223 6.61133C 203.613 7.4082 203.309 8.54199 203.309 10.0127L 203.309 11.252C 203.309 12.6406 203.599 13.7451 204.179 14.5654C 204.759 15.3857 205.57 15.7959 206.613 15.7959C 207.551 15.7959 208.269 15.585 208.767 15.1631C 209.271 14.7354 209.604 13.9941 209.769 12.9395L 211.465 12.9395ZM 220.843 13.6602L 215.481 13.6602L 214.277 17L 212.537 17L 217.424 4.20312L 218.9 4.20312L 223.796 17L 222.064 17L 220.843 13.6602ZM 215.991 12.2715L 220.342 12.2715L 218.162 6.28613L 215.991 12.2715ZM 233.218 5.5918L 229.104 5.5918L 229.104 17L 227.426 17L 227.426 5.5918L 223.321 5.5918L 223.321 4.20312L 233.218 4.20312L 233.218 5.5918ZM 244.714 11.0146C 244.714 12.2686 244.503 13.3643 244.081 14.3018C 243.659 15.2334 243.062 15.9453 242.288 16.4375C 241.515 16.9297 240.612 17.1758 239.581 17.1758C 238.573 17.1758 237.68 16.9297 236.9 16.4375C 236.121 15.9395 235.515 15.2334 235.081 14.3193C 234.653 13.3994 234.434 12.3359 234.422 11.1289L 234.422 10.2061C 234.422 8.97559 234.636 7.88867 235.063 6.94531C 235.491 6.00195 236.095 5.28125 236.874 4.7832C 237.659 4.2793 238.556 4.02734 239.563 4.02734C 240.589 4.02734 241.491 4.27637 242.271 4.77441C 243.056 5.2666 243.659 5.98437 244.081 6.92773C 244.503 7.86523 244.714 8.95801 244.714 10.2061L 244.714 11.0146ZM 243.035 10.1885C 243.035 8.6709 242.73 7.50781 242.121 6.69922C 241.512 5.88477 240.659 5.47754 239.563 5.47754C 238.497 5.47754 237.656 5.88477 237.041 6.69922C 236.432 7.50781 236.118 8.63281 236.101 10.0742L 236.101 11.0146C 236.101 12.4854 236.408 13.6426 237.023 14.4863C 237.645 15.3242 238.497 15.7432 239.581 15.7432C 240.671 15.7432 241.515 15.3477 242.112 14.5566C 242.71 13.7598 243.018 12.6201 243.035 11.1377L 243.035 10.1885ZM 251.938 11.8232L 248.933 11.8232L 248.933 17L 247.236 17L 247.236 4.20312L 251.473 4.20312C 252.914 4.20312 254.021 4.53125 254.795 5.1875C 255.574 5.84375 255.964 6.79883 255.964 8.05273C 255.964 8.84961 255.747 9.54395 255.313 10.1357C 254.886 10.7275 254.288 11.1699 253.521 11.4629L 256.526 16.8945L 256.526 17L 254.716 17L 251.938 11.8232ZM 248.933 10.4434L 251.525 10.4434C 252.363 10.4434 253.028 10.2266 253.521 9.79297C 254.019 9.35938 254.268 8.7793 254.268 8.05273C 254.268 7.26172 254.03 6.65527 253.556 6.2334C 253.087 5.81152 252.407 5.59766 251.517 5.5918L 248.933 5.5918L 248.933 10.4434ZM 260.147 17L 258.46 17L 258.46 4.20312L 260.147 4.20312L 260.147 17ZM 270.466 13.6602L 265.104 13.6602L 263.9 17L 262.16 17L 267.047 4.20312L 268.523 4.20312L 273.419 17L 271.688 17L 270.466 13.6602ZM 265.614 12.2715L 269.965 12.2715L 267.785 6.28613L 265.614 12.2715ZM 15.1084 59L 15.1084 46.2031L 18.7207 46.2031C 19.834 46.2031 20.8184 46.4492 21.6738 46.9414C 22.5293 47.4336 23.1885 48.1338 23.6514 49.042C 24.1201 49.9502 24.3574 50.9932 24.3633 52.1709L 24.3633 52.9883C 24.3633 54.1953 24.1289 55.2529 23.6602 56.1611C 23.1973 57.0693 22.5322 57.7666 21.665 58.2529C 20.8037 58.7393 19.7988 58.9883 18.6504 59L 15.1084 59ZM 16.7959 47.5918L 16.7959 57.6201L 18.5713 57.6201C 19.8721 57.6201 20.8828 57.2158 21.6035 56.4072C 22.3301 55.5986 22.6934 54.4473 22.6934 52.9531L 22.6934 52.2061C 22.6934 50.7529 22.3506 49.625 21.665 48.8223C 20.9854 48.0137 20.0186 47.6035 18.7646 47.5918L 16.7959 47.5918ZM 34.1543 53.085L 28.6084 53.085L 28.6084 57.6201L 35.0508 57.6201L 35.0508 59L 26.9209 59L 26.9209 46.2031L 34.9629 46.2031L 34.9629 47.5918L 28.6084 47.5918L 28.6084 51.7051L 34.1543 51.7051L 34.1543 53.085ZM 40.9219 53.2959C 39.4746 52.8799 38.4199 52.3701 37.7578 51.7666C 37.1016 51.1572 36.7734 50.4072 36.7734 49.5166C 36.7734 48.5088 37.1748 47.6768 37.9775 47.0205C 38.7861 46.3584 39.835 46.0273 41.124 46.0273C 42.0029 46.0273 42.7852 46.1973 43.4707 46.5371C 44.1621 46.877 44.6953 47.3457 45.0703 47.9434C 45.4512 48.541 45.6416 49.1943 45.6416 49.9033L 43.9453 49.9033C 43.9453 49.1299 43.6992 48.5234 43.207 48.084C 42.7148 47.6387 42.0205 47.416 41.124 47.416C 40.292 47.416 39.6416 47.6006 39.1729 47.9697C 38.71 48.333 38.4785 48.8398 38.4785 49.4902C 38.4785 50.0117 38.6982 50.4541 39.1377 50.8174C 39.583 51.1748 40.3359 51.5029 41.3965 51.8018C 42.4629 52.1006 43.2949 52.4316 43.8926 52.7949C 44.4961 53.1523 44.9414 53.5713 45.2285 54.0518C 45.5215 54.5322 45.668 55.0977 45.668 55.748C 45.668 56.7852 45.2637 57.6172 44.4551 58.2441C 43.6465 58.8652 42.5654 59.1758 41.2119 59.1758C 40.333 59.1758 39.5127 59.0088 38.751 58.6748C 37.9893 58.335 37.4004 57.8721 36.9844 57.2861C 36.5742 56.7002 36.3691 56.0352 36.3691 55.291L 38.0654 55.291C 38.0654 56.0645 38.3496 56.6768 38.918 57.1279C 39.4922 57.5732 40.2568 57.7959 41.2119 57.7959C 42.1025 57.7959 42.7852 57.6143 43.2598 57.251C 43.7344 56.8877 43.9717 56.3926 43.9717 55.7656C 43.9717 55.1387 43.752 54.6553 43.3125 54.3154C 42.873 53.9697 42.0762 53.6299 40.9219 53.2959ZM 57.252 54.9395C 57.0938 56.293 56.5928 57.3389 55.749 58.0771C 54.9111 58.8096 53.7949 59.1758 52.4004 59.1758C 50.8887 59.1758 49.6758 58.6338 48.7617 57.5498C 47.8535 56.4658 47.3994 55.0156 47.3994 53.1992L 47.3994 51.9688C 47.3994 50.7793 47.6104 49.7334 48.0322 48.8311C 48.46 47.9287 49.0635 47.2373 49.8428 46.7568C 50.6221 46.2705 51.5244 46.0273 52.5498 46.0273C 53.9092 46.0273 54.999 46.4082 55.8193 47.1699C 56.6396 47.9258 57.1172 48.9746 57.252 50.3164L 55.5557 50.3164C 55.4092 49.2969 55.0898 48.5586 54.5977 48.1016C 54.1113 47.6445 53.4287 47.416 52.5498 47.416C 51.4717 47.416 50.625 47.8145 50.0098 48.6113C 49.4004 49.4082 49.0957 50.542 49.0957 52.0127L 49.0957 53.252C 49.0957 54.6406 49.3857 55.7451 49.9658 56.5654C 50.5459 57.3857 51.3574 57.7959 52.4004 57.7959C 53.3379 57.7959 54.0557 57.585 54.5537 57.1631C 55.0576 56.7354 55.3916 55.9941 55.5557 54.9395L 57.252 54.9395ZM 66.6299 55.6602L 61.2686 55.6602L 60.0645 59L 58.3242 59L 63.2109 46.2031L 64.6875 46.2031L 69.583 59L 67.8516 59L 66.6299 55.6602ZM 61.7783 54.2715L 66.1289 54.2715L 63.9492 48.2861L 61.7783 54.2715ZM 75.999 53.8232L 72.9932 53.8232L 72.9932 59L 71.2969 59L 71.2969 46.2031L 75.5332 46.2031C 76.9746 46.2031 78.082 46.5313 78.8555 47.1875C 79.6348 47.8437 80.0244 48.7988 80.0244 50.0527C 80.0244 50.8496 79.8076 51.5439 79.374 52.1357C 78.9463 52.7275 78.3486 53.1699 77.5811 53.4629L 80.5869 58.8945L 80.5869 59L 78.7764 59L 75.999 53.8232ZM 72.9932 52.4434L 75.5859 52.4434C 76.4238 52.4434 77.0889 52.2266 77.5811 51.793C 78.0791 51.3594 78.3281 50.7793 78.3281 50.0527C 78.3281 49.2617 78.0908 48.6553 77.6162 48.2334C 77.1475 47.8115 76.4678 47.5977 75.5771 47.5918L 72.9932 47.5918L 72.9932 52.4434ZM 91.8457 57.3213C 91.4121 57.9424 90.8057 58.4082 90.0264 58.7188C 89.2529 59.0234 88.3506 59.1758 87.3193 59.1758C 86.2764 59.1758 85.3506 58.9326 84.542 58.4463C 83.7334 57.9541 83.1064 57.2568 82.6611 56.3545C 82.2217 55.4521 81.9961 54.4062 81.9844 53.2168L 81.9844 52.1006C 81.9844 50.1729 82.4326 48.6787 83.3291 47.6182C 84.2314 46.5576 85.4971 46.0273 87.126 46.0273C 88.4619 46.0273 89.5371 46.3701 90.3516 47.0557C 91.166 47.7354 91.6641 48.7021 91.8457 49.9561L 90.1582 49.9561C 89.8418 48.2627 88.834 47.416 87.1348 47.416C 86.0039 47.416 85.1455 47.8145 84.5596 48.6113C 83.9795 49.4023 83.6865 50.5508 83.6807 52.0566L 83.6807 53.1025C 83.6807 54.5381 84.0088 55.6807 84.665 56.5303C 85.3213 57.374 86.209 57.7959 87.3281 57.7959C 87.9609 57.7959 88.5146 57.7256 88.9893 57.585C 89.4639 57.4443 89.8564 57.207 90.167 56.873L 90.167 53.999L 87.2051 53.999L 87.2051 52.6279L 91.8457 52.6279L 91.8457 57.3213ZM 101.733 55.6602L 96.3721 55.6602L 95.168 59L 93.4277 59L 98.3145 46.2031L 99.791 46.2031L 104.687 59L 102.955 59L 101.733 55.6602ZM 96.8818 54.2715L 101.232 54.2715L 99.0527 48.2861L 96.8818 54.2715ZM 118.107 53.085L 112.562 53.085L 112.562 57.6201L 119.004 57.6201L 119.004 59L 110.874 59L 110.874 46.2031L 118.916 46.2031L 118.916 47.5918L 112.562 47.5918L 112.562 51.7051L 118.107 51.7051L 118.107 53.085ZM 122.801 57.6201L 128.865 57.6201L 128.865 59L 121.104 59L 121.104 46.2031L 122.801 46.2031L 122.801 57.6201ZM 136.951 57.6201L 143.016 57.6201L 143.016 59L 135.255 59L 135.255 46.2031L 136.951 46.2031L 136.951 57.6201ZM 146.751 59L 145.063 59L 145.063 46.2031L 146.751 46.2031L 146.751 59ZM 153.615 53.2959C 152.168 52.8799 151.113 52.3701 150.451 51.7666C 149.795 51.1572 149.467 50.4072 149.467 49.5166C 149.467 48.5088 149.868 47.6768 150.671 47.0205C 151.479 46.3584 152.528 46.0273 153.817 46.0273C 154.696 46.0273 155.479 46.1973 156.164 46.5371C 156.855 46.877 157.389 47.3457 157.764 47.9434C 158.145 48.541 158.335 49.1943 158.335 49.9033L 156.639 49.9033C 156.639 49.1299 156.393 48.5234 155.9 48.084C 155.408 47.6387 154.714 47.416 153.817 47.416C 152.985 47.416 152.335 47.6006 151.866 47.9697C 151.403 48.333 151.172 48.8398 151.172 49.4902C 151.172 50.0117 151.392 50.4541 151.831 50.8174C 152.276 51.1748 153.029 51.5029 154.09 51.8018C 155.156 52.1006 155.988 52.4316 156.586 52.7949C 157.189 53.1523 157.635 53.5713 157.922 54.0518C 158.215 54.5322 158.361 55.0977 158.361 55.748C 158.361 56.7852 157.957 57.6172 157.148 58.2441C 156.34 58.8652 155.259 59.1758 153.905 59.1758C 153.026 59.1758 152.206 59.0088 151.444 58.6748C 150.683 58.335 150.094 57.8721 149.678 57.2861C 149.268 56.7002 149.062 56.0352 149.062 55.291L 150.759 55.291C 150.759 56.0645 151.043 56.6768 151.611 57.1279C 152.186 57.5732 152.95 57.7959 153.905 57.7959C 154.796 57.7959 155.479 57.6143 155.953 57.251C 156.428 56.8877 156.665 56.3926 156.665 55.7656C 156.665 55.1387 156.445 54.6553 156.006 54.3154C 155.566 53.9697 154.77 53.6299 153.615 53.2959ZM 169.374 47.5918L 165.261 47.5918L 165.261 59L 163.582 59L 163.582 47.5918L 159.478 47.5918L 159.478 46.2031L 169.374 46.2031L 169.374 47.5918ZM 177.636 55.6602L 172.274 55.6602L 171.07 59L 169.33 59L 174.217 46.2031L 175.693 46.2031L 180.589 59L 178.857 59L 177.636 55.6602ZM 172.784 54.2715L 177.135 54.2715L 174.955 48.2861L 172.784 54.2715ZM 182.312 59L 182.312 46.2031L 185.924 46.2031C 187.037 46.2031 188.021 46.4492 188.877 46.9414C 189.732 47.4336 190.392 48.1338 190.854 49.042C 191.323 49.9502 191.561 50.9932 191.566 52.1709L 191.566 52.9883C 191.566 54.1953 191.332 55.2529 190.863 56.1611C 190.4 57.0693 189.735 57.7666 188.868 58.2529C 188.007 58.7393 187.002 58.9883 185.854 59L 182.312 59ZM 183.999 47.5918L 183.999 57.6201L 185.774 57.6201C 187.075 57.6201 188.086 57.2158 188.807 56.4072C 189.533 55.5986 189.896 54.4473 189.896 52.9531L 189.896 52.2061C 189.896 50.7529 189.554 49.625 188.868 48.8223C 188.188 48.0137 187.222 47.6035 185.968 47.5918L 183.999 47.5918ZM 203.968 53.0146C 203.968 54.2686 203.757 55.3643 203.335 56.3018C 202.913 57.2334 202.315 57.9453 201.542 58.4375C 200.769 58.9297 199.866 59.1758 198.835 59.1758C 197.827 59.1758 196.934 58.9297 196.154 58.4375C 195.375 57.9395 194.769 57.2334 194.335 56.3193C 193.907 55.3994 193.688 54.3359 193.676 53.1289L 193.676 52.2061C 193.676 50.9756 193.89 49.8887 194.317 48.9453C 194.745 48.002 195.349 47.2812 196.128 46.7832C 196.913 46.2793 197.81 46.0273 198.817 46.0273C 199.843 46.0273 200.745 46.2764 201.524 46.7744C 202.31 47.2666 202.913 47.9844 203.335 48.9277C 203.757 49.8652 203.968 50.958 203.968 52.2061L 203.968 53.0146ZM 202.289 52.1885C 202.289 50.6709 201.984 49.5078 201.375 48.6992C 200.766 47.8848 199.913 47.4775 198.817 47.4775C 197.751 47.4775 196.91 47.8848 196.295 48.6992C 195.686 49.5078 195.372 50.6328 195.354 52.0742L 195.354 53.0146C 195.354 54.4854 195.662 55.6426 196.277 56.4863C 196.898 57.3242 197.751 57.7432 198.835 57.7432C 199.925 57.7432 200.769 57.3477 201.366 56.5566C 201.964 55.7598 202.271 54.6201 202.289 53.1377L 202.289 52.1885ZM 210.964 59L 210.964 46.2031L 214.576 46.2031C 215.689 46.2031 216.674 46.4492 217.529 46.9414C 218.385 47.4336 219.044 48.1338 219.507 49.042C 219.976 49.9502 220.213 50.9932 220.219 52.1709L 220.219 52.9883C 220.219 54.1953 219.984 55.2529 219.516 56.1611C 219.053 57.0693 218.388 57.7666 217.521 58.2529C 216.659 58.7393 215.654 58.9883 214.506 59L 210.964 59ZM 212.651 47.5918L 212.651 57.6201L 214.427 57.6201C 215.728 57.6201 216.738 57.2158 217.459 56.4072C 218.186 55.5986 218.549 54.4473 218.549 52.9531L 218.549 52.2061C 218.549 50.7529 218.206 49.625 217.521 48.8223C 216.841 48.0137 215.874 47.6035 214.62 47.5918L 212.651 47.5918ZM 230.01 53.085L 224.464 53.085L 224.464 57.6201L 230.906 57.6201L 230.906 59L 222.776 59L 222.776 46.2031L 230.818 46.2031L 230.818 47.5918L 224.464 47.5918L 224.464 51.7051L 230.01 51.7051L 230.01 53.085ZM 237.472 59L 237.472 46.2031L 241.655 46.2031C 243.044 46.2031 244.087 46.4902 244.784 47.0645C 245.487 47.6387 245.839 48.4883 245.839 49.6133C 245.839 50.2109 245.669 50.7412 245.329 51.2041C 244.989 51.6611 244.526 52.0156 243.94 52.2676C 244.632 52.4609 245.177 52.8301 245.575 53.375C 245.979 53.9141 246.182 54.5586 246.182 55.3086C 246.182 56.457 245.81 57.3594 245.065 58.0156C 244.321 58.6719 243.27 59 241.91 59L 237.472 59ZM 239.159 53.0146L 239.159 57.6201L 241.945 57.6201C 242.73 57.6201 243.349 57.418 243.8 57.0137C 244.257 56.6035 244.485 56.041 244.485 55.3262C 244.485 53.7852 243.647 53.0146 241.972 53.0146L 239.159 53.0146ZM 239.159 51.6611L 241.708 51.6611C 242.446 51.6611 243.035 51.4766 243.475 51.1074C 243.92 50.7383 244.143 50.2373 244.143 49.6045C 244.143 48.9014 243.938 48.3916 243.527 48.0752C 243.117 47.7529 242.493 47.5918 241.655 47.5918L 239.159 47.5918L 239.159 51.6611ZM 255.753 55.6602L 250.392 55.6602L 249.188 59L 247.447 59L 252.334 46.2031L 253.811 46.2031L 258.706 59L 256.975 59L 255.753 55.6602ZM 250.901 54.2715L 255.252 54.2715L 253.072 48.2861L 250.901 54.2715ZM 264.199 53.2959C 262.752 52.8799 261.697 52.3701 261.035 51.7666C 260.379 51.1572 260.051 50.4072 260.051 49.5166C 260.051 48.5088 260.452 47.6768 261.255 47.0205C 262.063 46.3584 263.112 46.0273 264.401 46.0273C 265.28 46.0273 266.062 46.1973 266.748 46.5371C 267.439 46.877 267.973 47.3457 268.348 47.9434C 268.729 48.541 268.919 49.1943 268.919 49.9033L 267.223 49.9033C 267.223 49.1299 266.977 48.5234 266.484 48.084C 265.992 47.6387 265.298 47.416 264.401 47.416C 263.569 47.416 262.919 47.6006 262.45 47.9697C 261.987 48.333 261.756 48.8398 261.756 49.4902C 261.756 50.0117 261.976 50.4541 262.415 50.8174C 262.86 51.1748 263.613 51.5029 264.674 51.8018C 265.74 52.1006 266.572 52.4316 267.17 52.7949C 267.773 53.1523 268.219 53.5713 268.506 54.0518C 268.799 54.5322 268.945 55.0977 268.945 55.748C 268.945 56.7852 268.541 57.6172 267.732 58.2441C 266.924 58.8652 265.843 59.1758 264.489 59.1758C 263.61 59.1758 262.79 59.0088 262.028 58.6748C 261.267 58.335 260.678 57.8721 260.262 57.2861C 259.852 56.7002 259.646 56.0352 259.646 55.291L 261.343 55.291C 261.343 56.0645 261.627 56.6768 262.195 57.1279C 262.77 57.5732 263.534 57.7959 264.489 57.7959C 265.38 57.7959 266.062 57.6143 266.537 57.251C 267.012 56.8877 267.249 56.3926 267.249 55.7656C 267.249 55.1387 267.029 54.6553 266.59 54.3154C 266.15 53.9697 265.354 53.6299 264.199 53.2959ZM 278.35 53.085L 272.804 53.085L 272.804 57.6201L 279.246 57.6201L 279.246 59L 271.116 59L 271.116 46.2031L 279.158 46.2031L 279.158 47.5918L 272.804 47.5918L 272.804 51.7051L 278.35 51.7051L 278.35 53.085ZM 285.117 53.2959C 283.67 52.8799 282.615 52.3701 281.953 51.7666C 281.297 51.1572 280.969 50.4072 280.969 49.5166C 280.969 48.5088 281.37 47.6768 282.173 47.0205C 282.981 46.3584 284.03 46.0273 285.319 46.0273C 286.198 46.0273 286.98 46.1973 287.666 46.5371C 288.357 46.877 288.891 47.3457 289.266 47.9434C 289.646 48.541 289.837 49.1943 289.837 49.9033L 288.141 49.9033C 288.141 49.1299 287.895 48.5234 287.402 48.084C 286.91 47.6387 286.216 47.416 285.319 47.416C 284.487 47.416 283.837 47.6006 283.368 47.9697C 282.905 48.333 282.674 48.8398 282.674 49.4902C 282.674 50.0117 282.894 50.4541 283.333 50.8174C 283.778 51.1748 284.531 51.5029 285.592 51.8018C 286.658 52.1006 287.49 52.4316 288.088 52.7949C 288.691 53.1523 289.137 53.5713 289.424 54.0518C 289.717 54.5322 289.863 55.0977 289.863 55.748C 289.863 56.7852 289.459 57.6172 288.65 58.2441C 287.842 58.8652 286.761 59.1758 285.407 59.1758C 284.528 59.1758 283.708 59.0088 282.946 58.6748C 282.185 58.335 281.596 57.8721 281.18 57.2861C 280.77 56.7002 280.564 56.0352 280.564 55.291L 282.261 55.291C 282.261 56.0645 282.545 56.6768 283.113 57.1279C 283.688 57.5732 284.452 57.7959 285.407 57.7959C 286.298 57.7959 286.98 57.6143 287.455 57.251C 287.93 56.8877 288.167 56.3926 288.167 55.7656C 288.167 55.1387 287.947 54.6553 287.508 54.3154C 287.068 53.9697 286.271 53.6299 285.117 53.2959ZM 296.499 59L 296.499 46.2031L 300.111 46.2031C 301.225 46.2031 302.209 46.4492 303.064 46.9414C 303.92 47.4336 304.579 48.1338 305.042 49.042C 305.511 49.9502 305.748 50.9932 305.754 52.1709L 305.754 52.9883C 305.754 54.1953 305.52 55.2529 305.051 56.1611C 304.588 57.0693 303.923 57.7666 303.056 58.2529C 302.194 58.7393 301.189 58.9883 300.041 59L 296.499 59ZM 298.187 47.5918L 298.187 57.6201L 299.962 57.6201C 301.263 57.6201 302.273 57.2158 302.994 56.4072C 303.721 55.5986 304.084 54.4473 304.084 52.9531L 304.084 52.2061C 304.084 50.7529 303.741 49.625 303.056 48.8223C 302.376 48.0137 301.409 47.6035 300.155 47.5918L 298.187 47.5918ZM 315.545 53.085L 309.999 53.085L 309.999 57.6201L 316.441 57.6201L 316.441 59L 308.312 59L 308.312 46.2031L 316.354 46.2031L 316.354 47.5918L 309.999 47.5918L 309.999 51.7051L 315.545 51.7051L 315.545 53.085ZM 323.007 59L 323.007 46.2031L 326.619 46.2031C 327.732 46.2031 328.717 46.4492 329.572 46.9414C 330.428 47.4336 331.087 48.1338 331.55 49.042C 332.019 49.9502 332.256 50.9932 332.262 52.1709L 332.262 52.9883C 332.262 54.1953 332.027 55.2529 331.559 56.1611C 331.096 57.0693 330.431 57.7666 329.563 58.2529C 328.702 58.7393 327.697 58.9883 326.549 59L 323.007 59ZM 324.694 47.5918L 324.694 57.6201L 326.47 57.6201C 327.771 57.6201 328.781 57.2158 329.502 56.4072C 330.229 55.5986 330.592 54.4473 330.592 52.9531L 330.592 52.2061C 330.592 50.7529 330.249 49.625 329.563 48.8223C 328.884 48.0137 327.917 47.6035 326.663 47.5918L 324.694 47.5918ZM 341.692 55.6602L 336.331 55.6602L 335.127 59L 333.387 59L 338.273 46.2031L 339.75 46.2031L 344.646 59L 342.914 59L 341.692 55.6602ZM 336.841 54.2715L 341.191 54.2715L 339.012 48.2861L 336.841 54.2715ZM 354.067 47.5918L 349.954 47.5918L 349.954 59L 348.275 59L 348.275 47.5918L 344.171 47.5918L 344.171 46.2031L 354.067 46.2031L 354.067 47.5918ZM 365.563 53.0146C 365.563 54.2686 365.353 55.3643 364.931 56.3018C 364.509 57.2334 363.911 57.9453 363.138 58.4375C 362.364 58.9297 361.462 59.1758 360.431 59.1758C 359.423 59.1758 358.529 58.9297 357.75 58.4375C 356.971 57.9395 356.364 57.2334 355.931 56.3193C 355.503 55.3994 355.283 54.3359 355.271 53.1289L 355.271 52.2061C 355.271 50.9756 355.485 49.8887 355.913 48.9453C 356.341 48.002 356.944 47.2812 357.724 46.7832C 358.509 46.2793 359.405 46.0273 360.413 46.0273C 361.438 46.0273 362.341 46.2764 363.12 46.7744C 363.905 47.2666 364.509 47.9844 364.931 48.9277C 365.353 49.8652 365.563 50.958 365.563 52.2061L 365.563 53.0146ZM 363.885 52.1885C 363.885 50.6709 363.58 49.5078 362.971 48.6992C 362.361 47.8848 361.509 47.4775 360.413 47.4775C 359.347 47.4775 358.506 47.8848 357.891 48.6992C 357.281 49.5078 356.968 50.6328 356.95 52.0742L 356.95 53.0146C 356.95 54.4854 357.258 55.6426 357.873 56.4863C 358.494 57.3242 359.347 57.7432 360.431 57.7432C 361.521 57.7432 362.364 57.3477 362.962 56.5566C 363.56 55.7598 363.867 54.6201 363.885 53.1377L 363.885 52.1885ZM 371.865 53.2959C 370.418 52.8799 369.363 52.3701 368.701 51.7666C 368.045 51.1572 367.717 50.4072 367.717 49.5166C 367.717 48.5088 368.118 47.6768 368.921 47.0205C 369.729 46.3584 370.778 46.0273 372.067 46.0273C 372.946 46.0273 373.729 46.1973 374.414 46.5371C 375.105 46.877 375.639 47.3457 376.014 47.9434C 376.395 48.541 376.585 49.1943 376.585 49.9033L 374.889 49.9033C 374.889 49.1299 374.643 48.5234 374.15 48.084C 373.658 47.6387 372.964 47.416 372.067 47.416C 371.235 47.416 370.585 47.6006 370.116 47.9697C 369.653 48.333 369.422 48.8398 369.422 49.4902C 369.422 50.0117 369.642 50.4541 370.081 50.8174C 370.526 51.1748 371.279 51.5029 372.34 51.8018C 373.406 52.1006 374.238 52.4316 374.836 52.7949C 375.439 53.1523 375.885 53.5713 376.172 54.0518C 376.465 54.5322 376.611 55.0977 376.611 55.748C 376.611 56.7852 376.207 57.6172 375.398 58.2441C 374.59 58.8652 373.509 59.1758 372.155 59.1758C 371.276 59.1758 370.456 59.0088 369.694 58.6748C 368.933 58.335 368.344 57.8721 367.928 57.2861C 367.518 56.7002 367.312 56.0352 367.312 55.291L 369.009 55.291C 369.009 56.0645 369.293 56.6768 369.861 57.1279C 370.436 57.5732 371.2 57.7959 372.155 57.7959C 373.046 57.7959 373.729 57.6143 374.203 57.251C 374.678 56.8877 374.915 56.3926 374.915 55.7656C 374.915 55.1387 374.695 54.6553 374.256 54.3154C 373.816 53.9697 373.02 53.6299 371.865 53.2959Z"/>
<path id="path1_fill" d="M 7.49707 11.5684L 12.5068 13.335L 12.5068 15.7959L 4.93945 12.5879L 4.93945 10.5137L 12.5068 7.30566L 12.5068 9.7666L 7.49707 11.5684ZM 284.282 11.542L 279.176 9.75781L 279.176 7.31445L 286.831 10.5225L 286.831 12.5879L 279.176 15.8047L 279.176 13.3525L 284.282 11.542ZM 3.03223 53.5684L 8.04199 55.335L 8.04199 57.7959L 0.474609 54.5879L 0.474609 52.5137L 8.04199 49.3057L 8.04199 51.7666L 3.03223 53.5684ZM 387.923 53.542L 382.816 51.7578L 382.816 49.3145L 390.472 52.5225L 390.472 54.5879L 382.816 57.8047L 382.816 55.3525L 387.923 53.542Z"/>
</defs>
</svg>
