<svg width="310" height="51" viewBox="0 0 310 51" version="1.1" xmlns="http://www.w3.org/2000/svg" xmlns:xlink="http://www.w3.org/1999/xlink">
<title>CORRUPCI&#195;&#147;N EN EL SECTOR DE HIDROCARBUROS</title>
<desc>Created using Figma</desc>
<g id="Canvas" transform="translate(-141 78)">
<g id="CORRUPCI&#195;&#147;N EN EL SECTOR DE HIDROCARBUROS">
<use xlink:href="#path0_fill" transform="translate(126 -77.719)" fill="#344154"/>
</g>
</g>
<defs>
<path id="path0_fill" d="M 28.6016 16.6797C 28.4063 18.4766 27.7617 19.8516 26.668 20.8047C 25.582 21.7578 24.1328 22.2344 22.3203 22.2344C 21.0547 22.2344 19.9336 21.918 18.957 21.2852C 17.9883 20.6523 17.2383 19.7578 16.707 18.6016C 16.1758 17.4375 15.9063 16.1094 15.8984 14.6172L 15.8984 12.4023C 15.8984 10.8867 16.1641 9.54297 16.6953 8.37109C 17.2266 7.19922 17.9883 6.29688 18.9805 5.66406C 19.9805 5.02344 21.1289 4.70312 22.4258 4.70312C 24.2539 4.70312 25.6953 5.19922 26.75 6.19141C 27.8125 7.17578 28.4297 8.53906 28.6016 10.2812L 27.1484 10.2812C 26.7891 7.38281 25.2148 5.93359 22.4258 5.93359C 20.8789 5.93359 19.6445 6.51172 18.7227 7.66797C 17.8086 8.82422 17.3516 10.4219 17.3516 12.4609L 17.3516 14.5469C 17.3516 16.5156 17.7969 18.0859 18.6875 19.2578C 19.5859 20.4297 20.7969 21.0156 22.3203 21.0156C 23.8281 21.0156 24.9648 20.6563 25.7305 19.9375C 26.4961 19.2109 26.9687 18.125 27.1484 16.6797L 28.6016 16.6797ZM 44.7148 14.3945C 44.7148 15.9648 44.4414 17.3437 43.8945 18.5312C 43.3555 19.7187 42.582 20.6328 41.5742 21.2734C 40.5664 21.9141 39.4023 22.2344 38.082 22.2344C 36.0898 22.2344 34.4805 21.5234 33.2539 20.1016C 32.0273 18.6719 31.4141 16.7461 31.4141 14.3242L 31.4141 12.5664C 31.4141 11.0117 31.6875 9.63672 32.2344 8.44141C 32.7891 7.23828 33.5703 6.31641 34.5781 5.67578C 35.5859 5.02734 36.7461 4.70312 38.0586 4.70312C 39.3711 4.70312 40.5273 5.01953 41.5273 5.65234C 42.5352 6.28516 43.3125 7.17969 43.8594 8.33594C 44.4062 9.49219 44.6914 10.832 44.7148 12.3555L 44.7148 14.3945ZM 43.2734 12.543C 43.2734 10.4883 42.8086 8.87891 41.8789 7.71484C 40.9492 6.55078 39.6758 5.96875 38.0586 5.96875C 36.4727 5.96875 35.207 6.55469 34.2617 7.72656C 33.3242 8.89063 32.8555 10.5195 32.8555 12.6133L 32.8555 14.3945C 32.8555 16.418 33.3242 18.0234 34.2617 19.2109C 35.1992 20.3906 36.4727 20.9805 38.082 20.9805C 39.7148 20.9805 40.9883 20.3984 41.9023 19.2344C 42.8164 18.0625 43.2734 16.4336 43.2734 14.3477L 43.2734 12.543ZM 54.7227 14.8984L 49.7656 14.8984L 49.7656 22L 48.3125 22L 48.3125 4.9375L 53.8555 4.9375C 55.6758 4.9375 57.0977 5.37891 58.1211 6.26172C 59.1445 7.14453 59.6562 8.37891 59.6562 9.96484C 59.6562 11.0586 59.3359 12.0234 58.6953 12.8594C 58.0547 13.6953 57.1953 14.2734 56.1172 14.5938L 60.3828 21.8477L 60.3828 22L 58.8477 22L 54.7227 14.8984ZM 49.7656 13.668L 54.1836 13.668C 55.3945 13.668 56.3672 13.3242 57.1016 12.6367C 57.8359 11.9492 58.2031 11.0586 58.2031 9.96484C 58.2031 8.76172 57.8203 7.82812 57.0547 7.16406C 56.2891 6.5 55.2148 6.16797 53.832 6.16797L 49.7656 6.16797L 49.7656 13.668ZM 69.957 14.8984L 65 14.8984L 65 22L 63.5469 22L 63.5469 4.9375L 69.0898 4.9375C 70.9102 4.9375 72.332 5.37891 73.3555 6.26172C 74.3789 7.14453 74.8906 8.37891 74.8906 9.96484C 74.8906 11.0586 74.5703 12.0234 73.9297 12.8594C 73.2891 13.6953 72.4297 14.2734 71.3516 14.5938L 75.6172 21.8477L 75.6172 22L 74.082 22L 69.957 14.8984ZM 65 13.668L 69.418 13.668C 70.6289 13.668 71.6016 13.3242 72.3359 12.6367C 73.0703 11.9492 73.4375 11.0586 73.4375 9.96484C 73.4375 8.76172 73.0547 7.82812 72.2891 7.16406C 71.5234 6.5 70.4492 6.16797 69.0664 6.16797L 65 6.16797L 65 13.668ZM 90.5703 4.9375L 90.5703 16.5859C 90.5625 17.7344 90.3086 18.7344 89.8086 19.5859C 89.3086 20.4375 88.6016 21.0937 87.6875 21.5547C 86.7813 22.0078 85.7383 22.2344 84.5586 22.2344C 82.7617 22.2344 81.3203 21.7461 80.2344 20.7695C 79.1562 19.7852 78.5977 18.4258 78.5586 16.6914L 78.5586 4.9375L 79.9883 4.9375L 79.9883 16.4805C 79.9883 17.918 80.3984 19.0352 81.2188 19.832C 82.0391 20.6211 83.1523 21.0156 84.5586 21.0156C 85.9648 21.0156 87.0742 20.6172 87.8867 19.8203C 88.707 19.0234 89.1172 17.9141 89.1172 16.4922L 89.1172 4.9375L 90.5703 4.9375ZM 96.0312 15.0508L 96.0312 22L 94.5898 22L 94.5898 4.9375L 100.402 4.9375C 102.176 4.9375 103.574 5.39062 104.598 6.29688C 105.629 7.20313 106.145 8.44922 106.145 10.0352C 106.145 11.6367 105.648 12.875 104.656 13.75C 103.672 14.6172 102.242 15.0508 100.367 15.0508L 96.0312 15.0508ZM 96.0312 13.832L 100.402 13.832C 101.801 13.832 102.867 13.5 103.602 12.8359C 104.336 12.1719 104.703 11.2461 104.703 10.0586C 104.703 8.87891 104.336 7.94141 103.602 7.24609C 102.875 6.54297 101.84 6.18359 100.496 6.16797L 96.0312 6.16797L 96.0312 13.832ZM 121.461 16.6797C 121.266 18.4766 120.621 19.8516 119.527 20.8047C 118.441 21.7578 116.992 22.2344 115.18 22.2344C 113.914 22.2344 112.793 21.918 111.816 21.2852C 110.848 20.6523 110.098 19.7578 109.566 18.6016C 109.035 17.4375 108.766 16.1094 108.758 14.6172L 108.758 12.4023C 108.758 10.8867 109.023 9.54297 109.555 8.37109C 110.086 7.19922 110.848 6.29688 111.84 5.66406C 112.84 5.02344 113.988 4.70312 115.285 4.70312C 117.113 4.70312 118.555 5.19922 119.609 6.19141C 120.672 7.17578 121.289 8.53906 121.461 10.2812L 120.008 10.2812C 119.648 7.38281 118.074 5.93359 115.285 5.93359C 113.738 5.93359 112.504 6.51172 111.582 7.66797C 110.668 8.82422 110.211 10.4219 110.211 12.4609L 110.211 14.5469C 110.211 16.5156 110.656 18.0859 111.547 19.2578C 112.445 20.4297 113.656 21.0156 115.18 21.0156C 116.688 21.0156 117.824 20.6563 118.59 19.9375C 119.355 19.2109 119.828 18.125 120.008 16.6797L 121.461 16.6797ZM 126.723 22L 125.281 22L 125.281 4.9375L 126.723 4.9375L 126.723 22ZM 143.973 14.3945C 143.973 15.9648 143.699 17.3437 143.152 18.5312C 142.613 19.7187 141.84 20.6328 140.832 21.2734C 139.824 21.9141 138.66 22.2344 137.34 22.2344C 135.348 22.2344 133.738 21.5234 132.512 20.1016C 131.285 18.6719 130.672 16.7461 130.672 14.3242L 130.672 12.5664C 130.672 11.0117 130.945 9.63672 131.492 8.44141C 132.047 7.23828 132.828 6.31641 133.836 5.67578C 134.844 5.02734 136.004 4.70312 137.316 4.70312C 138.629 4.70312 139.785 5.01953 140.785 5.65234C 141.793 6.28516 142.57 7.17969 143.117 8.33594C 143.664 9.49219 143.949 10.832 143.973 12.3555L 143.973 14.3945ZM 142.531 12.543C 142.531 10.4883 142.066 8.87891 141.137 7.71484C 140.207 6.55078 138.934 5.96875 137.316 5.96875C 135.73 5.96875 134.465 6.55469 133.52 7.72656C 132.582 8.89063 132.113 10.5195 132.113 12.6133L 132.113 14.3945C 132.113 16.418 132.582 18.0234 133.52 19.2109C 134.457 20.3906 135.73 20.9805 137.34 20.9805C 138.973 20.9805 140.246 20.3984 141.16 19.2344C 142.074 18.0625 142.531 16.4336 142.531 14.3477L 142.531 12.543ZM 138.711 0.167969L 140.41 0.167969L 137.703 3.44922L 136.473 3.44922L 138.711 0.167969ZM 160.309 22L 158.867 22L 149.059 7.39844L 149.059 22L 147.605 22L 147.605 4.9375L 149.059 4.9375L 158.879 19.5508L 158.879 4.9375L 160.309 4.9375L 160.309 22ZM 179.902 13.8203L 171.922 13.8203L 171.922 20.7812L 181.098 20.7812L 181.098 22L 170.48 22L 170.48 4.9375L 181.039 4.9375L 181.039 6.16797L 171.922 6.16797L 171.922 12.6016L 179.902 12.6016L 179.902 13.8203ZM 196.848 22L 195.406 22L 185.598 7.39844L 185.598 22L 184.145 22L 184.145 4.9375L 185.598 4.9375L 195.418 19.5508L 195.418 4.9375L 196.848 4.9375L 196.848 22ZM 216.441 13.8203L 208.461 13.8203L 208.461 20.7812L 217.637 20.7812L 217.637 22L 207.02 22L 207.02 4.9375L 217.578 4.9375L 217.578 6.16797L 208.461 6.16797L 208.461 12.6016L 216.441 12.6016L 216.441 13.8203ZM 222.137 20.7812L 230.562 20.7812L 230.562 22L 220.684 22L 220.684 4.9375L 222.137 4.9375L 222.137 20.7812ZM 248.832 17.8047C 248.832 16.8594 248.5 16.1133 247.836 15.5664C 247.172 15.0117 245.957 14.4883 244.191 13.9961C 242.426 13.4961 241.137 12.9531 240.324 12.3672C 239.168 11.5391 238.59 10.4531 238.59 9.10938C 238.59 7.80469 239.125 6.74609 240.195 5.93359C 241.273 5.11328 242.648 4.70312 244.32 4.70312C 245.453 4.70312 246.465 4.92187 247.355 5.35938C 248.254 5.79688 248.949 6.40625 249.441 7.1875C 249.934 7.96875 250.18 8.83984 250.18 9.80078L 248.727 9.80078C 248.727 8.63672 248.328 7.70312 247.531 7C 246.734 6.28906 245.664 5.93359 244.32 5.93359C 243.016 5.93359 241.977 6.22656 241.203 6.8125C 240.43 7.39063 240.043 8.14844 240.043 9.08594C 240.043 9.95312 240.391 10.6602 241.086 11.207C 241.781 11.7539 242.895 12.2383 244.426 12.6602C 245.957 13.0742 247.117 13.5078 247.906 13.9609C 248.695 14.4062 249.289 14.9414 249.688 15.5664C 250.086 16.1914 250.285 16.9297 250.285 17.7812C 250.285 19.125 249.746 20.2031 248.668 21.0156C 247.598 21.8281 246.184 22.2344 244.426 22.2344C 243.223 22.2344 242.117 22.0195 241.109 21.5898C 240.109 21.1602 239.348 20.5586 238.824 19.7852C 238.309 19.0117 238.051 18.125 238.051 17.125L 239.492 17.125C 239.492 18.3281 239.941 19.2773 240.84 19.9727C 241.738 20.668 242.934 21.0156 244.426 21.0156C 245.754 21.0156 246.82 20.7227 247.625 20.1367C 248.43 19.5508 248.832 18.7734 248.832 17.8047ZM 262.824 13.8203L 254.844 13.8203L 254.844 20.7812L 264.02 20.7812L 264.02 22L 253.402 22L 253.402 4.9375L 263.961 4.9375L 263.961 6.16797L 254.844 6.16797L 254.844 12.6016L 262.824 12.6016L 262.824 13.8203ZM 279.148 16.6797C 278.953 18.4766 278.309 19.8516 277.215 20.8047C 276.129 21.7578 274.68 22.2344 272.867 22.2344C 271.602 22.2344 270.48 21.918 269.504 21.2852C 268.535 20.6523 267.785 19.7578 267.254 18.6016C 266.723 17.4375 266.453 16.1094 266.445 14.6172L 266.445 12.4023C 266.445 10.8867 266.711 9.54297 267.242 8.37109C 267.773 7.19922 268.535 6.29688 269.527 5.66406C 270.527 5.02344 271.676 4.70312 272.973 4.70312C 274.801 4.70312 276.242 5.19922 277.297 6.19141C 278.359 7.17578 278.977 8.53906 279.148 10.2812L 277.695 10.2812C 277.336 7.38281 275.762 5.93359 272.973 5.93359C 271.426 5.93359 270.191 6.51172 269.27 7.66797C 268.355 8.82422 267.898 10.4219 267.898 12.4609L 267.898 14.5469C 267.898 16.5156 268.344 18.0859 269.234 19.2578C 270.133 20.4297 271.344 21.0156 272.867 21.0156C 274.375 21.0156 275.512 20.6563 276.277 19.9375C 277.043 19.2109 277.516 18.125 277.695 16.6797L 279.148 16.6797ZM 293.879 6.16797L 288.031 6.16797L 288.031 22L 286.59 22L 286.59 6.16797L 280.754 6.16797L 280.754 4.9375L 293.879 4.9375L 293.879 6.16797ZM 308.926 14.3945C 308.926 15.9648 308.652 17.3437 308.105 18.5312C 307.566 19.7187 306.793 20.6328 305.785 21.2734C 304.777 21.9141 303.613 22.2344 302.293 22.2344C 300.301 22.2344 298.691 21.5234 297.465 20.1016C 296.238 18.6719 295.625 16.7461 295.625 14.3242L 295.625 12.5664C 295.625 11.0117 295.898 9.63672 296.445 8.44141C 297 7.23828 297.781 6.31641 298.789 5.67578C 299.797 5.02734 300.957 4.70312 302.27 4.70312C 303.582 4.70312 304.738 5.01953 305.738 5.65234C 306.746 6.28516 307.523 7.17969 308.07 8.33594C 308.617 9.49219 308.902 10.832 308.926 12.3555L 308.926 14.3945ZM 307.484 12.543C 307.484 10.4883 307.02 8.87891 306.09 7.71484C 305.16 6.55078 303.887 5.96875 302.27 5.96875C 300.684 5.96875 299.418 6.55469 298.473 7.72656C 297.535 8.89063 297.066 10.5195 297.066 12.6133L 297.066 14.3945C 297.066 16.418 297.535 18.0234 298.473 19.2109C 299.41 20.3906 300.684 20.9805 302.293 20.9805C 303.926 20.9805 305.199 20.3984 306.113 19.2344C 307.027 18.0625 307.484 16.4336 307.484 14.3477L 307.484 12.543ZM 318.934 14.8984L 313.977 14.8984L 313.977 22L 312.523 22L 312.523 4.9375L 318.066 4.9375C 319.887 4.9375 321.309 5.37891 322.332 6.26172C 323.355 7.14453 323.867 8.37891 323.867 9.96484C 323.867 11.0586 323.547 12.0234 322.906 12.8594C 322.266 13.6953 321.406 14.2734 320.328 14.5938L 324.594 21.8477L 324.594 22L 323.059 22L 318.934 14.8984ZM 313.977 13.668L 318.395 13.668C 319.605 13.668 320.578 13.3242 321.312 12.6367C 322.047 11.9492 322.414 11.0586 322.414 9.96484C 322.414 8.76172 322.031 7.82812 321.266 7.16406C 320.5 6.5 319.426 6.16797 318.043 6.16797L 313.977 6.16797L 313.977 13.668ZM 58.2383 50L 58.2383 32.9375L 63.0078 32.9375C 64.4062 32.9375 65.6602 33.2578 66.7695 33.8984C 67.8789 34.5312 68.7422 35.4414 69.3594 36.6289C 69.9844 37.8164 70.2969 39.168 70.2969 40.6836L 70.2969 42.2539C 70.2969 43.7773 69.9883 45.1289 69.3711 46.3086C 68.7539 47.4883 67.8828 48.3984 66.7578 49.0391C 65.6406 49.6797 64.3555 50 62.9023 50L 58.2383 50ZM 59.6797 34.168L 59.6797 48.7812L 62.9141 48.7812C 64.7109 48.7812 66.1523 48.1875 67.2383 47C 68.3242 45.8047 68.8672 44.1914 68.8672 42.1602L 68.8672 40.6602C 68.8672 38.6992 68.332 37.1289 67.2617 35.9492C 66.1914 34.7695 64.7812 34.1758 63.0312 34.168L 59.6797 34.168ZM 83.3867 41.8203L 75.4062 41.8203L 75.4062 48.7812L 84.582 48.7812L 84.582 50L 73.9648 50L 73.9648 32.9375L 84.5234 32.9375L 84.5234 34.168L 75.4062 34.168L 75.4062 40.6016L 83.3867 40.6016L 83.3867 41.8203ZM 106.109 50L 104.656 50L 104.656 41.8203L 94.9062 41.8203L 94.9062 50L 93.4648 50L 93.4648 32.9375L 94.9062 32.9375L 94.9062 40.6016L 104.656 40.6016L 104.656 32.9375L 106.109 32.9375L 106.109 50ZM 112.215 50L 110.773 50L 110.773 32.9375L 112.215 32.9375L 112.215 50ZM 116.855 50L 116.855 32.9375L 121.625 32.9375C 123.023 32.9375 124.277 33.2578 125.387 33.8984C 126.496 34.5312 127.359 35.4414 127.977 36.6289C 128.602 37.8164 128.914 39.168 128.914 40.6836L 128.914 42.2539C 128.914 43.7773 128.605 45.1289 127.988 46.3086C 127.371 47.4883 126.5 48.3984 125.375 49.0391C 124.258 49.6797 122.973 50 121.52 50L 116.855 50ZM 118.297 34.168L 118.297 48.7812L 121.531 48.7812C 123.328 48.7812 124.77 48.1875 125.855 47C 126.941 45.8047 127.484 44.1914 127.484 42.1602L 127.484 40.6602C 127.484 38.6992 126.949 37.1289 125.879 35.9492C 124.809 34.7695 123.398 34.1758 121.648 34.168L 118.297 34.168ZM 138.957 42.8984L 134 42.8984L 134 50L 132.547 50L 132.547 32.9375L 138.09 32.9375C 139.91 32.9375 141.332 33.3789 142.355 34.2617C 143.379 35.1445 143.891 36.3789 143.891 37.9648C 143.891 39.0586 143.57 40.0234 142.93 40.8594C 142.289 41.6953 141.43 42.2734 140.352 42.5938L 144.617 49.8477L 144.617 50L 143.082 50L 138.957 42.8984ZM 134 41.668L 138.418 41.668C 139.629 41.668 140.602 41.3242 141.336 40.6367C 142.07 39.9492 142.438 39.0586 142.438 37.9648C 142.438 36.7617 142.055 35.8281 141.289 35.1641C 140.523 34.5 139.449 34.168 138.066 34.168L 134 34.168L 134 41.668ZM 160.426 42.3945C 160.426 43.9648 160.152 45.3437 159.605 46.5312C 159.066 47.7187 158.293 48.6328 157.285 49.2734C 156.277 49.9141 155.113 50.2344 153.793 50.2344C 151.801 50.2344 150.191 49.5234 148.965 48.1016C 147.738 46.6719 147.125 44.7461 147.125 42.3242L 147.125 40.5664C 147.125 39.0117 147.398 37.6367 147.945 36.4414C 148.5 35.2383 149.281 34.3164 150.289 33.6758C 151.297 33.0273 152.457 32.7031 153.77 32.7031C 155.082 32.7031 156.238 33.0195 157.238 33.6523C 158.246 34.2852 159.023 35.1797 159.57 36.3359C 160.117 37.4922 160.402 38.832 160.426 40.3555L 160.426 42.3945ZM 158.984 40.543C 158.984 38.4883 158.52 36.8789 157.59 35.7148C 156.66 34.5508 155.387 33.9688 153.77 33.9688C 152.184 33.9688 150.918 34.5547 149.973 35.7266C 149.035 36.8906 148.566 38.5195 148.566 40.6133L 148.566 42.3945C 148.566 44.418 149.035 46.0234 149.973 47.2109C 150.91 48.3906 152.184 48.9805 153.793 48.9805C 155.426 48.9805 156.699 48.3984 157.613 47.2344C 158.527 46.0625 158.984 44.4336 158.984 42.3477L 158.984 40.543ZM 176.141 44.6797C 175.945 46.4766 175.301 47.8516 174.207 48.8047C 173.121 49.7578 171.672 50.2344 169.859 50.2344C 168.594 50.2344 167.473 49.918 166.496 49.2852C 165.527 48.6523 164.777 47.7578 164.246 46.6016C 163.715 45.4375 163.445 44.1094 163.438 42.6172L 163.438 40.4023C 163.438 38.8867 163.703 37.543 164.234 36.3711C 164.766 35.1992 165.527 34.2969 166.52 33.6641C 167.52 33.0234 168.668 32.7031 169.965 32.7031C 171.793 32.7031 173.234 33.1992 174.289 34.1914C 175.352 35.1758 175.969 36.5391 176.141 38.2812L 174.688 38.2812C 174.328 35.3828 172.754 33.9336 169.965 33.9336C 168.418 33.9336 167.184 34.5117 166.262 35.668C 165.348 36.8242 164.891 38.4219 164.891 40.4609L 164.891 42.5469C 164.891 44.5156 165.336 46.0859 166.227 47.2578C 167.125 48.4297 168.336 49.0156 169.859 49.0156C 171.367 49.0156 172.504 48.6563 173.27 47.9375C 174.035 47.2109 174.508 46.125 174.688 44.6797L 176.141 44.6797ZM 188.855 45.2188L 181.109 45.2188L 179.352 50L 177.84 50L 184.297 32.9375L 185.668 32.9375L 192.125 50L 190.625 50L 188.855 45.2188ZM 181.555 43.9883L 188.398 43.9883L 184.977 34.6953L 181.555 43.9883ZM 201.02 42.8984L 196.062 42.8984L 196.062 50L 194.609 50L 194.609 32.9375L 200.152 32.9375C 201.973 32.9375 203.395 33.3789 204.418 34.2617C 205.441 35.1445 205.953 36.3789 205.953 37.9648C 205.953 39.0586 205.633 40.0234 204.992 40.8594C 204.352 41.6953 203.492 42.2734 202.414 42.5938L 206.68 49.8477L 206.68 50L 205.145 50L 201.02 42.8984ZM 196.062 41.668L 200.48 41.668C 201.691 41.668 202.664 41.3242 203.398 40.6367C 204.133 39.9492 204.5 39.0586 204.5 37.9648C 204.5 36.7617 204.117 35.8281 203.352 35.1641C 202.586 34.5 201.512 34.168 200.129 34.168L 196.062 34.168L 196.062 41.668ZM 209.879 50L 209.879 32.9375L 214.918 32.9375C 216.746 32.9375 218.133 33.3164 219.078 34.0742C 220.023 34.8242 220.496 35.9336 220.496 37.4023C 220.496 38.2852 220.254 39.0547 219.77 39.7109C 219.293 40.3594 218.637 40.8242 217.801 41.1055C 218.793 41.3242 219.59 41.8125 220.191 42.5703C 220.801 43.3281 221.105 44.2031 221.105 45.1953C 221.105 46.7031 220.617 47.8828 219.641 48.7344C 218.672 49.5781 217.32 50 215.586 50L 209.879 50ZM 211.32 41.7969L 211.32 48.7812L 215.645 48.7812C 216.879 48.7812 217.855 48.4687 218.574 47.8438C 219.301 47.2109 219.664 46.3359 219.664 45.2188C 219.664 44.1641 219.316 43.332 218.621 42.7227C 217.934 42.1055 216.98 41.7969 215.762 41.7969L 211.32 41.7969ZM 211.32 40.5898L 215.258 40.5898C 216.461 40.5664 217.391 40.2852 218.047 39.7461C 218.711 39.1992 219.043 38.4063 219.043 37.3672C 219.043 36.2734 218.699 35.4688 218.012 34.9531C 217.332 34.4297 216.301 34.168 214.918 34.168L 211.32 34.168L 211.32 40.5898ZM 236.352 32.9375L 236.352 44.5859C 236.344 45.7344 236.09 46.7344 235.59 47.5859C 235.09 48.4375 234.383 49.0937 233.469 49.5547C 232.563 50.0078 231.52 50.2344 230.34 50.2344C 228.543 50.2344 227.102 49.7461 226.016 48.7695C 224.938 47.7852 224.379 46.4258 224.34 44.6914L 224.34 32.9375L 225.77 32.9375L 225.77 44.4805C 225.77 45.918 226.18 47.0352 227 47.832C 227.82 48.6211 228.934 49.0156 230.34 49.0156C 231.746 49.0156 232.855 48.6172 233.668 47.8203C 234.488 47.0234 234.898 45.9141 234.898 44.4922L 234.898 32.9375L 236.352 32.9375ZM 246.746 42.8984L 241.789 42.8984L 241.789 50L 240.336 50L 240.336 32.9375L 245.879 32.9375C 247.699 32.9375 249.121 33.3789 250.145 34.2617C 251.168 35.1445 251.68 36.3789 251.68 37.9648C 251.68 39.0586 251.359 40.0234 250.719 40.8594C 250.078 41.6953 249.219 42.2734 248.141 42.5938L 252.406 49.8477L 252.406 50L 250.871 50L 246.746 42.8984ZM 241.789 41.668L 246.207 41.668C 247.418 41.668 248.391 41.3242 249.125 40.6367C 249.859 39.9492 250.227 39.0586 250.227 37.9648C 250.227 36.7617 249.844 35.8281 249.078 35.1641C 248.313 34.5 247.238 34.168 245.855 34.168L 241.789 34.168L 241.789 41.668ZM 268.215 42.3945C 268.215 43.9648 267.941 45.3437 267.395 46.5312C 266.855 47.7187 266.082 48.6328 265.074 49.2734C 264.066 49.9141 262.902 50.2344 261.582 50.2344C 259.59 50.2344 257.98 49.5234 256.754 48.1016C 255.527 46.6719 254.914 44.7461 254.914 42.3242L 254.914 40.5664C 254.914 39.0117 255.187 37.6367 255.734 36.4414C 256.289 35.2383 257.07 34.3164 258.078 33.6758C 259.086 33.0273 260.246 32.7031 261.559 32.7031C 262.871 32.7031 264.027 33.0195 265.027 33.6523C 266.035 34.2852 266.813 35.1797 267.359 36.3359C 267.906 37.4922 268.191 38.832 268.215 40.3555L 268.215 42.3945ZM 266.773 40.543C 266.773 38.4883 266.309 36.8789 265.379 35.7148C 264.449 34.5508 263.176 33.9688 261.559 33.9688C 259.973 33.9688 258.707 34.5547 257.762 35.7266C 256.824 36.8906 256.355 38.5195 256.355 40.6133L 256.355 42.3945C 256.355 44.418 256.824 46.0234 257.762 47.2109C 258.699 48.3906 259.973 48.9805 261.582 48.9805C 263.215 48.9805 264.488 48.3984 265.402 47.2344C 266.316 46.0625 266.773 44.4336 266.773 42.3477L 266.773 40.543ZM 281.504 45.8047C 281.504 44.8594 281.172 44.1133 280.508 43.5664C 279.844 43.0117 278.629 42.4883 276.863 41.9961C 275.098 41.4961 273.809 40.9531 272.996 40.3672C 271.84 39.5391 271.262 38.4531 271.262 37.1094C 271.262 35.8047 271.797 34.7461 272.867 33.9336C 273.945 33.1133 275.32 32.7031 276.992 32.7031C 278.125 32.7031 279.137 32.9219 280.027 33.3594C 280.926 33.7969 281.621 34.4063 282.113 35.1875C 282.605 35.9687 282.852 36.8398 282.852 37.8008L 281.398 37.8008C 281.398 36.6367 281 35.7031 280.203 35C 279.406 34.2891 278.336 33.9336 276.992 33.9336C 275.687 33.9336 274.648 34.2266 273.875 34.8125C 273.102 35.3906 272.715 36.1484 272.715 37.0859C 272.715 37.9531 273.062 38.6602 273.758 39.207C 274.453 39.7539 275.566 40.2383 277.098 40.6602C 278.629 41.0742 279.789 41.5078 280.578 41.9609C 281.367 42.4062 281.961 42.9414 282.359 43.5664C 282.758 44.1914 282.957 44.9297 282.957 45.7812C 282.957 47.125 282.418 48.2031 281.34 49.0156C 280.27 49.8281 278.855 50.2344 277.098 50.2344C 275.895 50.2344 274.789 50.0195 273.781 49.5898C 272.781 49.1602 272.02 48.5586 271.496 47.7852C 270.98 47.0117 270.723 46.125 270.723 45.125L 272.164 45.125C 272.164 46.3281 272.613 47.2773 273.512 47.9727C 274.41 48.668 275.605 49.0156 277.098 49.0156C 278.426 49.0156 279.492 48.7227 280.297 48.1367C 281.102 47.5508 281.504 46.7734 281.504 45.8047Z"/>
</defs>
</svg>
