<svg width="561" height="39" viewBox="0 0 561 39" version="1.1" xmlns="http://www.w3.org/2000/svg" xmlns:xlink="http://www.w3.org/1999/xlink">
<title>La persona o el equipo ganador, tendr&#195;&#161; que trabajar durante un mes en colaboraci&#195;&#179;n con Ethos para entregar un prototipo funcional.</title>
<desc>Created using Figma</desc>
<g id="Canvas" transform="translate(246 -1243)">
<g id="La persona o el equipo ganador, tendr&#195;&#161; que trabajar durante un mes en colaboraci&#195;&#179;n con Ethos para entregar un prototipo funcional.">
<use xlink:href="#path0_fill" transform="translate(-284 1240)" fill="#344154"/>
</g>
</g>
<defs>
<path id="path0_fill" d="M 40.4053 15.6201L 46.4697 15.6201L 46.4697 17L 38.709 17L 38.709 4.20312L 40.4053 4.20312L 40.4053 15.6201ZM 54.0107 17C 53.917 16.8125 53.8408 16.4785 53.7822 15.998C 53.0264 16.7832 52.124 17.1758 51.0752 17.1758C 50.1377 17.1758 49.3672 16.9121 48.7637 16.3848C 48.166 15.8516 47.8672 15.1777 47.8672 14.3633C 47.8672 13.373 48.2422 12.6055 48.9922 12.0605C 49.748 11.5098 50.8086 11.2344 52.1738 11.2344L 53.7559 11.2344L 53.7559 10.4873C 53.7559 9.91895 53.5859 9.46777 53.2461 9.13379C 52.9062 8.79395 52.4053 8.62402 51.7432 8.62402C 51.1631 8.62402 50.6768 8.77051 50.2842 9.06348C 49.8916 9.35645 49.6953 9.71094 49.6953 10.127L 48.0605 10.127C 48.0605 9.65234 48.2275 9.19531 48.5615 8.75586C 48.9014 8.31055 49.3584 7.95898 49.9326 7.70117C 50.5127 7.44336 51.1484 7.31445 51.8398 7.31445C 52.9355 7.31445 53.7939 7.58984 54.415 8.14062C 55.0361 8.68555 55.3584 9.43848 55.3818 10.3994L 55.3818 14.7764C 55.3818 15.6494 55.4932 16.3438 55.7158 16.8594L 55.7158 17L 54.0107 17ZM 51.3125 15.7607C 51.8223 15.7607 52.3057 15.6289 52.7627 15.3652C 53.2197 15.1016 53.5508 14.7588 53.7559 14.3369L 53.7559 12.3857L 52.4814 12.3857C 50.4893 12.3857 49.4932 12.9688 49.4932 14.1348C 49.4932 14.6445 49.6631 15.043 50.0029 15.3301C 50.3428 15.6172 50.7793 15.7607 51.3125 15.7607ZM 70.4287 12.3506C 70.4287 13.7979 70.0977 14.9639 69.4355 15.8486C 68.7734 16.7334 67.877 17.1758 66.7461 17.1758C 65.5918 17.1758 64.6836 16.8096 64.0215 16.0771L 64.0215 20.6562L 62.3955 20.6562L 62.3955 7.49023L 63.8809 7.49023L 63.96 8.54492C 64.6221 7.72461 65.542 7.31445 66.7197 7.31445C 67.8623 7.31445 68.7646 7.74512 69.4268 8.60645C 70.0947 9.46777 70.4287 10.666 70.4287 12.2012L 70.4287 12.3506ZM 68.8027 12.166C 68.8027 11.0938 68.5742 10.2471 68.1172 9.62598C 67.6602 9.00488 67.0332 8.69434 66.2363 8.69434C 65.252 8.69434 64.5137 9.13086 64.0215 10.0039L 64.0215 14.5479C 64.5078 15.415 65.252 15.8486 66.2539 15.8486C 67.0332 15.8486 67.6514 15.541 68.1084 14.9258C 68.5713 14.3047 68.8027 13.3848 68.8027 12.166ZM 76.4492 17.1758C 75.1602 17.1758 74.1113 16.7539 73.3027 15.9102C 72.4941 15.0605 72.0898 13.9268 72.0898 12.5088L 72.0898 12.21C 72.0898 11.2666 72.2686 10.4258 72.626 9.6875C 72.9893 8.94336 73.4932 8.36328 74.1377 7.94727C 74.7881 7.52539 75.4912 7.31445 76.2471 7.31445C 77.4834 7.31445 78.4443 7.72168 79.1299 8.53613C 79.8154 9.35059 80.1582 10.5166 80.1582 12.0342L 80.1582 12.7109L 73.7158 12.7109C 73.7393 13.6484 74.0117 14.4072 74.5332 14.9873C 75.0605 15.5615 75.7285 15.8486 76.5371 15.8486C 77.1113 15.8486 77.5977 15.7314 77.9961 15.4971C 78.3945 15.2627 78.7432 14.9521 79.042 14.5654L 80.0352 15.3389C 79.2383 16.5635 78.043 17.1758 76.4492 17.1758ZM 76.2471 8.65039C 75.5908 8.65039 75.04 8.89062 74.5947 9.37109C 74.1494 9.8457 73.874 10.5137 73.7686 11.375L 78.5322 11.375L 78.5322 11.252C 78.4854 10.4258 78.2627 9.78711 77.8643 9.33594C 77.4658 8.87891 76.9268 8.65039 76.2471 8.65039ZM 86.6445 8.94922C 86.3984 8.9082 86.1318 8.8877 85.8447 8.8877C 84.7783 8.8877 84.0547 9.3418 83.6738 10.25L 83.6738 17L 82.0479 17L 82.0479 7.49023L 83.6299 7.49023L 83.6562 8.58887C 84.1895 7.73926 84.9453 7.31445 85.9238 7.31445C 86.2402 7.31445 86.4805 7.35547 86.6445 7.4375L 86.6445 8.94922ZM 93.6846 14.4775C 93.6846 14.0381 93.5176 13.6982 93.1836 13.458C 92.8555 13.2119 92.2783 13.001 91.4521 12.8252C 90.6318 12.6494 89.9785 12.4385 89.4922 12.1924C 89.0117 11.9463 88.6543 11.6533 88.4199 11.3135C 88.1914 10.9736 88.0771 10.5693 88.0771 10.1006C 88.0771 9.32129 88.4053 8.66211 89.0615 8.12305C 89.7236 7.58398 90.5674 7.31445 91.5928 7.31445C 92.6709 7.31445 93.5439 7.59277 94.2119 8.14941C 94.8857 8.70605 95.2227 9.41797 95.2227 10.2852L 93.5879 10.2852C 93.5879 9.83984 93.3975 9.45605 93.0166 9.13379C 92.6416 8.81152 92.167 8.65039 91.5928 8.65039C 91.001 8.65039 90.5381 8.7793 90.2041 9.03711C 89.8701 9.29492 89.7031 9.63184 89.7031 10.0479C 89.7031 10.4404 89.8584 10.7363 90.1689 10.9355C 90.4795 11.1348 91.0391 11.3252 91.8477 11.5068C 92.6621 11.6885 93.3213 11.9053 93.8252 12.1572C 94.3291 12.4092 94.7012 12.7139 94.9414 13.0713C 95.1875 13.4229 95.3105 13.8535 95.3105 14.3633C 95.3105 15.2129 94.9707 15.8955 94.291 16.4111C 93.6113 16.9209 92.7295 17.1758 91.6455 17.1758C 90.8838 17.1758 90.21 17.041 89.624 16.7715C 89.0381 16.502 88.5781 16.127 88.2441 15.6465C 87.916 15.1602 87.752 14.6357 87.752 14.0732L 89.3779 14.0732C 89.4072 14.6182 89.624 15.0518 90.0283 15.374C 90.4385 15.6904 90.9775 15.8486 91.6455 15.8486C 92.2607 15.8486 92.7529 15.7256 93.1221 15.4795C 93.4971 15.2275 93.6846 14.8936 93.6846 14.4775ZM 96.998 12.1572C 96.998 11.2256 97.1797 10.3877 97.543 9.64355C 97.9121 8.89941 98.4219 8.3252 99.0723 7.9209C 99.7285 7.5166 100.476 7.31445 101.313 7.31445C 102.608 7.31445 103.654 7.7627 104.451 8.65918C 105.254 9.55566 105.655 10.748 105.655 12.2363L 105.655 12.3506C 105.655 13.2764 105.477 14.1084 105.119 14.8467C 104.768 15.5791 104.261 16.1504 103.599 16.5605C 102.942 16.9707 102.187 17.1758 101.331 17.1758C 100.042 17.1758 98.9961 16.7275 98.1934 15.8311C 97.3965 14.9346 96.998 13.748 96.998 12.2715L 96.998 12.1572ZM 98.6328 12.3506C 98.6328 13.4053 98.876 14.252 99.3623 14.8906C 99.8545 15.5293 100.511 15.8486 101.331 15.8486C 102.157 15.8486 102.813 15.5264 103.3 14.8818C 103.786 14.2314 104.029 13.3232 104.029 12.1572C 104.029 11.1143 103.78 10.2705 103.282 9.62598C 102.79 8.97559 102.134 8.65039 101.313 8.65039C 100.511 8.65039 99.8633 8.96973 99.3711 9.6084C 98.8789 10.2471 98.6328 11.1611 98.6328 12.3506ZM 109.232 7.49023L 109.285 8.68555C 110.012 7.77148 110.961 7.31445 112.133 7.31445C 114.143 7.31445 115.156 8.44824 115.174 10.7158L 115.174 17L 113.548 17L 113.548 10.707C 113.542 10.0215 113.384 9.51465 113.073 9.18652C 112.769 8.8584 112.291 8.69434 111.641 8.69434C 111.113 8.69434 110.65 8.83496 110.252 9.11621C 109.854 9.39746 109.543 9.7666 109.32 10.2236L 109.32 17L 107.694 17L 107.694 7.49023L 109.232 7.49023ZM 123.497 17C 123.403 16.8125 123.327 16.4785 123.269 15.998C 122.513 16.7832 121.61 17.1758 120.562 17.1758C 119.624 17.1758 118.854 16.9121 118.25 16.3848C 117.652 15.8516 117.354 15.1777 117.354 14.3633C 117.354 13.373 117.729 12.6055 118.479 12.0605C 119.234 11.5098 120.295 11.2344 121.66 11.2344L 123.242 11.2344L 123.242 10.4873C 123.242 9.91895 123.072 9.46777 122.732 9.13379C 122.393 8.79395 121.892 8.62402 121.229 8.62402C 120.649 8.62402 120.163 8.77051 119.771 9.06348C 119.378 9.35645 119.182 9.71094 119.182 10.127L 117.547 10.127C 117.547 9.65234 117.714 9.19531 118.048 8.75586C 118.388 8.31055 118.845 7.95898 119.419 7.70117C 119.999 7.44336 120.635 7.31445 121.326 7.31445C 122.422 7.31445 123.28 7.58984 123.901 8.14062C 124.522 8.68555 124.845 9.43848 124.868 10.3994L 124.868 14.7764C 124.868 15.6494 124.979 16.3438 125.202 16.8594L 125.202 17L 123.497 17ZM 120.799 15.7607C 121.309 15.7607 121.792 15.6289 122.249 15.3652C 122.706 15.1016 123.037 14.7588 123.242 14.3369L 123.242 12.3857L 121.968 12.3857C 119.976 12.3857 118.979 12.9688 118.979 14.1348C 118.979 14.6445 119.149 15.043 119.489 15.3301C 119.829 15.6172 120.266 15.7607 120.799 15.7607ZM 131.451 12.1572C 131.451 11.2256 131.633 10.3877 131.996 9.64355C 132.365 8.89941 132.875 8.3252 133.525 7.9209C 134.182 7.5166 134.929 7.31445 135.767 7.31445C 137.062 7.31445 138.107 7.7627 138.904 8.65918C 139.707 9.55566 140.108 10.748 140.108 12.2363L 140.108 12.3506C 140.108 13.2764 139.93 14.1084 139.572 14.8467C 139.221 15.5791 138.714 16.1504 138.052 16.5605C 137.396 16.9707 136.64 17.1758 135.784 17.1758C 134.495 17.1758 133.449 16.7275 132.646 15.8311C 131.85 14.9346 131.451 13.748 131.451 12.2715L 131.451 12.1572ZM 133.086 12.3506C 133.086 13.4053 133.329 14.252 133.815 14.8906C 134.308 15.5293 134.964 15.8486 135.784 15.8486C 136.61 15.8486 137.267 15.5264 137.753 14.8818C 138.239 14.2314 138.482 13.3232 138.482 12.1572C 138.482 11.1143 138.233 10.2705 137.735 9.62598C 137.243 8.97559 136.587 8.65039 135.767 8.65039C 134.964 8.65039 134.316 8.96973 133.824 9.6084C 133.332 10.2471 133.086 11.1611 133.086 12.3506ZM 150.559 17.1758C 149.27 17.1758 148.221 16.7539 147.412 15.9102C 146.604 15.0605 146.199 13.9268 146.199 12.5088L 146.199 12.21C 146.199 11.2666 146.378 10.4258 146.735 9.6875C 147.099 8.94336 147.603 8.36328 148.247 7.94727C 148.897 7.52539 149.601 7.31445 150.356 7.31445C 151.593 7.31445 152.554 7.72168 153.239 8.53613C 153.925 9.35059 154.268 10.5166 154.268 12.0342L 154.268 12.7109L 147.825 12.7109C 147.849 13.6484 148.121 14.4072 148.643 14.9873C 149.17 15.5615 149.838 15.8486 150.646 15.8486C 151.221 15.8486 151.707 15.7314 152.105 15.4971C 152.504 15.2627 152.853 14.9521 153.151 14.5654L 154.145 15.3389C 153.348 16.5635 152.152 17.1758 150.559 17.1758ZM 150.356 8.65039C 149.7 8.65039 149.149 8.89062 148.704 9.37109C 148.259 9.8457 147.983 10.5137 147.878 11.375L 152.642 11.375L 152.642 11.252C 152.595 10.4258 152.372 9.78711 151.974 9.33594C 151.575 8.87891 151.036 8.65039 150.356 8.65039ZM 157.924 17L 156.298 17L 156.298 3.5L 157.924 3.5L 157.924 17ZM 168.945 17.1758C 167.656 17.1758 166.607 16.7539 165.799 15.9102C 164.99 15.0605 164.586 13.9268 164.586 12.5088L 164.586 12.21C 164.586 11.2666 164.765 10.4258 165.122 9.6875C 165.485 8.94336 165.989 8.36328 166.634 7.94727C 167.284 7.52539 167.987 7.31445 168.743 7.31445C 169.979 7.31445 170.94 7.72168 171.626 8.53613C 172.312 9.35059 172.654 10.5166 172.654 12.0342L 172.654 12.7109L 166.212 12.7109C 166.235 13.6484 166.508 14.4072 167.029 14.9873C 167.557 15.5615 168.225 15.8486 169.033 15.8486C 169.607 15.8486 170.094 15.7314 170.492 15.4971C 170.891 15.2627 171.239 14.9521 171.538 14.5654L 172.531 15.3389C 171.734 16.5635 170.539 17.1758 168.945 17.1758ZM 168.743 8.65039C 168.087 8.65039 167.536 8.89062 167.091 9.37109C 166.646 9.8457 166.37 10.5137 166.265 11.375L 171.028 11.375L 171.028 11.252C 170.981 10.4258 170.759 9.78711 170.36 9.33594C 169.962 8.87891 169.423 8.65039 168.743 8.65039ZM 174.148 12.166C 174.148 10.6719 174.491 9.49121 175.177 8.62402C 175.862 7.75098 176.782 7.31445 177.937 7.31445C 179.062 7.31445 179.949 7.69238 180.6 8.44824L 180.67 7.49023L 182.164 7.49023L 182.164 20.6562L 180.538 20.6562L 180.538 16.1211C 179.882 16.8242 179.009 17.1758 177.919 17.1758C 176.771 17.1758 175.854 16.7305 175.168 15.8398C 174.488 14.9434 174.148 13.7568 174.148 12.2803L 174.148 12.166ZM 175.774 12.3506C 175.774 13.4404 176.003 14.2959 176.46 14.917C 176.923 15.5381 177.544 15.8486 178.323 15.8486C 179.29 15.8486 180.028 15.4209 180.538 14.5654L 180.538 9.90723C 180.022 9.06934 179.29 8.65039 178.341 8.65039C 177.556 8.65039 176.932 8.96387 176.469 9.59082C 176.006 10.2119 175.774 11.1318 175.774 12.3506ZM 190.646 16.0596C 190.013 16.8037 189.084 17.1758 187.859 17.1758C 186.846 17.1758 186.072 16.8828 185.539 16.2969C 185.012 15.7051 184.745 14.832 184.739 13.6777L 184.739 7.49023L 186.365 7.49023L 186.365 13.6338C 186.365 15.0752 186.951 15.7959 188.123 15.7959C 189.365 15.7959 190.191 15.333 190.602 14.4072L 190.602 7.49023L 192.228 7.49023L 192.228 17L 190.681 17L 190.646 16.0596ZM 196.473 17L 194.847 17L 194.847 7.49023L 196.473 7.49023L 196.473 17ZM 194.715 4.96777C 194.715 4.7041 194.794 4.48144 194.952 4.2998C 195.116 4.11816 195.356 4.02734 195.673 4.02734C 195.989 4.02734 196.229 4.11816 196.394 4.2998C 196.558 4.48144 196.64 4.7041 196.64 4.96777C 196.64 5.23145 196.558 5.45117 196.394 5.62695C 196.229 5.80273 195.989 5.89062 195.673 5.89062C 195.356 5.89062 195.116 5.80273 194.952 5.62695C 194.794 5.45117 194.715 5.23145 194.715 4.96777ZM 207.116 12.3506C 207.116 13.7979 206.785 14.9639 206.123 15.8486C 205.461 16.7334 204.564 17.1758 203.434 17.1758C 202.279 17.1758 201.371 16.8096 200.709 16.0771L 200.709 20.6562L 199.083 20.6562L 199.083 7.49023L 200.568 7.49023L 200.647 8.54492C 201.31 7.72461 202.229 7.31445 203.407 7.31445C 204.55 7.31445 205.452 7.74512 206.114 8.60645C 206.782 9.46777 207.116 10.666 207.116 12.2012L 207.116 12.3506ZM 205.49 12.166C 205.49 11.0938 205.262 10.2471 204.805 9.62598C 204.348 9.00488 203.721 8.69434 202.924 8.69434C 201.939 8.69434 201.201 9.13086 200.709 10.0039L 200.709 14.5479C 201.195 15.415 201.939 15.8486 202.941 15.8486C 203.721 15.8486 204.339 15.541 204.796 14.9258C 205.259 14.3047 205.49 13.3848 205.49 12.166ZM 208.76 12.1572C 208.76 11.2256 208.941 10.3877 209.305 9.64355C 209.674 8.89941 210.184 8.3252 210.834 7.9209C 211.49 7.5166 212.237 7.31445 213.075 7.31445C 214.37 7.31445 215.416 7.7627 216.213 8.65918C 217.016 9.55566 217.417 10.748 217.417 12.2363L 217.417 12.3506C 217.417 13.2764 217.238 14.1084 216.881 14.8467C 216.529 15.5791 216.022 16.1504 215.36 16.5605C 214.704 16.9707 213.948 17.1758 213.093 17.1758C 211.804 17.1758 210.758 16.7275 209.955 15.8311C 209.158 14.9346 208.76 13.748 208.76 12.2715L 208.76 12.1572ZM 210.395 12.3506C 210.395 13.4053 210.638 14.252 211.124 14.8906C 211.616 15.5293 212.272 15.8486 213.093 15.8486C 213.919 15.8486 214.575 15.5264 215.062 14.8818C 215.548 14.2314 215.791 13.3232 215.791 12.1572C 215.791 11.1143 215.542 10.2705 215.044 9.62598C 214.552 8.97559 213.896 8.65039 213.075 8.65039C 212.272 8.65039 211.625 8.96973 211.133 9.6084C 210.641 10.2471 210.395 11.1611 210.395 12.3506ZM 223.534 12.166C 223.534 10.6836 223.877 9.50586 224.562 8.63281C 225.248 7.75391 226.156 7.31445 227.287 7.31445C 228.447 7.31445 229.353 7.72461 230.003 8.54492L 230.082 7.49023L 231.567 7.49023L 231.567 16.7715C 231.567 18.002 231.201 18.9717 230.469 19.6807C 229.742 20.3896 228.764 20.7441 227.533 20.7441C 226.848 20.7441 226.177 20.5977 225.521 20.3047C 224.864 20.0117 224.363 19.6104 224.018 19.1006L 224.861 18.125C 225.559 18.9863 226.411 19.417 227.419 19.417C 228.21 19.417 228.825 19.1943 229.265 18.749C 229.71 18.3037 229.933 17.6768 229.933 16.8682L 229.933 16.0508C 229.282 16.8008 228.395 17.1758 227.27 17.1758C 226.156 17.1758 225.254 16.7275 224.562 15.8311C 223.877 14.9346 223.534 13.7129 223.534 12.166ZM 225.169 12.3506C 225.169 13.4229 225.389 14.2666 225.828 14.8818C 226.268 15.4912 226.883 15.7959 227.674 15.7959C 228.699 15.7959 229.452 15.3301 229.933 14.3984L 229.933 10.0566C 229.435 9.14844 228.687 8.69434 227.691 8.69434C 226.9 8.69434 226.282 9.00195 225.837 9.61719C 225.392 10.2324 225.169 11.1436 225.169 12.3506ZM 239.899 17C 239.806 16.8125 239.729 16.4785 239.671 15.998C 238.915 16.7832 238.013 17.1758 236.964 17.1758C 236.026 17.1758 235.256 16.9121 234.652 16.3848C 234.055 15.8516 233.756 15.1777 233.756 14.3633C 233.756 13.373 234.131 12.6055 234.881 12.0605C 235.637 11.5098 236.697 11.2344 238.062 11.2344L 239.645 11.2344L 239.645 10.4873C 239.645 9.91895 239.475 9.46777 239.135 9.13379C 238.795 8.79395 238.294 8.62402 237.632 8.62402C 237.052 8.62402 236.565 8.77051 236.173 9.06348C 235.78 9.35645 235.584 9.71094 235.584 10.127L 233.949 10.127C 233.949 9.65234 234.116 9.19531 234.45 8.75586C 234.79 8.31055 235.247 7.95898 235.821 7.70117C 236.401 7.44336 237.037 7.31445 237.729 7.31445C 238.824 7.31445 239.683 7.58984 240.304 8.14062C 240.925 8.68555 241.247 9.43848 241.271 10.3994L 241.271 14.7764C 241.271 15.6494 241.382 16.3438 241.604 16.8594L 241.604 17L 239.899 17ZM 237.201 15.7607C 237.711 15.7607 238.194 15.6289 238.651 15.3652C 239.108 15.1016 239.439 14.7588 239.645 14.3369L 239.645 12.3857L 238.37 12.3857C 236.378 12.3857 235.382 12.9688 235.382 14.1348C 235.382 14.6445 235.552 15.043 235.892 15.3301C 236.231 15.6172 236.668 15.7607 237.201 15.7607ZM 245.357 7.49023L 245.41 8.68555C 246.137 7.77148 247.086 7.31445 248.258 7.31445C 250.268 7.31445 251.281 8.44824 251.299 10.7158L 251.299 17L 249.673 17L 249.673 10.707C 249.667 10.0215 249.509 9.51465 249.198 9.18652C 248.894 8.8584 248.416 8.69434 247.766 8.69434C 247.238 8.69434 246.775 8.83496 246.377 9.11621C 245.979 9.39746 245.668 9.7666 245.445 10.2236L 245.445 17L 243.819 17L 243.819 7.49023L 245.357 7.49023ZM 259.622 17C 259.528 16.8125 259.452 16.4785 259.394 15.998C 258.638 16.7832 257.735 17.1758 256.687 17.1758C 255.749 17.1758 254.979 16.9121 254.375 16.3848C 253.777 15.8516 253.479 15.1777 253.479 14.3633C 253.479 13.373 253.854 12.6055 254.604 12.0605C 255.359 11.5098 256.42 11.2344 257.785 11.2344L 259.367 11.2344L 259.367 10.4873C 259.367 9.91895 259.197 9.46777 258.857 9.13379C 258.518 8.79395 258.017 8.62402 257.354 8.62402C 256.774 8.62402 256.288 8.77051 255.896 9.06348C 255.503 9.35645 255.307 9.71094 255.307 10.127L 253.672 10.127C 253.672 9.65234 253.839 9.19531 254.173 8.75586C 254.513 8.31055 254.97 7.95898 255.544 7.70117C 256.124 7.44336 256.76 7.31445 257.451 7.31445C 258.547 7.31445 259.405 7.58984 260.026 8.14062C 260.647 8.68555 260.97 9.43848 260.993 10.3994L 260.993 14.7764C 260.993 15.6494 261.104 16.3438 261.327 16.8594L 261.327 17L 259.622 17ZM 256.924 15.7607C 257.434 15.7607 257.917 15.6289 258.374 15.3652C 258.831 15.1016 259.162 14.7588 259.367 14.3369L 259.367 12.3857L 258.093 12.3857C 256.101 12.3857 255.104 12.9688 255.104 14.1348C 255.104 14.6445 255.274 15.043 255.614 15.3301C 255.954 15.6172 256.391 15.7607 256.924 15.7607ZM 263.146 12.166C 263.146 10.707 263.492 9.53516 264.184 8.65039C 264.875 7.75977 265.78 7.31445 266.899 7.31445C 268.013 7.31445 268.895 7.69531 269.545 8.45703L 269.545 3.5L 271.171 3.5L 271.171 17L 269.677 17L 269.598 15.9805C 268.947 16.7773 268.042 17.1758 266.882 17.1758C 265.78 17.1758 264.881 16.7246 264.184 15.8223C 263.492 14.9199 263.146 13.7422 263.146 12.2891L 263.146 12.166ZM 264.772 12.3506C 264.772 13.4287 264.995 14.2725 265.44 14.8818C 265.886 15.4912 266.501 15.7959 267.286 15.7959C 268.317 15.7959 269.07 15.333 269.545 14.4072L 269.545 10.0391C 269.059 9.14258 268.312 8.69434 267.304 8.69434C 266.507 8.69434 265.886 9.00195 265.44 9.61719C 264.995 10.2324 264.772 11.1436 264.772 12.3506ZM 273.271 12.1572C 273.271 11.2256 273.453 10.3877 273.816 9.64355C 274.186 8.89941 274.695 8.3252 275.346 7.9209C 276.002 7.5166 276.749 7.31445 277.587 7.31445C 278.882 7.31445 279.928 7.7627 280.725 8.65918C 281.527 9.55566 281.929 10.748 281.929 12.2363L 281.929 12.3506C 281.929 13.2764 281.75 14.1084 281.393 14.8467C 281.041 15.5791 280.534 16.1504 279.872 16.5605C 279.216 16.9707 278.46 17.1758 277.604 17.1758C 276.315 17.1758 275.27 16.7275 274.467 15.8311C 273.67 14.9346 273.271 13.748 273.271 12.2715L 273.271 12.1572ZM 274.906 12.3506C 274.906 13.4053 275.149 14.252 275.636 14.8906C 276.128 15.5293 276.784 15.8486 277.604 15.8486C 278.431 15.8486 279.087 15.5264 279.573 14.8818C 280.06 14.2314 280.303 13.3232 280.303 12.1572C 280.303 11.1143 280.054 10.2705 279.556 9.62598C 279.063 8.97559 278.407 8.65039 277.587 8.65039C 276.784 8.65039 276.137 8.96973 275.645 9.6084C 275.152 10.2471 274.906 11.1611 274.906 12.3506ZM 288.564 8.94922C 288.318 8.9082 288.052 8.8877 287.765 8.8877C 286.698 8.8877 285.975 9.3418 285.594 10.25L 285.594 17L 283.968 17L 283.968 7.49023L 285.55 7.49023L 285.576 8.58887C 286.109 7.73926 286.865 7.31445 287.844 7.31445C 288.16 7.31445 288.4 7.35547 288.564 7.4375L 288.564 8.94922ZM 288.925 19.5488L 288.002 18.916C 288.553 18.1484 288.84 17.3574 288.863 16.543L 288.863 15.0752L 290.454 15.0752L 290.454 16.3496C 290.454 16.9414 290.308 17.5332 290.015 18.125C 289.728 18.7168 289.364 19.1914 288.925 19.5488ZM 299.182 5.1875L 299.182 7.49023L 300.957 7.49023L 300.957 8.74707L 299.182 8.74707L 299.182 14.6445C 299.182 15.0254 299.261 15.3125 299.419 15.5059C 299.577 15.6934 299.847 15.7871 300.228 15.7871C 300.415 15.7871 300.673 15.752 301.001 15.6816L 301.001 17C 300.573 17.1172 300.157 17.1758 299.753 17.1758C 299.026 17.1758 298.479 16.9561 298.109 16.5166C 297.74 16.0771 297.556 15.4531 297.556 14.6445L 297.556 8.74707L 295.824 8.74707L 295.824 7.49023L 297.556 7.49023L 297.556 5.1875L 299.182 5.1875ZM 306.811 17.1758C 305.521 17.1758 304.473 16.7539 303.664 15.9102C 302.855 15.0605 302.451 13.9268 302.451 12.5088L 302.451 12.21C 302.451 11.2666 302.63 10.4258 302.987 9.6875C 303.351 8.94336 303.854 8.36328 304.499 7.94727C 305.149 7.52539 305.853 7.31445 306.608 7.31445C 307.845 7.31445 308.806 7.72168 309.491 8.53613C 310.177 9.35059 310.52 10.5166 310.52 12.0342L 310.52 12.7109L 304.077 12.7109C 304.101 13.6484 304.373 14.4072 304.895 14.9873C 305.422 15.5615 306.09 15.8486 306.898 15.8486C 307.473 15.8486 307.959 15.7314 308.357 15.4971C 308.756 15.2627 309.104 14.9521 309.403 14.5654L 310.396 15.3389C 309.6 16.5635 308.404 17.1758 306.811 17.1758ZM 306.608 8.65039C 305.952 8.65039 305.401 8.89062 304.956 9.37109C 304.511 9.8457 304.235 10.5137 304.13 11.375L 308.894 11.375L 308.894 11.252C 308.847 10.4258 308.624 9.78711 308.226 9.33594C 307.827 8.87891 307.288 8.65039 306.608 8.65039ZM 313.947 7.49023L 314 8.68555C 314.727 7.77148 315.676 7.31445 316.848 7.31445C 318.857 7.31445 319.871 8.44824 319.889 10.7158L 319.889 17L 318.263 17L 318.263 10.707C 318.257 10.0215 318.099 9.51465 317.788 9.18652C 317.483 8.8584 317.006 8.69434 316.355 8.69434C 315.828 8.69434 315.365 8.83496 314.967 9.11621C 314.568 9.39746 314.258 9.7666 314.035 10.2236L 314.035 17L 312.409 17L 312.409 7.49023L 313.947 7.49023ZM 321.945 12.166C 321.945 10.707 322.291 9.53516 322.982 8.65039C 323.674 7.75977 324.579 7.31445 325.698 7.31445C 326.812 7.31445 327.693 7.69531 328.344 8.45703L 328.344 3.5L 329.97 3.5L 329.97 17L 328.476 17L 328.396 15.9805C 327.746 16.7773 326.841 17.1758 325.681 17.1758C 324.579 17.1758 323.68 16.7246 322.982 15.8223C 322.291 14.9199 321.945 13.7422 321.945 12.2891L 321.945 12.166ZM 323.571 12.3506C 323.571 13.4287 323.794 14.2725 324.239 14.8818C 324.685 15.4912 325.3 15.7959 326.085 15.7959C 327.116 15.7959 327.869 15.333 328.344 14.4072L 328.344 10.0391C 327.857 9.14258 327.11 8.69434 326.103 8.69434C 325.306 8.69434 324.685 9.00195 324.239 9.61719C 323.794 10.2324 323.571 11.1436 323.571 12.3506ZM 337.098 8.94922C 336.852 8.9082 336.585 8.8877 336.298 8.8877C 335.231 8.8877 334.508 9.3418 334.127 10.25L 334.127 17L 332.501 17L 332.501 7.49023L 334.083 7.49023L 334.109 8.58887C 334.643 7.73926 335.398 7.31445 336.377 7.31445C 336.693 7.31445 336.934 7.35547 337.098 7.4375L 337.098 8.94922ZM 344.12 17C 344.026 16.8125 343.95 16.4785 343.892 15.998C 343.136 16.7832 342.233 17.1758 341.185 17.1758C 340.247 17.1758 339.477 16.9121 338.873 16.3848C 338.275 15.8516 337.977 15.1777 337.977 14.3633C 337.977 13.373 338.352 12.6055 339.102 12.0605C 339.857 11.5098 340.918 11.2344 342.283 11.2344L 343.865 11.2344L 343.865 10.4873C 343.865 9.91895 343.695 9.46777 343.355 9.13379C 343.016 8.79395 342.515 8.62402 341.853 8.62402C 341.272 8.62402 340.786 8.77051 340.394 9.06348C 340.001 9.35645 339.805 9.71094 339.805 10.127L 338.17 10.127C 338.17 9.65234 338.337 9.19531 338.671 8.75586C 339.011 8.31055 339.468 7.95898 340.042 7.70117C 340.622 7.44336 341.258 7.31445 341.949 7.31445C 343.045 7.31445 343.903 7.58984 344.524 8.14062C 345.146 8.68555 345.468 9.43848 345.491 10.3994L 345.491 14.7764C 345.491 15.6494 345.603 16.3438 345.825 16.8594L 345.825 17L 344.12 17ZM 341.422 15.7607C 341.932 15.7607 342.415 15.6289 342.872 15.3652C 343.329 15.1016 343.66 14.7588 343.865 14.3369L 343.865 12.3857L 342.591 12.3857C 340.599 12.3857 339.603 12.9688 339.603 14.1348C 339.603 14.6445 339.772 15.043 340.112 15.3301C 340.452 15.6172 340.889 15.7607 341.422 15.7607ZM 342.925 3.5L 344.894 3.5L 342.538 6.08398L 341.229 6.08398L 342.925 3.5ZM 352.109 12.166C 352.109 10.6719 352.452 9.49121 353.138 8.62402C 353.823 7.75098 354.743 7.31445 355.897 7.31445C 357.022 7.31445 357.91 7.69238 358.561 8.44824L 358.631 7.49023L 360.125 7.49023L 360.125 20.6562L 358.499 20.6562L 358.499 16.1211C 357.843 16.8242 356.97 17.1758 355.88 17.1758C 354.731 17.1758 353.814 16.7305 353.129 15.8398C 352.449 14.9434 352.109 13.7568 352.109 12.2803L 352.109 12.166ZM 353.735 12.3506C 353.735 13.4404 353.964 14.2959 354.421 14.917C 354.884 15.5381 355.505 15.8486 356.284 15.8486C 357.251 15.8486 357.989 15.4209 358.499 14.5654L 358.499 9.90723C 357.983 9.06934 357.251 8.65039 356.302 8.65039C 355.517 8.65039 354.893 8.96387 354.43 9.59082C 353.967 10.2119 353.735 11.1318 353.735 12.3506ZM 368.606 16.0596C 367.974 16.8037 367.045 17.1758 365.82 17.1758C 364.807 17.1758 364.033 16.8828 363.5 16.2969C 362.973 15.7051 362.706 14.832 362.7 13.6777L 362.7 7.49023L 364.326 7.49023L 364.326 13.6338C 364.326 15.0752 364.912 15.7959 366.084 15.7959C 367.326 15.7959 368.152 15.333 368.562 14.4072L 368.562 7.49023L 370.188 7.49023L 370.188 17L 368.642 17L 368.606 16.0596ZM 376.613 17.1758C 375.324 17.1758 374.275 16.7539 373.467 15.9102C 372.658 15.0605 372.254 13.9268 372.254 12.5088L 372.254 12.21C 372.254 11.2666 372.433 10.4258 372.79 9.6875C 373.153 8.94336 373.657 8.36328 374.302 7.94727C 374.952 7.52539 375.655 7.31445 376.411 7.31445C 377.647 7.31445 378.608 7.72168 379.294 8.53613C 379.979 9.35059 380.322 10.5166 380.322 12.0342L 380.322 12.7109L 373.88 12.7109C 373.903 13.6484 374.176 14.4072 374.697 14.9873C 375.225 15.5615 375.893 15.8486 376.701 15.8486C 377.275 15.8486 377.762 15.7314 378.16 15.4971C 378.559 15.2627 378.907 14.9521 379.206 14.5654L 380.199 15.3389C 379.402 16.5635 378.207 17.1758 376.613 17.1758ZM 376.411 8.65039C 375.755 8.65039 375.204 8.89062 374.759 9.37109C 374.313 9.8457 374.038 10.5137 373.933 11.375L 378.696 11.375L 378.696 11.252C 378.649 10.4258 378.427 9.78711 378.028 9.33594C 377.63 8.87891 377.091 8.65039 376.411 8.65039ZM 388.883 5.1875L 388.883 7.49023L 390.658 7.49023L 390.658 8.74707L 388.883 8.74707L 388.883 14.6445C 388.883 15.0254 388.962 15.3125 389.12 15.5059C 389.278 15.6934 389.548 15.7871 389.929 15.7871C 390.116 15.7871 390.374 15.752 390.702 15.6816L 390.702 17C 390.274 17.1172 389.858 17.1758 389.454 17.1758C 388.728 17.1758 388.18 16.9561 387.811 16.5166C 387.441 16.0771 387.257 15.4531 387.257 14.6445L 387.257 8.74707L 385.525 8.74707L 385.525 7.49023L 387.257 7.49023L 387.257 5.1875L 388.883 5.1875ZM 397.162 8.94922C 396.916 8.9082 396.649 8.8877 396.362 8.8877C 395.296 8.8877 394.572 9.3418 394.191 10.25L 394.191 17L 392.565 17L 392.565 7.49023L 394.147 7.49023L 394.174 8.58887C 394.707 7.73926 395.463 7.31445 396.441 7.31445C 396.758 7.31445 396.998 7.35547 397.162 7.4375L 397.162 8.94922ZM 404.185 17C 404.091 16.8125 404.015 16.4785 403.956 15.998C 403.2 16.7832 402.298 17.1758 401.249 17.1758C 400.312 17.1758 399.541 16.9121 398.938 16.3848C 398.34 15.8516 398.041 15.1777 398.041 14.3633C 398.041 13.373 398.416 12.6055 399.166 12.0605C 399.922 11.5098 400.982 11.2344 402.348 11.2344L 403.93 11.2344L 403.93 10.4873C 403.93 9.91895 403.76 9.46777 403.42 9.13379C 403.08 8.79395 402.579 8.62402 401.917 8.62402C 401.337 8.62402 400.851 8.77051 400.458 9.06348C 400.065 9.35645 399.869 9.71094 399.869 10.127L 398.234 10.127C 398.234 9.65234 398.401 9.19531 398.735 8.75586C 399.075 8.31055 399.532 7.95898 400.106 7.70117C 400.687 7.44336 401.322 7.31445 402.014 7.31445C 403.109 7.31445 403.968 7.58984 404.589 8.14062C 405.21 8.68555 405.532 9.43848 405.556 10.3994L 405.556 14.7764C 405.556 15.6494 405.667 16.3438 405.89 16.8594L 405.89 17L 404.185 17ZM 401.486 15.7607C 401.996 15.7607 402.479 15.6289 402.937 15.3652C 403.394 15.1016 403.725 14.7588 403.93 14.3369L 403.93 12.3857L 402.655 12.3857C 400.663 12.3857 399.667 12.9688 399.667 14.1348C 399.667 14.6445 399.837 15.043 400.177 15.3301C 400.517 15.6172 400.953 15.7607 401.486 15.7607ZM 416.155 12.3506C 416.155 13.8037 415.821 14.9727 415.153 15.8574C 414.485 16.7363 413.589 17.1758 412.464 17.1758C 411.263 17.1758 410.334 16.751 409.678 15.9014L 409.599 17L 408.104 17L 408.104 3.5L 409.73 3.5L 409.73 8.53613C 410.387 7.72168 411.292 7.31445 412.446 7.31445C 413.601 7.31445 414.506 7.75098 415.162 8.62402C 415.824 9.49707 416.155 10.6924 416.155 12.21L 416.155 12.3506ZM 414.529 12.166C 414.529 11.0586 414.315 10.2031 413.888 9.59961C 413.46 8.99609 412.845 8.69434 412.042 8.69434C 410.97 8.69434 410.199 9.19238 409.73 10.1885L 409.73 14.3018C 410.229 15.2979 411.005 15.7959 412.06 15.7959C 412.839 15.7959 413.445 15.4941 413.879 14.8906C 414.312 14.2871 414.529 13.3789 414.529 12.166ZM 424.083 17C 423.989 16.8125 423.913 16.4785 423.854 15.998C 423.099 16.7832 422.196 17.1758 421.147 17.1758C 420.21 17.1758 419.439 16.9121 418.836 16.3848C 418.238 15.8516 417.939 15.1777 417.939 14.3633C 417.939 13.373 418.314 12.6055 419.064 12.0605C 419.82 11.5098 420.881 11.2344 422.246 11.2344L 423.828 11.2344L 423.828 10.4873C 423.828 9.91895 423.658 9.46777 423.318 9.13379C 422.979 8.79395 422.478 8.62402 421.815 8.62402C 421.235 8.62402 420.749 8.77051 420.356 9.06348C 419.964 9.35645 419.768 9.71094 419.768 10.127L 418.133 10.127C 418.133 9.65234 418.3 9.19531 418.634 8.75586C 418.974 8.31055 419.431 7.95898 420.005 7.70117C 420.585 7.44336 421.221 7.31445 421.912 7.31445C 423.008 7.31445 423.866 7.58984 424.487 8.14062C 425.108 8.68555 425.431 9.43848 425.454 10.3994L 425.454 14.7764C 425.454 15.6494 425.565 16.3438 425.788 16.8594L 425.788 17L 424.083 17ZM 421.385 15.7607C 421.895 15.7607 422.378 15.6289 422.835 15.3652C 423.292 15.1016 423.623 14.7588 423.828 14.3369L 423.828 12.3857L 422.554 12.3857C 420.562 12.3857 419.565 12.9688 419.565 14.1348C 419.565 14.6445 419.735 15.043 420.075 15.3301C 420.415 15.6172 420.852 15.7607 421.385 15.7607ZM 429.682 7.49023L 429.682 18.0986C 429.682 19.9268 428.853 20.8408 427.194 20.8408C 426.837 20.8408 426.506 20.7881 426.201 20.6826L 426.201 19.3818C 426.389 19.4287 426.635 19.4521 426.939 19.4521C 427.303 19.4521 427.578 19.3525 427.766 19.1533C 427.959 18.96 428.056 18.6201 428.056 18.1338L 428.056 7.49023L 429.682 7.49023ZM 427.889 4.96777C 427.889 4.70996 427.968 4.49023 428.126 4.30859C 428.29 4.12109 428.527 4.02734 428.838 4.02734C 429.154 4.02734 429.395 4.11816 429.559 4.2998C 429.723 4.48144 429.805 4.7041 429.805 4.96777C 429.805 5.23145 429.723 5.45117 429.559 5.62695C 429.395 5.80273 429.154 5.89062 428.838 5.89062C 428.521 5.89062 428.284 5.80273 428.126 5.62695C 427.968 5.45117 427.889 5.23145 427.889 4.96777ZM 438.181 17C 438.087 16.8125 438.011 16.4785 437.952 15.998C 437.196 16.7832 436.294 17.1758 435.245 17.1758C 434.308 17.1758 433.537 16.9121 432.934 16.3848C 432.336 15.8516 432.037 15.1777 432.037 14.3633C 432.037 13.373 432.412 12.6055 433.162 12.0605C 433.918 11.5098 434.979 11.2344 436.344 11.2344L 437.926 11.2344L 437.926 10.4873C 437.926 9.91895 437.756 9.46777 437.416 9.13379C 437.076 8.79395 436.575 8.62402 435.913 8.62402C 435.333 8.62402 434.847 8.77051 434.454 9.06348C 434.062 9.35645 433.865 9.71094 433.865 10.127L 432.23 10.127C 432.23 9.65234 432.397 9.19531 432.731 8.75586C 433.071 8.31055 433.528 7.95898 434.103 7.70117C 434.683 7.44336 435.318 7.31445 436.01 7.31445C 437.105 7.31445 437.964 7.58984 438.585 8.14062C 439.206 8.68555 439.528 9.43848 439.552 10.3994L 439.552 14.7764C 439.552 15.6494 439.663 16.3438 439.886 16.8594L 439.886 17L 438.181 17ZM 435.482 15.7607C 435.992 15.7607 436.476 15.6289 436.933 15.3652C 437.39 15.1016 437.721 14.7588 437.926 14.3369L 437.926 12.3857L 436.651 12.3857C 434.659 12.3857 433.663 12.9688 433.663 14.1348C 433.663 14.6445 433.833 15.043 434.173 15.3301C 434.513 15.6172 434.949 15.7607 435.482 15.7607ZM 446.697 8.94922C 446.451 8.9082 446.185 8.8877 445.897 8.8877C 444.831 8.8877 444.107 9.3418 443.727 10.25L 443.727 17L 442.101 17L 442.101 7.49023L 443.683 7.49023L 443.709 8.58887C 444.242 7.73926 444.998 7.31445 445.977 7.31445C 446.293 7.31445 446.533 7.35547 446.697 7.4375L 446.697 8.94922ZM 452.27 12.166C 452.27 10.707 452.615 9.53516 453.307 8.65039C 453.998 7.75977 454.903 7.31445 456.022 7.31445C 457.136 7.31445 458.018 7.69531 458.668 8.45703L 458.668 3.5L 460.294 3.5L 460.294 17L 458.8 17L 458.721 15.9805C 458.07 16.7773 457.165 17.1758 456.005 17.1758C 454.903 17.1758 454.004 16.7246 453.307 15.8223C 452.615 14.9199 452.27 13.7422 452.27 12.2891L 452.27 12.166ZM 453.896 12.3506C 453.896 13.4287 454.118 14.2725 454.563 14.8818C 455.009 15.4912 455.624 15.7959 456.409 15.7959C 457.44 15.7959 458.193 15.333 458.668 14.4072L 458.668 10.0391C 458.182 9.14258 457.435 8.69434 456.427 8.69434C 455.63 8.69434 455.009 9.00195 454.563 9.61719C 454.118 10.2324 453.896 11.1436 453.896 12.3506ZM 468.696 16.0596C 468.063 16.8037 467.135 17.1758 465.91 17.1758C 464.896 17.1758 464.123 16.8828 463.59 16.2969C 463.062 15.7051 462.796 14.832 462.79 13.6777L 462.79 7.49023L 464.416 7.49023L 464.416 13.6338C 464.416 15.0752 465.002 15.7959 466.174 15.7959C 467.416 15.7959 468.242 15.333 468.652 14.4072L 468.652 7.49023L 470.278 7.49023L 470.278 17L 468.731 17L 468.696 16.0596ZM 477.354 8.94922C 477.107 8.9082 476.841 8.8877 476.554 8.8877C 475.487 8.8877 474.764 9.3418 474.383 10.25L 474.383 17L 472.757 17L 472.757 7.49023L 474.339 7.49023L 474.365 8.58887C 474.898 7.73926 475.654 7.31445 476.633 7.31445C 476.949 7.31445 477.189 7.35547 477.354 7.4375L 477.354 8.94922ZM 484.376 17C 484.282 16.8125 484.206 16.4785 484.147 15.998C 483.392 16.7832 482.489 17.1758 481.44 17.1758C 480.503 17.1758 479.732 16.9121 479.129 16.3848C 478.531 15.8516 478.232 15.1777 478.232 14.3633C 478.232 13.373 478.607 12.6055 479.357 12.0605C 480.113 11.5098 481.174 11.2344 482.539 11.2344L 484.121 11.2344L 484.121 10.4873C 484.121 9.91895 483.951 9.46777 483.611 9.13379C 483.271 8.79395 482.771 8.62402 482.108 8.62402C 481.528 8.62402 481.042 8.77051 480.649 9.06348C 480.257 9.35645 480.061 9.71094 480.061 10.127L 478.426 10.127C 478.426 9.65234 478.593 9.19531 478.927 8.75586C 479.267 8.31055 479.724 7.95898 480.298 7.70117C 480.878 7.44336 481.514 7.31445 482.205 7.31445C 483.301 7.31445 484.159 7.58984 484.78 8.14062C 485.401 8.68555 485.724 9.43848 485.747 10.3994L 485.747 14.7764C 485.747 15.6494 485.858 16.3438 486.081 16.8594L 486.081 17L 484.376 17ZM 481.678 15.7607C 482.188 15.7607 482.671 15.6289 483.128 15.3652C 483.585 15.1016 483.916 14.7588 484.121 14.3369L 484.121 12.3857L 482.847 12.3857C 480.854 12.3857 479.858 12.9688 479.858 14.1348C 479.858 14.6445 480.028 15.043 480.368 15.3301C 480.708 15.6172 481.145 15.7607 481.678 15.7607ZM 489.834 7.49023L 489.887 8.68555C 490.613 7.77148 491.562 7.31445 492.734 7.31445C 494.744 7.31445 495.758 8.44824 495.775 10.7158L 495.775 17L 494.149 17L 494.149 10.707C 494.144 10.0215 493.985 9.51465 493.675 9.18652C 493.37 8.8584 492.893 8.69434 492.242 8.69434C 491.715 8.69434 491.252 8.83496 490.854 9.11621C 490.455 9.39746 490.145 9.7666 489.922 10.2236L 489.922 17L 488.296 17L 488.296 7.49023L 489.834 7.49023ZM 500.434 5.1875L 500.434 7.49023L 502.209 7.49023L 502.209 8.74707L 500.434 8.74707L 500.434 14.6445C 500.434 15.0254 500.513 15.3125 500.671 15.5059C 500.829 15.6934 501.099 15.7871 501.479 15.7871C 501.667 15.7871 501.925 15.752 502.253 15.6816L 502.253 17C 501.825 17.1172 501.409 17.1758 501.005 17.1758C 500.278 17.1758 499.73 16.9561 499.361 16.5166C 498.992 16.0771 498.808 15.4531 498.808 14.6445L 498.808 8.74707L 497.076 8.74707L 497.076 7.49023L 498.808 7.49023L 498.808 5.1875L 500.434 5.1875ZM 508.062 17.1758C 506.773 17.1758 505.725 16.7539 504.916 15.9102C 504.107 15.0605 503.703 13.9268 503.703 12.5088L 503.703 12.21C 503.703 11.2666 503.882 10.4258 504.239 9.6875C 504.603 8.94336 505.106 8.36328 505.751 7.94727C 506.401 7.52539 507.104 7.31445 507.86 7.31445C 509.097 7.31445 510.058 7.72168 510.743 8.53613C 511.429 9.35059 511.771 10.5166 511.771 12.0342L 511.771 12.7109L 505.329 12.7109C 505.353 13.6484 505.625 14.4072 506.146 14.9873C 506.674 15.5615 507.342 15.8486 508.15 15.8486C 508.725 15.8486 509.211 15.7314 509.609 15.4971C 510.008 15.2627 510.356 14.9521 510.655 14.5654L 511.648 15.3389C 510.852 16.5635 509.656 17.1758 508.062 17.1758ZM 507.86 8.65039C 507.204 8.65039 506.653 8.89062 506.208 9.37109C 505.763 9.8457 505.487 10.5137 505.382 11.375L 510.146 11.375L 510.146 11.252C 510.099 10.4258 509.876 9.78711 509.478 9.33594C 509.079 8.87891 508.54 8.65039 507.86 8.65039ZM 523.997 16.0596C 523.364 16.8037 522.436 17.1758 521.211 17.1758C 520.197 17.1758 519.424 16.8828 518.891 16.2969C 518.363 15.7051 518.097 14.832 518.091 13.6777L 518.091 7.49023L 519.717 7.49023L 519.717 13.6338C 519.717 15.0752 520.303 15.7959 521.475 15.7959C 522.717 15.7959 523.543 15.333 523.953 14.4072L 523.953 7.49023L 525.579 7.49023L 525.579 17L 524.032 17L 523.997 16.0596ZM 529.596 7.49023L 529.648 8.68555C 530.375 7.77148 531.324 7.31445 532.496 7.31445C 534.506 7.31445 535.52 8.44824 535.537 10.7158L 535.537 17L 533.911 17L 533.911 10.707C 533.905 10.0215 533.747 9.51465 533.437 9.18652C 533.132 8.8584 532.654 8.69434 532.004 8.69434C 531.477 8.69434 531.014 8.83496 530.615 9.11621C 530.217 9.39746 529.906 9.7666 529.684 10.2236L 529.684 17L 528.058 17L 528.058 7.49023L 529.596 7.49023ZM 543.983 7.49023L 544.027 8.54492C 544.725 7.72461 545.665 7.31445 546.849 7.31445C 548.179 7.31445 549.084 7.82422 549.564 8.84375C 549.881 8.38672 550.291 8.01758 550.795 7.73633C 551.305 7.45508 551.905 7.31445 552.597 7.31445C 554.683 7.31445 555.743 8.41895 555.778 10.6279L 555.778 17L 554.152 17L 554.152 10.7246C 554.152 10.0449 553.997 9.53809 553.687 9.2041C 553.376 8.86426 552.854 8.69434 552.122 8.69434C 551.519 8.69434 551.018 8.87598 550.619 9.23926C 550.221 9.59668 549.989 10.0801 549.925 10.6895L 549.925 17L 548.29 17L 548.29 10.7686C 548.29 9.38574 547.613 8.69434 546.26 8.69434C 545.193 8.69434 544.464 9.14844 544.071 10.0566L 544.071 17L 542.445 17L 542.445 7.49023L 543.983 7.49023ZM 562.186 17.1758C 560.896 17.1758 559.848 16.7539 559.039 15.9102C 558.23 15.0605 557.826 13.9268 557.826 12.5088L 557.826 12.21C 557.826 11.2666 558.005 10.4258 558.362 9.6875C 558.726 8.94336 559.229 8.36328 559.874 7.94727C 560.524 7.52539 561.228 7.31445 561.983 7.31445C 563.22 7.31445 564.181 7.72168 564.866 8.53613C 565.552 9.35059 565.895 10.5166 565.895 12.0342L 565.895 12.7109L 559.452 12.7109C 559.476 13.6484 559.748 14.4072 560.27 14.9873C 560.797 15.5615 561.465 15.8486 562.273 15.8486C 562.848 15.8486 563.334 15.7314 563.732 15.4971C 564.131 15.2627 564.479 14.9521 564.778 14.5654L 565.771 15.3389C 564.975 16.5635 563.779 17.1758 562.186 17.1758ZM 561.983 8.65039C 561.327 8.65039 560.776 8.89062 560.331 9.37109C 559.886 9.8457 559.61 10.5137 559.505 11.375L 564.269 11.375L 564.269 11.252C 564.222 10.4258 563.999 9.78711 563.601 9.33594C 563.202 8.87891 562.663 8.65039 561.983 8.65039ZM 573.321 14.4775C 573.321 14.0381 573.154 13.6982 572.82 13.458C 572.492 13.2119 571.915 13.001 571.089 12.8252C 570.269 12.6494 569.615 12.4385 569.129 12.1924C 568.648 11.9463 568.291 11.6533 568.057 11.3135C 567.828 10.9736 567.714 10.5693 567.714 10.1006C 567.714 9.32129 568.042 8.66211 568.698 8.12305C 569.36 7.58398 570.204 7.31445 571.229 7.31445C 572.308 7.31445 573.181 7.59277 573.849 8.14941C 574.522 8.70605 574.859 9.41797 574.859 10.2852L 573.225 10.2852C 573.225 9.83984 573.034 9.45605 572.653 9.13379C 572.278 8.81152 571.804 8.65039 571.229 8.65039C 570.638 8.65039 570.175 8.7793 569.841 9.03711C 569.507 9.29492 569.34 9.63184 569.34 10.0479C 569.34 10.4404 569.495 10.7363 569.806 10.9355C 570.116 11.1348 570.676 11.3252 571.484 11.5068C 572.299 11.6885 572.958 11.9053 573.462 12.1572C 573.966 12.4092 574.338 12.7139 574.578 13.0713C 574.824 13.4229 574.947 13.8535 574.947 14.3633C 574.947 15.2129 574.607 15.8955 573.928 16.4111C 573.248 16.9209 572.366 17.1758 571.282 17.1758C 570.521 17.1758 569.847 17.041 569.261 16.7715C 568.675 16.502 568.215 16.127 567.881 15.6465C 567.553 15.1602 567.389 14.6357 567.389 14.0732L 569.015 14.0732C 569.044 14.6182 569.261 15.0518 569.665 15.374C 570.075 15.6904 570.614 15.8486 571.282 15.8486C 571.897 15.8486 572.39 15.7256 572.759 15.4795C 573.134 15.2275 573.321 14.8936 573.321 14.4775ZM 585.477 17.1758C 584.188 17.1758 583.139 16.7539 582.33 15.9102C 581.521 15.0605 581.117 13.9268 581.117 12.5088L 581.117 12.21C 581.117 11.2666 581.296 10.4258 581.653 9.6875C 582.017 8.94336 582.521 8.36328 583.165 7.94727C 583.815 7.52539 584.519 7.31445 585.274 7.31445C 586.511 7.31445 587.472 7.72168 588.157 8.53613C 588.843 9.35059 589.186 10.5166 589.186 12.0342L 589.186 12.7109L 582.743 12.7109C 582.767 13.6484 583.039 14.4072 583.561 14.9873C 584.088 15.5615 584.756 15.8486 585.564 15.8486C 586.139 15.8486 586.625 15.7314 587.023 15.4971C 587.422 15.2627 587.771 14.9521 588.069 14.5654L 589.062 15.3389C 588.266 16.5635 587.07 17.1758 585.477 17.1758ZM 585.274 8.65039C 584.618 8.65039 584.067 8.89062 583.622 9.37109C 583.177 9.8457 582.901 10.5137 582.796 11.375L 587.56 11.375L 587.56 11.252C 587.513 10.4258 587.29 9.78711 586.892 9.33594C 586.493 8.87891 585.954 8.65039 585.274 8.65039ZM 592.613 7.49023L 592.666 8.68555C 593.393 7.77148 594.342 7.31445 595.514 7.31445C 597.523 7.31445 598.537 8.44824 598.555 10.7158L 598.555 17L 596.929 17L 596.929 10.707C 596.923 10.0215 596.765 9.51465 596.454 9.18652C 596.149 8.8584 595.672 8.69434 595.021 8.69434C 594.494 8.69434 594.031 8.83496 593.633 9.11621C 593.234 9.39746 592.924 9.7666 592.701 10.2236L 592.701 17L 591.075 17L 591.075 7.49023L 592.613 7.49023ZM 81.3975 36.8486C 81.9775 36.8486 82.4844 36.6729 82.918 36.3213C 83.3516 35.9697 83.5918 35.5303 83.6387 35.0029L 85.1768 35.0029C 85.1475 35.5479 84.96 36.0664 84.6143 36.5586C 84.2686 37.0508 83.8057 37.4434 83.2256 37.7363C 82.6514 38.0293 82.042 38.1758 81.3975 38.1758C 80.1025 38.1758 79.0713 37.7451 78.3037 36.8838C 77.542 36.0166 77.1611 34.833 77.1611 33.333L 77.1611 33.0605C 77.1611 32.1348 77.3311 31.3115 77.6709 30.5908C 78.0107 29.8701 78.4971 29.3105 79.1299 28.9121C 79.7686 28.5137 80.5215 28.3145 81.3887 28.3145C 82.4551 28.3145 83.3398 28.6338 84.043 29.2725C 84.752 29.9111 85.1299 30.7402 85.1768 31.7598L 83.6387 31.7598C 83.5918 31.1445 83.3574 30.6406 82.9355 30.248C 82.5195 29.8496 82.0039 29.6504 81.3887 29.6504C 80.5625 29.6504 79.9209 29.9492 79.4639 30.5469C 79.0127 31.1387 78.7871 31.9971 78.7871 33.1221L 78.7871 33.4297C 78.7871 34.5254 79.0127 35.3691 79.4639 35.9609C 79.915 36.5527 80.5596 36.8486 81.3975 36.8486ZM 86.5742 33.1572C 86.5742 32.2256 86.7559 31.3877 87.1191 30.6436C 87.4883 29.8994 87.998 29.3252 88.6484 28.9209C 89.3047 28.5166 90.0518 28.3145 90.8896 28.3145C 92.1846 28.3145 93.2305 28.7627 94.0273 29.6592C 94.8301 30.5557 95.2314 31.748 95.2314 33.2363L 95.2314 33.3506C 95.2314 34.2764 95.0527 35.1084 94.6953 35.8467C 94.3438 36.5791 93.8369 37.1504 93.1748 37.5605C 92.5186 37.9707 91.7627 38.1758 90.9072 38.1758C 89.6182 38.1758 88.5723 37.7275 87.7695 36.8311C 86.9727 35.9346 86.5742 34.748 86.5742 33.2715L 86.5742 33.1572ZM 88.209 33.3506C 88.209 34.4053 88.4521 35.252 88.9385 35.8906C 89.4307 36.5293 90.0869 36.8486 90.9072 36.8486C 91.7334 36.8486 92.3896 36.5264 92.876 35.8818C 93.3623 35.2314 93.6055 34.3232 93.6055 33.1572C 93.6055 32.1143 93.3564 31.2705 92.8584 30.626C 92.3662 29.9756 91.71 29.6504 90.8896 29.6504C 90.0869 29.6504 89.4395 29.9697 88.9473 30.6084C 88.4551 31.2471 88.209 32.1611 88.209 33.3506ZM 99.0371 38L 97.4111 38L 97.4111 24.5L 99.0371 24.5L 99.0371 38ZM 107.519 38C 107.425 37.8125 107.349 37.4785 107.29 36.998C 106.534 37.7832 105.632 38.1758 104.583 38.1758C 103.646 38.1758 102.875 37.9121 102.271 37.3848C 101.674 36.8516 101.375 36.1777 101.375 35.3633C 101.375 34.373 101.75 33.6055 102.5 33.0605C 103.256 32.5098 104.316 32.2344 105.682 32.2344L 107.264 32.2344L 107.264 31.4873C 107.264 30.9189 107.094 30.4678 106.754 30.1338C 106.414 29.7939 105.913 29.624 105.251 29.624C 104.671 29.624 104.185 29.7705 103.792 30.0635C 103.399 30.3564 103.203 30.7109 103.203 31.127L 101.568 31.127C 101.568 30.6523 101.735 30.1953 102.069 29.7559C 102.409 29.3105 102.866 28.959 103.44 28.7012C 104.021 28.4434 104.656 28.3145 105.348 28.3145C 106.443 28.3145 107.302 28.5898 107.923 29.1406C 108.544 29.6855 108.866 30.4385 108.89 31.3994L 108.89 35.7764C 108.89 36.6494 109.001 37.3438 109.224 37.8594L 109.224 38L 107.519 38ZM 104.82 36.7607C 105.33 36.7607 105.813 36.6289 106.271 36.3652C 106.728 36.1016 107.059 35.7588 107.264 35.3369L 107.264 33.3857L 105.989 33.3857C 103.997 33.3857 103.001 33.9688 103.001 35.1348C 103.001 35.6445 103.171 36.043 103.511 36.3301C 103.851 36.6172 104.287 36.7607 104.82 36.7607ZM 119.489 33.3506C 119.489 34.8037 119.155 35.9727 118.487 36.8574C 117.819 37.7363 116.923 38.1758 115.798 38.1758C 114.597 38.1758 113.668 37.751 113.012 36.9014L 112.933 38L 111.438 38L 111.438 24.5L 113.064 24.5L 113.064 29.5361C 113.721 28.7217 114.626 28.3145 115.78 28.3145C 116.935 28.3145 117.84 28.751 118.496 29.624C 119.158 30.4971 119.489 31.6924 119.489 33.21L 119.489 33.3506ZM 117.863 33.166C 117.863 32.0586 117.649 31.2031 117.222 30.5996C 116.794 29.9961 116.179 29.6943 115.376 29.6943C 114.304 29.6943 113.533 30.1924 113.064 31.1885L 113.064 35.3018C 113.562 36.2979 114.339 36.7959 115.394 36.7959C 116.173 36.7959 116.779 36.4941 117.213 35.8906C 117.646 35.2871 117.863 34.3789 117.863 33.166ZM 121.115 33.1572C 121.115 32.2256 121.297 31.3877 121.66 30.6436C 122.029 29.8994 122.539 29.3252 123.189 28.9209C 123.846 28.5166 124.593 28.3145 125.431 28.3145C 126.726 28.3145 127.771 28.7627 128.568 29.6592C 129.371 30.5557 129.772 31.748 129.772 33.2363L 129.772 33.3506C 129.772 34.2764 129.594 35.1084 129.236 35.8467C 128.885 36.5791 128.378 37.1504 127.716 37.5605C 127.06 37.9707 126.304 38.1758 125.448 38.1758C 124.159 38.1758 123.113 37.7275 122.311 36.8311C 121.514 35.9346 121.115 34.748 121.115 33.2715L 121.115 33.1572ZM 122.75 33.3506C 122.75 34.4053 122.993 35.252 123.479 35.8906C 123.972 36.5293 124.628 36.8486 125.448 36.8486C 126.274 36.8486 126.931 36.5264 127.417 35.8818C 127.903 35.2314 128.146 34.3232 128.146 33.1572C 128.146 32.1143 127.897 31.2705 127.399 30.626C 126.907 29.9756 126.251 29.6504 125.431 29.6504C 124.628 29.6504 123.98 29.9697 123.488 30.6084C 122.996 31.2471 122.75 32.1611 122.75 33.3506ZM 136.408 29.9492C 136.162 29.9082 135.896 29.8877 135.608 29.8877C 134.542 29.8877 133.818 30.3418 133.438 31.25L 133.438 38L 131.812 38L 131.812 28.4902L 133.394 28.4902L 133.42 29.5889C 133.953 28.7393 134.709 28.3145 135.688 28.3145C 136.004 28.3145 136.244 28.3555 136.408 28.4375L 136.408 29.9492ZM 143.431 38C 143.337 37.8125 143.261 37.4785 143.202 36.998C 142.446 37.7832 141.544 38.1758 140.495 38.1758C 139.558 38.1758 138.787 37.9121 138.184 37.3848C 137.586 36.8516 137.287 36.1777 137.287 35.3633C 137.287 34.373 137.662 33.6055 138.412 33.0605C 139.168 32.5098 140.229 32.2344 141.594 32.2344L 143.176 32.2344L 143.176 31.4873C 143.176 30.9189 143.006 30.4678 142.666 30.1338C 142.326 29.7939 141.825 29.624 141.163 29.624C 140.583 29.624 140.097 29.7705 139.704 30.0635C 139.312 30.3564 139.115 30.7109 139.115 31.127L 137.48 31.127C 137.48 30.6523 137.647 30.1953 137.981 29.7559C 138.321 29.3105 138.778 28.959 139.353 28.7012C 139.933 28.4434 140.568 28.3145 141.26 28.3145C 142.355 28.3145 143.214 28.5898 143.835 29.1406C 144.456 29.6855 144.778 30.4385 144.802 31.3994L 144.802 35.7764C 144.802 36.6494 144.913 37.3438 145.136 37.8594L 145.136 38L 143.431 38ZM 140.732 36.7607C 141.242 36.7607 141.726 36.6289 142.183 36.3652C 142.64 36.1016 142.971 35.7588 143.176 35.3369L 143.176 33.3857L 141.901 33.3857C 139.909 33.3857 138.913 33.9688 138.913 35.1348C 138.913 35.6445 139.083 36.043 139.423 36.3301C 139.763 36.6172 140.199 36.7607 140.732 36.7607ZM 151.165 36.8486C 151.745 36.8486 152.252 36.6729 152.686 36.3213C 153.119 35.9697 153.359 35.5303 153.406 35.0029L 154.944 35.0029C 154.915 35.5479 154.728 36.0664 154.382 36.5586C 154.036 37.0508 153.573 37.4434 152.993 37.7363C 152.419 38.0293 151.81 38.1758 151.165 38.1758C 149.87 38.1758 148.839 37.7451 148.071 36.8838C 147.31 36.0166 146.929 34.833 146.929 33.333L 146.929 33.0605C 146.929 32.1348 147.099 31.3115 147.438 30.5908C 147.778 29.8701 148.265 29.3105 148.897 28.9121C 149.536 28.5137 150.289 28.3145 151.156 28.3145C 152.223 28.3145 153.107 28.6338 153.811 29.2725C 154.52 29.9111 154.897 30.7402 154.944 31.7598L 153.406 31.7598C 153.359 31.1445 153.125 30.6406 152.703 30.248C 152.287 29.8496 151.771 29.6504 151.156 29.6504C 150.33 29.6504 149.688 29.9492 149.231 30.5469C 148.78 31.1387 148.555 31.9971 148.555 33.1221L 148.555 33.4297C 148.555 34.5254 148.78 35.3691 149.231 35.9609C 149.683 36.5527 150.327 36.8486 151.165 36.8486ZM 158.539 38L 156.913 38L 156.913 28.4902L 158.539 28.4902L 158.539 38ZM 156.781 25.9678C 156.781 25.7041 156.86 25.4814 157.019 25.2998C 157.183 25.1182 157.423 25.0273 157.739 25.0273C 158.056 25.0273 158.296 25.1182 158.46 25.2998C 158.624 25.4814 158.706 25.7041 158.706 25.9678C 158.706 26.2314 158.624 26.4512 158.46 26.627C 158.296 26.8027 158.056 26.8906 157.739 26.8906C 157.423 26.8906 157.183 26.8027 157.019 26.627C 156.86 26.4512 156.781 26.2314 156.781 25.9678ZM 160.719 33.1572C 160.719 32.2256 160.9 31.3877 161.264 30.6436C 161.633 29.8994 162.143 29.3252 162.793 28.9209C 163.449 28.5166 164.196 28.3145 165.034 28.3145C 166.329 28.3145 167.375 28.7627 168.172 29.6592C 168.975 30.5557 169.376 31.748 169.376 33.2363L 169.376 33.3506C 169.376 34.2764 169.197 35.1084 168.84 35.8467C 168.488 36.5791 167.981 37.1504 167.319 37.5605C 166.663 37.9707 165.907 38.1758 165.052 38.1758C 163.763 38.1758 162.717 37.7275 161.914 36.8311C 161.117 35.9346 160.719 34.748 160.719 33.2715L 160.719 33.1572ZM 162.354 33.3506C 162.354 34.4053 162.597 35.252 163.083 35.8906C 163.575 36.5293 164.231 36.8486 165.052 36.8486C 165.878 36.8486 166.534 36.5264 167.021 35.8818C 167.507 35.2314 167.75 34.3232 167.75 33.1572C 167.75 32.1143 167.501 31.2705 167.003 30.626C 166.511 29.9756 165.854 29.6504 165.034 29.6504C 164.231 29.6504 163.584 29.9697 163.092 30.6084C 162.6 31.2471 162.354 32.1611 162.354 33.3506ZM 165.772 24.5L 167.741 24.5L 165.386 27.084L 164.076 27.084L 165.772 24.5ZM 172.953 28.4902L 173.006 29.6855C 173.732 28.7715 174.682 28.3145 175.854 28.3145C 177.863 28.3145 178.877 29.4482 178.895 31.7158L 178.895 38L 177.269 38L 177.269 31.707C 177.263 31.0215 177.104 30.5146 176.794 30.1865C 176.489 29.8584 176.012 29.6943 175.361 29.6943C 174.834 29.6943 174.371 29.835 173.973 30.1162C 173.574 30.3975 173.264 30.7666 173.041 31.2236L 173.041 38L 171.415 38L 171.415 28.4902L 172.953 28.4902ZM 189.626 36.8486C 190.206 36.8486 190.713 36.6729 191.146 36.3213C 191.58 35.9697 191.82 35.5303 191.867 35.0029L 193.405 35.0029C 193.376 35.5479 193.188 36.0664 192.843 36.5586C 192.497 37.0508 192.034 37.4434 191.454 37.7363C 190.88 38.0293 190.271 38.1758 189.626 38.1758C 188.331 38.1758 187.3 37.7451 186.532 36.8838C 185.771 36.0166 185.39 34.833 185.39 33.333L 185.39 33.0605C 185.39 32.1348 185.56 31.3115 185.899 30.5908C 186.239 29.8701 186.726 29.3105 187.358 28.9121C 187.997 28.5137 188.75 28.3145 189.617 28.3145C 190.684 28.3145 191.568 28.6338 192.271 29.2725C 192.98 29.9111 193.358 30.7402 193.405 31.7598L 191.867 31.7598C 191.82 31.1445 191.586 30.6406 191.164 30.248C 190.748 29.8496 190.232 29.6504 189.617 29.6504C 188.791 29.6504 188.149 29.9492 187.692 30.5469C 187.241 31.1387 187.016 31.9971 187.016 33.1221L 187.016 33.4297C 187.016 34.5254 187.241 35.3691 187.692 35.9609C 188.144 36.5527 188.788 36.8486 189.626 36.8486ZM 194.803 33.1572C 194.803 32.2256 194.984 31.3877 195.348 30.6436C 195.717 29.8994 196.227 29.3252 196.877 28.9209C 197.533 28.5166 198.28 28.3145 199.118 28.3145C 200.413 28.3145 201.459 28.7627 202.256 29.6592C 203.059 30.5557 203.46 31.748 203.46 33.2363L 203.46 33.3506C 203.46 34.2764 203.281 35.1084 202.924 35.8467C 202.572 36.5791 202.065 37.1504 201.403 37.5605C 200.747 37.9707 199.991 38.1758 199.136 38.1758C 197.847 38.1758 196.801 37.7275 195.998 36.8311C 195.201 35.9346 194.803 34.748 194.803 33.2715L 194.803 33.1572ZM 196.438 33.3506C 196.438 34.4053 196.681 35.252 197.167 35.8906C 197.659 36.5293 198.315 36.8486 199.136 36.8486C 199.962 36.8486 200.618 36.5264 201.104 35.8818C 201.591 35.2314 201.834 34.3232 201.834 33.1572C 201.834 32.1143 201.585 31.2705 201.087 30.626C 200.595 29.9756 199.938 29.6504 199.118 29.6504C 198.315 29.6504 197.668 29.9697 197.176 30.6084C 196.684 31.2471 196.438 32.1611 196.438 33.3506ZM 207.037 28.4902L 207.09 29.6855C 207.816 28.7715 208.766 28.3145 209.938 28.3145C 211.947 28.3145 212.961 29.4482 212.979 31.7158L 212.979 38L 211.353 38L 211.353 31.707C 211.347 31.0215 211.188 30.5146 210.878 30.1865C 210.573 29.8584 210.096 29.6943 209.445 29.6943C 208.918 29.6943 208.455 29.835 208.057 30.1162C 207.658 30.3975 207.348 30.7666 207.125 31.2236L 207.125 38L 205.499 38L 205.499 28.4902L 207.037 28.4902ZM 227.384 32.085L 221.838 32.085L 221.838 36.6201L 228.28 36.6201L 228.28 38L 220.15 38L 220.15 25.2031L 228.192 25.2031L 228.192 26.5918L 221.838 26.5918L 221.838 30.7051L 227.384 30.7051L 227.384 32.085ZM 232.332 26.1875L 232.332 28.4902L 234.107 28.4902L 234.107 29.7471L 232.332 29.7471L 232.332 35.6445C 232.332 36.0254 232.411 36.3125 232.569 36.5059C 232.728 36.6934 232.997 36.7871 233.378 36.7871C 233.565 36.7871 233.823 36.752 234.151 36.6816L 234.151 38C 233.724 38.1172 233.308 38.1758 232.903 38.1758C 232.177 38.1758 231.629 37.9561 231.26 37.5166C 230.891 37.0771 230.706 36.4531 230.706 35.6445L 230.706 29.7471L 228.975 29.7471L 228.975 28.4902L 230.706 28.4902L 230.706 26.1875L 232.332 26.1875ZM 237.641 29.6416C 238.361 28.7568 239.299 28.3145 240.453 28.3145C 242.463 28.3145 243.477 29.4482 243.494 31.7158L 243.494 38L 241.868 38L 241.868 31.707C 241.862 31.0215 241.704 30.5146 241.394 30.1865C 241.089 29.8584 240.611 29.6943 239.961 29.6943C 239.434 29.6943 238.971 29.835 238.572 30.1162C 238.174 30.3975 237.863 30.7666 237.641 31.2236L 237.641 38L 236.015 38L 236.015 24.5L 237.641 24.5L 237.641 29.6416ZM 245.498 33.1572C 245.498 32.2256 245.68 31.3877 246.043 30.6436C 246.412 29.8994 246.922 29.3252 247.572 28.9209C 248.229 28.5166 248.976 28.3145 249.813 28.3145C 251.108 28.3145 252.154 28.7627 252.951 29.6592C 253.754 30.5557 254.155 31.748 254.155 33.2363L 254.155 33.3506C 254.155 34.2764 253.977 35.1084 253.619 35.8467C 253.268 36.5791 252.761 37.1504 252.099 37.5605C 251.442 37.9707 250.687 38.1758 249.831 38.1758C 248.542 38.1758 247.496 37.7275 246.693 36.8311C 245.896 35.9346 245.498 34.748 245.498 33.2715L 245.498 33.1572ZM 247.133 33.3506C 247.133 34.4053 247.376 35.252 247.862 35.8906C 248.354 36.5293 249.011 36.8486 249.831 36.8486C 250.657 36.8486 251.313 36.5264 251.8 35.8818C 252.286 35.2314 252.529 34.3232 252.529 33.1572C 252.529 32.1143 252.28 31.2705 251.782 30.626C 251.29 29.9756 250.634 29.6504 249.813 29.6504C 249.011 29.6504 248.363 29.9697 247.871 30.6084C 247.379 31.2471 247.133 32.1611 247.133 33.3506ZM 261.731 35.4775C 261.731 35.0381 261.564 34.6982 261.23 34.458C 260.902 34.2119 260.325 34.001 259.499 33.8252C 258.679 33.6494 258.025 33.4385 257.539 33.1924C 257.059 32.9463 256.701 32.6533 256.467 32.3135C 256.238 31.9736 256.124 31.5693 256.124 31.1006C 256.124 30.3213 256.452 29.6621 257.108 29.123C 257.771 28.584 258.614 28.3145 259.64 28.3145C 260.718 28.3145 261.591 28.5928 262.259 29.1494C 262.933 29.7061 263.27 30.418 263.27 31.2852L 261.635 31.2852C 261.635 30.8398 261.444 30.4561 261.063 30.1338C 260.688 29.8115 260.214 29.6504 259.64 29.6504C 259.048 29.6504 258.585 29.7793 258.251 30.0371C 257.917 30.2949 257.75 30.6318 257.75 31.0479C 257.75 31.4404 257.905 31.7363 258.216 31.9355C 258.526 32.1348 259.086 32.3252 259.895 32.5068C 260.709 32.6885 261.368 32.9053 261.872 33.1572C 262.376 33.4092 262.748 33.7139 262.988 34.0713C 263.234 34.4229 263.357 34.8535 263.357 35.3633C 263.357 36.2129 263.018 36.8955 262.338 37.4111C 261.658 37.9209 260.776 38.1758 259.692 38.1758C 258.931 38.1758 258.257 38.041 257.671 37.7715C 257.085 37.502 256.625 37.127 256.291 36.6465C 255.963 36.1602 255.799 35.6357 255.799 35.0732L 257.425 35.0732C 257.454 35.6182 257.671 36.0518 258.075 36.374C 258.485 36.6904 259.024 36.8486 259.692 36.8486C 260.308 36.8486 260.8 36.7256 261.169 36.4795C 261.544 36.2275 261.731 35.8936 261.731 35.4775ZM 277.974 33.3506C 277.974 34.7979 277.643 35.9639 276.98 36.8486C 276.318 37.7334 275.422 38.1758 274.291 38.1758C 273.137 38.1758 272.229 37.8096 271.566 37.0771L 271.566 41.6562L 269.94 41.6562L 269.94 28.4902L 271.426 28.4902L 271.505 29.5449C 272.167 28.7246 273.087 28.3145 274.265 28.3145C 275.407 28.3145 276.31 28.7451 276.972 29.6064C 277.64 30.4678 277.974 31.666 277.974 33.2012L 277.974 33.3506ZM 276.348 33.166C 276.348 32.0938 276.119 31.2471 275.662 30.626C 275.205 30.0049 274.578 29.6943 273.781 29.6943C 272.797 29.6943 272.059 30.1309 271.566 31.0039L 271.566 35.5479C 272.053 36.415 272.797 36.8486 273.799 36.8486C 274.578 36.8486 275.196 36.541 275.653 35.9258C 276.116 35.3047 276.348 34.3848 276.348 33.166ZM 285.919 38C 285.825 37.8125 285.749 37.4785 285.69 36.998C 284.935 37.7832 284.032 38.1758 282.983 38.1758C 282.046 38.1758 281.275 37.9121 280.672 37.3848C 280.074 36.8516 279.775 36.1777 279.775 35.3633C 279.775 34.373 280.15 33.6055 280.9 33.0605C 281.656 32.5098 282.717 32.2344 284.082 32.2344L 285.664 32.2344L 285.664 31.4873C 285.664 30.9189 285.494 30.4678 285.154 30.1338C 284.814 29.7939 284.313 29.624 283.651 29.624C 283.071 29.624 282.585 29.7705 282.192 30.0635C 281.8 30.3564 281.604 30.7109 281.604 31.127L 279.969 31.127C 279.969 30.6523 280.136 30.1953 280.47 29.7559C 280.81 29.3105 281.267 28.959 281.841 28.7012C 282.421 28.4434 283.057 28.3145 283.748 28.3145C 284.844 28.3145 285.702 28.5898 286.323 29.1406C 286.944 29.6855 287.267 30.4385 287.29 31.3994L 287.29 35.7764C 287.29 36.6494 287.401 37.3438 287.624 37.8594L 287.624 38L 285.919 38ZM 283.221 36.7607C 283.73 36.7607 284.214 36.6289 284.671 36.3652C 285.128 36.1016 285.459 35.7588 285.664 35.3369L 285.664 33.3857L 284.39 33.3857C 282.397 33.3857 281.401 33.9688 281.401 35.1348C 281.401 35.6445 281.571 36.043 281.911 36.3301C 282.251 36.6172 282.688 36.7607 283.221 36.7607ZM 294.436 29.9492C 294.189 29.9082 293.923 29.8877 293.636 29.8877C 292.569 29.8877 291.846 30.3418 291.465 31.25L 291.465 38L 289.839 38L 289.839 28.4902L 291.421 28.4902L 291.447 29.5889C 291.98 28.7393 292.736 28.3145 293.715 28.3145C 294.031 28.3145 294.271 28.3555 294.436 28.4375L 294.436 29.9492ZM 301.458 38C 301.364 37.8125 301.288 37.4785 301.229 36.998C 300.474 37.7832 299.571 38.1758 298.522 38.1758C 297.585 38.1758 296.814 37.9121 296.211 37.3848C 295.613 36.8516 295.314 36.1777 295.314 35.3633C 295.314 34.373 295.689 33.6055 296.439 33.0605C 297.195 32.5098 298.256 32.2344 299.621 32.2344L 301.203 32.2344L 301.203 31.4873C 301.203 30.9189 301.033 30.4678 300.693 30.1338C 300.354 29.7939 299.853 29.624 299.19 29.624C 298.61 29.624 298.124 29.7705 297.731 30.0635C 297.339 30.3564 297.143 30.7109 297.143 31.127L 295.508 31.127C 295.508 30.6523 295.675 30.1953 296.009 29.7559C 296.349 29.3105 296.806 28.959 297.38 28.7012C 297.96 28.4434 298.596 28.3145 299.287 28.3145C 300.383 28.3145 301.241 28.5898 301.862 29.1406C 302.483 29.6855 302.806 30.4385 302.829 31.3994L 302.829 35.7764C 302.829 36.6494 302.94 37.3438 303.163 37.8594L 303.163 38L 301.458 38ZM 298.76 36.7607C 299.27 36.7607 299.753 36.6289 300.21 36.3652C 300.667 36.1016 300.998 35.7588 301.203 35.3369L 301.203 33.3857L 299.929 33.3857C 297.937 33.3857 296.94 33.9688 296.94 35.1348C 296.94 35.6445 297.11 36.043 297.45 36.3301C 297.79 36.6172 298.227 36.7607 298.76 36.7607ZM 313.789 38.1758C 312.5 38.1758 311.451 37.7539 310.643 36.9102C 309.834 36.0605 309.43 34.9268 309.43 33.5088L 309.43 33.21C 309.43 32.2666 309.608 31.4258 309.966 30.6875C 310.329 29.9434 310.833 29.3633 311.478 28.9473C 312.128 28.5254 312.831 28.3145 313.587 28.3145C 314.823 28.3145 315.784 28.7217 316.47 29.5361C 317.155 30.3506 317.498 31.5166 317.498 33.0342L 317.498 33.7109L 311.056 33.7109C 311.079 34.6484 311.352 35.4072 311.873 35.9873C 312.4 36.5615 313.068 36.8486 313.877 36.8486C 314.451 36.8486 314.938 36.7314 315.336 36.4971C 315.734 36.2627 316.083 35.9521 316.382 35.5654L 317.375 36.3389C 316.578 37.5635 315.383 38.1758 313.789 38.1758ZM 313.587 29.6504C 312.931 29.6504 312.38 29.8906 311.935 30.3711C 311.489 30.8457 311.214 31.5137 311.108 32.375L 315.872 32.375L 315.872 32.252C 315.825 31.4258 315.603 30.7871 315.204 30.3359C 314.806 29.8789 314.267 29.6504 313.587 29.6504ZM 320.926 28.4902L 320.979 29.6855C 321.705 28.7715 322.654 28.3145 323.826 28.3145C 325.836 28.3145 326.85 29.4482 326.867 31.7158L 326.867 38L 325.241 38L 325.241 31.707C 325.235 31.0215 325.077 30.5146 324.767 30.1865C 324.462 29.8584 323.984 29.6943 323.334 29.6943C 322.807 29.6943 322.344 29.835 321.945 30.1162C 321.547 30.3975 321.236 30.7666 321.014 31.2236L 321.014 38L 319.388 38L 319.388 28.4902L 320.926 28.4902ZM 331.525 26.1875L 331.525 28.4902L 333.301 28.4902L 333.301 29.7471L 331.525 29.7471L 331.525 35.6445C 331.525 36.0254 331.604 36.3125 331.763 36.5059C 331.921 36.6934 332.19 36.7871 332.571 36.7871C 332.759 36.7871 333.017 36.752 333.345 36.6816L 333.345 38C 332.917 38.1172 332.501 38.1758 332.097 38.1758C 331.37 38.1758 330.822 37.9561 330.453 37.5166C 330.084 37.0771 329.899 36.4531 329.899 35.6445L 329.899 29.7471L 328.168 29.7471L 328.168 28.4902L 329.899 28.4902L 329.899 26.1875L 331.525 26.1875ZM 339.805 29.9492C 339.559 29.9082 339.292 29.8877 339.005 29.8877C 337.938 29.8877 337.215 30.3418 336.834 31.25L 336.834 38L 335.208 38L 335.208 28.4902L 336.79 28.4902L 336.816 29.5889C 337.35 28.7393 338.105 28.3145 339.084 28.3145C 339.4 28.3145 339.641 28.3555 339.805 28.4375L 339.805 29.9492ZM 345.078 38.1758C 343.789 38.1758 342.74 37.7539 341.932 36.9102C 341.123 36.0605 340.719 34.9268 340.719 33.5088L 340.719 33.21C 340.719 32.2666 340.897 31.4258 341.255 30.6875C 341.618 29.9434 342.122 29.3633 342.767 28.9473C 343.417 28.5254 344.12 28.3145 344.876 28.3145C 346.112 28.3145 347.073 28.7217 347.759 29.5361C 348.444 30.3506 348.787 31.5166 348.787 33.0342L 348.787 33.7109L 342.345 33.7109C 342.368 34.6484 342.641 35.4072 343.162 35.9873C 343.689 36.5615 344.357 36.8486 345.166 36.8486C 345.74 36.8486 346.227 36.7314 346.625 36.4971C 347.023 36.2627 347.372 35.9521 347.671 35.5654L 348.664 36.3389C 347.867 37.5635 346.672 38.1758 345.078 38.1758ZM 344.876 29.6504C 344.22 29.6504 343.669 29.8906 343.224 30.3711C 342.778 30.8457 342.503 31.5137 342.397 32.375L 347.161 32.375L 347.161 32.252C 347.114 31.4258 346.892 30.7871 346.493 30.3359C 346.095 29.8789 345.556 29.6504 344.876 29.6504ZM 350.29 33.166C 350.29 31.6836 350.633 30.5059 351.318 29.6328C 352.004 28.7539 352.912 28.3145 354.043 28.3145C 355.203 28.3145 356.108 28.7246 356.759 29.5449L 356.838 28.4902L 358.323 28.4902L 358.323 37.7715C 358.323 39.002 357.957 39.9717 357.225 40.6807C 356.498 41.3896 355.52 41.7441 354.289 41.7441C 353.604 41.7441 352.933 41.5977 352.276 41.3047C 351.62 41.0117 351.119 40.6104 350.773 40.1006L 351.617 39.125C 352.314 39.9863 353.167 40.417 354.175 40.417C 354.966 40.417 355.581 40.1943 356.021 39.749C 356.466 39.3037 356.688 38.6768 356.688 37.8682L 356.688 37.0508C 356.038 37.8008 355.15 38.1758 354.025 38.1758C 352.912 38.1758 352.01 37.7275 351.318 36.8311C 350.633 35.9346 350.29 34.7129 350.29 33.166ZM 351.925 33.3506C 351.925 34.4229 352.145 35.2666 352.584 35.8818C 353.023 36.4912 353.639 36.7959 354.43 36.7959C 355.455 36.7959 356.208 36.3301 356.688 35.3984L 356.688 31.0566C 356.19 30.1484 355.443 29.6943 354.447 29.6943C 353.656 29.6943 353.038 30.002 352.593 30.6172C 352.147 31.2324 351.925 32.1436 351.925 33.3506ZM 366.655 38C 366.562 37.8125 366.485 37.4785 366.427 36.998C 365.671 37.7832 364.769 38.1758 363.72 38.1758C 362.782 38.1758 362.012 37.9121 361.408 37.3848C 360.811 36.8516 360.512 36.1777 360.512 35.3633C 360.512 34.373 360.887 33.6055 361.637 33.0605C 362.393 32.5098 363.453 32.2344 364.818 32.2344L 366.4 32.2344L 366.4 31.4873C 366.4 30.9189 366.23 30.4678 365.891 30.1338C 365.551 29.7939 365.05 29.624 364.388 29.624C 363.808 29.624 363.321 29.7705 362.929 30.0635C 362.536 30.3564 362.34 30.7109 362.34 31.127L 360.705 31.127C 360.705 30.6523 360.872 30.1953 361.206 29.7559C 361.546 29.3105 362.003 28.959 362.577 28.7012C 363.157 28.4434 363.793 28.3145 364.484 28.3145C 365.58 28.3145 366.438 28.5898 367.06 29.1406C 367.681 29.6855 368.003 30.4385 368.026 31.3994L 368.026 35.7764C 368.026 36.6494 368.138 37.3438 368.36 37.8594L 368.36 38L 366.655 38ZM 363.957 36.7607C 364.467 36.7607 364.95 36.6289 365.407 36.3652C 365.864 36.1016 366.195 35.7588 366.4 35.3369L 366.4 33.3857L 365.126 33.3857C 363.134 33.3857 362.138 33.9688 362.138 35.1348C 362.138 35.6445 362.308 36.043 362.647 36.3301C 362.987 36.6172 363.424 36.7607 363.957 36.7607ZM 375.172 29.9492C 374.926 29.9082 374.659 29.8877 374.372 29.8877C 373.306 29.8877 372.582 30.3418 372.201 31.25L 372.201 38L 370.575 38L 370.575 28.4902L 372.157 28.4902L 372.184 29.5889C 372.717 28.7393 373.473 28.3145 374.451 28.3145C 374.768 28.3145 375.008 28.3555 375.172 28.4375L 375.172 29.9492ZM 387.011 37.0596C 386.378 37.8037 385.449 38.1758 384.225 38.1758C 383.211 38.1758 382.437 37.8828 381.904 37.2969C 381.377 36.7051 381.11 35.832 381.104 34.6777L 381.104 28.4902L 382.73 28.4902L 382.73 34.6338C 382.73 36.0752 383.316 36.7959 384.488 36.7959C 385.73 36.7959 386.557 36.333 386.967 35.4072L 386.967 28.4902L 388.593 28.4902L 388.593 38L 387.046 38L 387.011 37.0596ZM 392.609 28.4902L 392.662 29.6855C 393.389 28.7715 394.338 28.3145 395.51 28.3145C 397.52 28.3145 398.533 29.4482 398.551 31.7158L 398.551 38L 396.925 38L 396.925 31.707C 396.919 31.0215 396.761 30.5146 396.45 30.1865C 396.146 29.8584 395.668 29.6943 395.018 29.6943C 394.49 29.6943 394.027 29.835 393.629 30.1162C 393.23 30.3975 392.92 30.7666 392.697 31.2236L 392.697 38L 391.071 38L 391.071 28.4902L 392.609 28.4902ZM 413.501 33.3506C 413.501 34.7979 413.17 35.9639 412.508 36.8486C 411.846 37.7334 410.949 38.1758 409.818 38.1758C 408.664 38.1758 407.756 37.8096 407.094 37.0771L 407.094 41.6562L 405.468 41.6562L 405.468 28.4902L 406.953 28.4902L 407.032 29.5449C 407.694 28.7246 408.614 28.3145 409.792 28.3145C 410.935 28.3145 411.837 28.7451 412.499 29.6064C 413.167 30.4678 413.501 31.666 413.501 33.2012L 413.501 33.3506ZM 411.875 33.166C 411.875 32.0938 411.646 31.2471 411.189 30.626C 410.732 30.0049 410.105 29.6943 409.309 29.6943C 408.324 29.6943 407.586 30.1309 407.094 31.0039L 407.094 35.5479C 407.58 36.415 408.324 36.8486 409.326 36.8486C 410.105 36.8486 410.724 36.541 411.181 35.9258C 411.644 35.3047 411.875 34.3848 411.875 33.166ZM 420.172 29.9492C 419.926 29.9082 419.659 29.8877 419.372 29.8877C 418.306 29.8877 417.582 30.3418 417.201 31.25L 417.201 38L 415.575 38L 415.575 28.4902L 417.157 28.4902L 417.184 29.5889C 417.717 28.7393 418.473 28.3145 419.451 28.3145C 419.768 28.3145 420.008 28.3555 420.172 28.4375L 420.172 29.9492ZM 421.068 33.1572C 421.068 32.2256 421.25 31.3877 421.613 30.6436C 421.982 29.8994 422.492 29.3252 423.143 28.9209C 423.799 28.5166 424.546 28.3145 425.384 28.3145C 426.679 28.3145 427.725 28.7627 428.521 29.6592C 429.324 30.5557 429.726 31.748 429.726 33.2363L 429.726 33.3506C 429.726 34.2764 429.547 35.1084 429.189 35.8467C 428.838 36.5791 428.331 37.1504 427.669 37.5605C 427.013 37.9707 426.257 38.1758 425.401 38.1758C 424.112 38.1758 423.066 37.7275 422.264 36.8311C 421.467 35.9346 421.068 34.748 421.068 33.2715L 421.068 33.1572ZM 422.703 33.3506C 422.703 34.4053 422.946 35.252 423.433 35.8906C 423.925 36.5293 424.581 36.8486 425.401 36.8486C 426.228 36.8486 426.884 36.5264 427.37 35.8818C 427.856 35.2314 428.1 34.3232 428.1 33.1572C 428.1 32.1143 427.851 31.2705 427.353 30.626C 426.86 29.9756 426.204 29.6504 425.384 29.6504C 424.581 29.6504 423.934 29.9697 423.441 30.6084C 422.949 31.2471 422.703 32.1611 422.703 33.3506ZM 433.971 26.1875L 433.971 28.4902L 435.746 28.4902L 435.746 29.7471L 433.971 29.7471L 433.971 35.6445C 433.971 36.0254 434.05 36.3125 434.208 36.5059C 434.366 36.6934 434.636 36.7871 435.017 36.7871C 435.204 36.7871 435.462 36.752 435.79 36.6816L 435.79 38C 435.362 38.1172 434.946 38.1758 434.542 38.1758C 433.815 38.1758 433.268 37.9561 432.898 37.5166C 432.529 37.0771 432.345 36.4531 432.345 35.6445L 432.345 29.7471L 430.613 29.7471L 430.613 28.4902L 432.345 28.4902L 432.345 26.1875L 433.971 26.1875ZM 437.047 33.1572C 437.047 32.2256 437.229 31.3877 437.592 30.6436C 437.961 29.8994 438.471 29.3252 439.121 28.9209C 439.777 28.5166 440.524 28.3145 441.362 28.3145C 442.657 28.3145 443.703 28.7627 444.5 29.6592C 445.303 30.5557 445.704 31.748 445.704 33.2363L 445.704 33.3506C 445.704 34.2764 445.525 35.1084 445.168 35.8467C 444.816 36.5791 444.31 37.1504 443.647 37.5605C 442.991 37.9707 442.235 38.1758 441.38 38.1758C 440.091 38.1758 439.045 37.7275 438.242 36.8311C 437.445 35.9346 437.047 34.748 437.047 33.2715L 437.047 33.1572ZM 438.682 33.3506C 438.682 34.4053 438.925 35.252 439.411 35.8906C 439.903 36.5293 440.56 36.8486 441.38 36.8486C 442.206 36.8486 442.862 36.5264 443.349 35.8818C 443.835 35.2314 444.078 34.3232 444.078 33.1572C 444.078 32.1143 443.829 31.2705 443.331 30.626C 442.839 29.9756 442.183 29.6504 441.362 29.6504C 440.56 29.6504 439.912 29.9697 439.42 30.6084C 438.928 31.2471 438.682 32.1611 438.682 33.3506ZM 449.949 26.1875L 449.949 28.4902L 451.725 28.4902L 451.725 29.7471L 449.949 29.7471L 449.949 35.6445C 449.949 36.0254 450.028 36.3125 450.187 36.5059C 450.345 36.6934 450.614 36.7871 450.995 36.7871C 451.183 36.7871 451.44 36.752 451.769 36.6816L 451.769 38C 451.341 38.1172 450.925 38.1758 450.521 38.1758C 449.794 38.1758 449.246 37.9561 448.877 37.5166C 448.508 37.0771 448.323 36.4531 448.323 35.6445L 448.323 29.7471L 446.592 29.7471L 446.592 28.4902L 448.323 28.4902L 448.323 26.1875L 449.949 26.1875ZM 455.398 38L 453.772 38L 453.772 28.4902L 455.398 28.4902L 455.398 38ZM 453.641 25.9678C 453.641 25.7041 453.72 25.4814 453.878 25.2998C 454.042 25.1182 454.282 25.0273 454.599 25.0273C 454.915 25.0273 455.155 25.1182 455.319 25.2998C 455.483 25.4814 455.565 25.7041 455.565 25.9678C 455.565 26.2314 455.483 26.4512 455.319 26.627C 455.155 26.8027 454.915 26.8906 454.599 26.8906C 454.282 26.8906 454.042 26.8027 453.878 26.627C 453.72 26.4512 453.641 26.2314 453.641 25.9678ZM 466.042 33.3506C 466.042 34.7979 465.711 35.9639 465.049 36.8486C 464.387 37.7334 463.49 38.1758 462.359 38.1758C 461.205 38.1758 460.297 37.8096 459.635 37.0771L 459.635 41.6562L 458.009 41.6562L 458.009 28.4902L 459.494 28.4902L 459.573 29.5449C 460.235 28.7246 461.155 28.3145 462.333 28.3145C 463.476 28.3145 464.378 28.7451 465.04 29.6064C 465.708 30.4678 466.042 31.666 466.042 33.2012L 466.042 33.3506ZM 464.416 33.166C 464.416 32.0938 464.188 31.2471 463.73 30.626C 463.273 30.0049 462.646 29.6943 461.85 29.6943C 460.865 29.6943 460.127 30.1309 459.635 31.0039L 459.635 35.5479C 460.121 36.415 460.865 36.8486 461.867 36.8486C 462.646 36.8486 463.265 36.541 463.722 35.9258C 464.185 35.3047 464.416 34.3848 464.416 33.166ZM 467.686 33.1572C 467.686 32.2256 467.867 31.3877 468.23 30.6436C 468.6 29.8994 469.109 29.3252 469.76 28.9209C 470.416 28.5166 471.163 28.3145 472.001 28.3145C 473.296 28.3145 474.342 28.7627 475.139 29.6592C 475.941 30.5557 476.343 31.748 476.343 33.2363L 476.343 33.3506C 476.343 34.2764 476.164 35.1084 475.807 35.8467C 475.455 36.5791 474.948 37.1504 474.286 37.5605C 473.63 37.9707 472.874 38.1758 472.019 38.1758C 470.729 38.1758 469.684 37.7275 468.881 36.8311C 468.084 35.9346 467.686 34.748 467.686 33.2715L 467.686 33.1572ZM 469.32 33.3506C 469.32 34.4053 469.563 35.252 470.05 35.8906C 470.542 36.5293 471.198 36.8486 472.019 36.8486C 472.845 36.8486 473.501 36.5264 473.987 35.8818C 474.474 35.2314 474.717 34.3232 474.717 33.1572C 474.717 32.1143 474.468 31.2705 473.97 30.626C 473.478 29.9756 472.821 29.6504 472.001 29.6504C 471.198 29.6504 470.551 29.9697 470.059 30.6084C 469.566 31.2471 469.32 32.1611 469.32 33.3506ZM 483.646 38L 483.646 29.7471L 482.144 29.7471L 482.144 28.4902L 483.646 28.4902L 483.646 27.5146C 483.646 26.4951 483.919 25.707 484.464 25.1504C 485.009 24.5937 485.779 24.3154 486.775 24.3154C 487.15 24.3154 487.522 24.3652 487.892 24.4648L 487.804 25.7832C 487.528 25.7305 487.235 25.7041 486.925 25.7041C 486.397 25.7041 485.99 25.8594 485.703 26.1699C 485.416 26.4746 485.272 26.9141 485.272 27.4883L 485.272 28.4902L 487.303 28.4902L 487.303 29.7471L 485.272 29.7471L 485.272 38L 483.646 38ZM 494.976 37.0596C 494.343 37.8037 493.414 38.1758 492.189 38.1758C 491.176 38.1758 490.402 37.8828 489.869 37.2969C 489.342 36.7051 489.075 35.832 489.069 34.6777L 489.069 28.4902L 490.695 28.4902L 490.695 34.6338C 490.695 36.0752 491.281 36.7959 492.453 36.7959C 493.695 36.7959 494.521 36.333 494.932 35.4072L 494.932 28.4902L 496.558 28.4902L 496.558 38L 495.011 38L 494.976 37.0596ZM 500.574 28.4902L 500.627 29.6855C 501.354 28.7715 502.303 28.3145 503.475 28.3145C 505.484 28.3145 506.498 29.4482 506.516 31.7158L 506.516 38L 504.89 38L 504.89 31.707C 504.884 31.0215 504.726 30.5146 504.415 30.1865C 504.11 29.8584 503.633 29.6943 502.982 29.6943C 502.455 29.6943 501.992 29.835 501.594 30.1162C 501.195 30.3975 500.885 30.7666 500.662 31.2236L 500.662 38L 499.036 38L 499.036 28.4902L 500.574 28.4902ZM 512.782 36.8486C 513.362 36.8486 513.869 36.6729 514.303 36.3213C 514.736 35.9697 514.977 35.5303 515.023 35.0029L 516.562 35.0029C 516.532 35.5479 516.345 36.0664 515.999 36.5586C 515.653 37.0508 515.19 37.4434 514.61 37.7363C 514.036 38.0293 513.427 38.1758 512.782 38.1758C 511.487 38.1758 510.456 37.7451 509.688 36.8838C 508.927 36.0166 508.546 34.833 508.546 33.333L 508.546 33.0605C 508.546 32.1348 508.716 31.3115 509.056 30.5908C 509.396 29.8701 509.882 29.3105 510.515 28.9121C 511.153 28.5137 511.906 28.3145 512.773 28.3145C 513.84 28.3145 514.725 28.6338 515.428 29.2725C 516.137 29.9111 516.515 30.7402 516.562 31.7598L 515.023 31.7598C 514.977 31.1445 514.742 30.6406 514.32 30.248C 513.904 29.8496 513.389 29.6504 512.773 29.6504C 511.947 29.6504 511.306 29.9492 510.849 30.5469C 510.397 31.1387 510.172 31.9971 510.172 33.1221L 510.172 33.4297C 510.172 34.5254 510.397 35.3691 510.849 35.9609C 511.3 36.5527 511.944 36.8486 512.782 36.8486ZM 520.156 38L 518.53 38L 518.53 28.4902L 520.156 28.4902L 520.156 38ZM 518.398 25.9678C 518.398 25.7041 518.478 25.4814 518.636 25.2998C 518.8 25.1182 519.04 25.0273 519.356 25.0273C 519.673 25.0273 519.913 25.1182 520.077 25.2998C 520.241 25.4814 520.323 25.7041 520.323 25.9678C 520.323 26.2314 520.241 26.4512 520.077 26.627C 519.913 26.8027 519.673 26.8906 519.356 26.8906C 519.04 26.8906 518.8 26.8027 518.636 26.627C 518.478 26.4512 518.398 26.2314 518.398 25.9678ZM 522.336 33.1572C 522.336 32.2256 522.518 31.3877 522.881 30.6436C 523.25 29.8994 523.76 29.3252 524.41 28.9209C 525.066 28.5166 525.813 28.3145 526.651 28.3145C 527.946 28.3145 528.992 28.7627 529.789 29.6592C 530.592 30.5557 530.993 31.748 530.993 33.2363L 530.993 33.3506C 530.993 34.2764 530.814 35.1084 530.457 35.8467C 530.105 36.5791 529.599 37.1504 528.937 37.5605C 528.28 37.9707 527.524 38.1758 526.669 38.1758C 525.38 38.1758 524.334 37.7275 523.531 36.8311C 522.734 35.9346 522.336 34.748 522.336 33.2715L 522.336 33.1572ZM 523.971 33.3506C 523.971 34.4053 524.214 35.252 524.7 35.8906C 525.192 36.5293 525.849 36.8486 526.669 36.8486C 527.495 36.8486 528.151 36.5264 528.638 35.8818C 529.124 35.2314 529.367 34.3232 529.367 33.1572C 529.367 32.1143 529.118 31.2705 528.62 30.626C 528.128 29.9756 527.472 29.6504 526.651 29.6504C 525.849 29.6504 525.201 29.9697 524.709 30.6084C 524.217 31.2471 523.971 32.1611 523.971 33.3506ZM 534.57 28.4902L 534.623 29.6855C 535.35 28.7715 536.299 28.3145 537.471 28.3145C 539.48 28.3145 540.494 29.4482 540.512 31.7158L 540.512 38L 538.886 38L 538.886 31.707C 538.88 31.0215 538.722 30.5146 538.411 30.1865C 538.106 29.8584 537.629 29.6943 536.979 29.6943C 536.451 29.6943 535.988 29.835 535.59 30.1162C 535.191 30.3975 534.881 30.7666 534.658 31.2236L 534.658 38L 533.032 38L 533.032 28.4902L 534.57 28.4902ZM 548.835 38C 548.741 37.8125 548.665 37.4785 548.606 36.998C 547.851 37.7832 546.948 38.1758 545.899 38.1758C 544.962 38.1758 544.191 37.9121 543.588 37.3848C 542.99 36.8516 542.691 36.1777 542.691 35.3633C 542.691 34.373 543.066 33.6055 543.816 33.0605C 544.572 32.5098 545.633 32.2344 546.998 32.2344L 548.58 32.2344L 548.58 31.4873C 548.58 30.9189 548.41 30.4678 548.07 30.1338C 547.73 29.7939 547.229 29.624 546.567 29.624C 545.987 29.624 545.501 29.7705 545.108 30.0635C 544.716 30.3564 544.52 30.7109 544.52 31.127L 542.885 31.127C 542.885 30.6523 543.052 30.1953 543.386 29.7559C 543.726 29.3105 544.183 28.959 544.757 28.7012C 545.337 28.4434 545.973 28.3145 546.664 28.3145C 547.76 28.3145 548.618 28.5898 549.239 29.1406C 549.86 29.6855 550.183 30.4385 550.206 31.3994L 550.206 35.7764C 550.206 36.6494 550.317 37.3438 550.54 37.8594L 550.54 38L 548.835 38ZM 546.137 36.7607C 546.646 36.7607 547.13 36.6289 547.587 36.3652C 548.044 36.1016 548.375 35.7588 548.58 35.3369L 548.58 33.3857L 547.306 33.3857C 545.313 33.3857 544.317 33.9688 544.317 35.1348C 544.317 35.6445 544.487 36.043 544.827 36.3301C 545.167 36.6172 545.604 36.7607 546.137 36.7607ZM 554.521 38L 552.896 38L 552.896 24.5L 554.521 24.5L 554.521 38ZM 557.167 37.1475C 557.167 36.8662 557.249 36.6318 557.413 36.4443C 557.583 36.2568 557.835 36.1631 558.169 36.1631C 558.503 36.1631 558.755 36.2568 558.925 36.4443C 559.101 36.6318 559.188 36.8662 559.188 37.1475C 559.188 37.417 559.101 37.6426 558.925 37.8242C 558.755 38.0059 558.503 38.0967 558.169 38.0967C 557.835 38.0967 557.583 38.0059 557.413 37.8242C 557.249 37.6426 557.167 37.417 557.167 37.1475Z"/>
</defs>
</svg>
