<svg width="322" height="23" viewBox="0 0 322 23" version="1.1" xmlns="http://www.w3.org/2000/svg" xmlns:xlink="http://www.w3.org/1999/xlink">
<title>FECHA L&#195;&#141;MITE: 24 DE MARZO</title>
<desc>Created using Figma</desc>
<g id="Canvas" transform="translate(111 -659)">
<g id="FECHA L&#195;&#141;MITE: 24 DE MARZO">
<use xlink:href="#path0_fill" transform="translate(-300.068 659.511)" fill="#344154"/>
</g>
</g>
<defs>
<path id="path0_fill" d="M 200.298 15.0273L 193.548 15.0273L 193.548 22L 190.033 22L 190.033 4.9375L 201.142 4.9375L 201.142 7.78516L 193.548 7.78516L 193.548 12.1914L 200.298 12.1914L 200.298 15.0273ZM 213.447 14.6055L 206.697 14.6055L 206.697 19.1758L 214.619 19.1758L 214.619 22L 203.181 22L 203.181 4.9375L 214.595 4.9375L 214.595 7.78516L 206.697 7.78516L 206.697 11.8516L 213.447 11.8516L 213.447 14.6055ZM 230.076 16.3164C 229.943 18.1523 229.263 19.5977 228.037 20.6523C 226.818 21.707 225.208 22.2344 223.208 22.2344C 221.021 22.2344 219.298 21.5 218.04 20.0312C 216.79 18.5547 216.165 16.5313 216.165 13.9609L 216.165 12.918C 216.165 11.2773 216.454 9.83203 217.033 8.58203C 217.611 7.33203 218.435 6.375 219.505 5.71094C 220.583 5.03906 221.833 4.70312 223.255 4.70312C 225.224 4.70312 226.81 5.23047 228.013 6.28516C 229.216 7.33984 229.912 8.82031 230.099 10.7266L 226.583 10.7266C 226.497 9.625 226.189 8.82812 225.658 8.33594C 225.134 7.83594 224.333 7.58594 223.255 7.58594C 222.083 7.58594 221.204 8.00781 220.619 8.85156C 220.04 9.6875 219.744 10.9883 219.728 12.7539L 219.728 14.043C 219.728 15.8867 220.005 17.2344 220.56 18.0859C 221.122 18.9375 222.005 19.3633 223.208 19.3633C 224.294 19.3633 225.103 19.1172 225.634 18.625C 226.173 18.125 226.482 17.3555 226.56 16.3164L 230.076 16.3164ZM 246.271 22L 242.755 22L 242.755 14.6875L 235.9 14.6875L 235.9 22L 232.384 22L 232.384 4.9375L 235.9 4.9375L 235.9 11.8516L 242.755 11.8516L 242.755 4.9375L 246.271 4.9375L 246.271 22ZM 259.197 18.4844L 253.033 18.4844L 251.861 22L 248.122 22L 254.474 4.9375L 257.732 4.9375L 264.119 22L 260.38 22L 259.197 18.4844ZM 253.982 15.6367L 258.247 15.6367L 256.103 9.25L 253.982 15.6367ZM 275.204 19.1758L 282.669 19.1758L 282.669 22L 271.689 22L 271.689 4.9375L 275.204 4.9375L 275.204 19.1758ZM 288.435 22L 284.919 22L 284.919 4.9375L 288.435 4.9375L 288.435 22ZM 287.345 0.332031L 291.037 0.332031L 287.79 3.96484L 285.037 3.96484L 287.345 0.332031ZM 296.298 4.9375L 300.681 17.3125L 305.04 4.9375L 309.658 4.9375L 309.658 22L 306.13 22L 306.13 17.3359L 306.482 9.28516L 301.876 22L 299.462 22L 294.869 9.29688L 295.22 17.3359L 295.22 22L 291.704 22L 291.704 4.9375L 296.298 4.9375ZM 316.466 22L 312.951 22L 312.951 4.9375L 316.466 4.9375L 316.466 22ZM 332.228 7.78516L 327.001 7.78516L 327.001 22L 323.486 22L 323.486 7.78516L 318.329 7.78516L 318.329 4.9375L 332.228 4.9375L 332.228 7.78516ZM 344.509 14.6055L 337.759 14.6055L 337.759 19.1758L 345.681 19.1758L 345.681 22L 334.244 22L 334.244 4.9375L 345.658 4.9375L 345.658 7.78516L 337.759 7.78516L 337.759 11.8516L 344.509 11.8516L 344.509 14.6055ZM 347.685 20.3359C 347.685 19.7969 347.865 19.3594 348.224 19.0234C 348.591 18.6875 349.048 18.5195 349.595 18.5195C 350.15 18.5195 350.607 18.6875 350.966 19.0234C 351.333 19.3594 351.517 19.7969 351.517 20.3359C 351.517 20.8672 351.337 21.3008 350.978 21.6367C 350.619 21.9648 350.158 22.1289 349.595 22.1289C 349.04 22.1289 348.583 21.9648 348.224 21.6367C 347.865 21.3008 347.685 20.8672 347.685 20.3359ZM 347.685 10.7383C 347.685 10.1992 347.865 9.76172 348.224 9.42578C 348.591 9.08984 349.048 8.92188 349.595 8.92188C 350.15 8.92188 350.607 9.08984 350.966 9.42578C 351.333 9.76172 351.517 10.1992 351.517 10.7383C 351.517 11.2695 351.337 11.7031 350.978 12.0391C 350.619 12.3672 350.158 12.5312 349.595 12.5312C 349.04 12.5312 348.583 12.3672 348.224 12.0391C 347.865 11.7031 347.685 11.2695 347.685 10.7383ZM 371.826 22L 360.13 22L 360.13 19.6797L 365.65 13.7969C 366.408 12.9687 366.966 12.2461 367.326 11.6289C 367.693 11.0117 367.876 10.4258 367.876 9.87109C 367.876 9.11328 367.685 8.51953 367.302 8.08984C 366.919 7.65234 366.372 7.43359 365.662 7.43359C 364.896 7.43359 364.29 7.69922 363.845 8.23047C 363.408 8.75391 363.189 9.44531 363.189 10.3047L 359.79 10.3047C 359.79 9.26563 360.037 8.31641 360.529 7.45703C 361.029 6.59766 361.732 5.92578 362.638 5.44141C 363.544 4.94922 364.572 4.70312 365.72 4.70312C 367.478 4.70312 368.841 5.125 369.81 5.96875C 370.787 6.8125 371.275 8.00391 371.275 9.54297C 371.275 10.3867 371.056 11.2461 370.619 12.1211C 370.181 12.9961 369.431 14.0156 368.369 15.1797L 364.49 19.2695L 371.826 19.2695L 371.826 22ZM 383.931 15.5781L 385.865 15.5781L 385.865 18.3086L 383.931 18.3086L 383.931 22L 380.544 22L 380.544 18.3086L 373.548 18.3086L 373.396 16.1758L 380.509 4.9375L 383.931 4.9375L 383.931 15.5781ZM 376.771 15.5781L 380.544 15.5781L 380.544 9.55469L 380.322 9.94141L 376.771 15.5781ZM 394.033 22L 394.033 4.9375L 399.283 4.9375C 400.783 4.9375 402.122 5.27734 403.302 5.95703C 404.49 6.62891 405.415 7.58984 406.079 8.83984C 406.744 10.082 407.076 11.4961 407.076 13.082L 407.076 13.8672C 407.076 15.4531 406.747 16.8633 406.091 18.0977C 405.443 19.332 404.525 20.2891 403.337 20.9688C 402.15 21.6484 400.81 21.9922 399.318 22L 394.033 22ZM 397.548 7.78516L 397.548 19.1758L 399.247 19.1758C 400.622 19.1758 401.673 18.7266 402.4 17.8281C 403.126 16.9297 403.497 15.6445 403.513 13.9727L 403.513 13.0703C 403.513 11.3359 403.154 10.0234 402.435 9.13281C 401.716 8.23438 400.665 7.78516 399.283 7.78516L 397.548 7.78516ZM 419.908 14.6055L 413.158 14.6055L 413.158 19.1758L 421.079 19.1758L 421.079 22L 409.642 22L 409.642 4.9375L 421.056 4.9375L 421.056 7.78516L 413.158 7.78516L 413.158 11.8516L 419.908 11.8516L 419.908 14.6055ZM 433.712 4.9375L 438.095 17.3125L 442.454 4.9375L 447.072 4.9375L 447.072 22L 443.544 22L 443.544 17.3359L 443.896 9.28516L 439.29 22L 436.876 22L 432.283 9.29688L 432.634 17.3359L 432.634 22L 429.119 22L 429.119 4.9375L 433.712 4.9375ZM 459.986 18.4844L 453.822 18.4844L 452.65 22L 448.912 22L 455.263 4.9375L 458.521 4.9375L 464.908 22L 461.169 22L 459.986 18.4844ZM 454.771 15.6367L 459.037 15.6367L 456.892 9.25L 454.771 15.6367ZM 472.818 15.7539L 470.017 15.7539L 470.017 22L 466.501 22L 466.501 4.9375L 472.841 4.9375C 474.857 4.9375 476.412 5.38672 477.505 6.28516C 478.599 7.18359 479.146 8.45312 479.146 10.0938C 479.146 11.2578 478.892 12.2305 478.384 13.0117C 477.884 13.7852 477.122 14.4023 476.099 14.8633L 479.79 21.8359L 479.79 22L 476.017 22L 472.818 15.7539ZM 470.017 12.9062L 472.853 12.9062C 473.736 12.9062 474.419 12.6836 474.904 12.2383C 475.388 11.7852 475.63 11.1641 475.63 10.375C 475.63 9.57031 475.4 8.9375 474.939 8.47656C 474.486 8.01562 473.787 7.78516 472.841 7.78516L 470.017 7.78516L 470.017 12.9062ZM 485.556 19.1758L 494.158 19.1758L 494.158 22L 481.162 22L 481.162 19.9375L 489.599 7.78516L 481.173 7.78516L 481.173 4.9375L 493.97 4.9375L 493.97 6.95312L 485.556 19.1758ZM 510.095 13.8555C 510.095 15.5352 509.798 17.0078 509.204 18.2734C 508.611 19.5391 507.759 20.5156 506.65 21.2031C 505.548 21.8906 504.283 22.2344 502.853 22.2344C 501.439 22.2344 500.177 21.8945 499.068 21.2148C 497.958 20.5352 497.099 19.5664 496.49 18.3086C 495.88 17.043 495.572 15.5898 495.564 13.9492L 495.564 13.1055C 495.564 11.4258 495.865 9.94922 496.466 8.67578C 497.076 7.39453 497.931 6.41406 499.033 5.73438C 500.142 5.04688 501.408 4.70312 502.829 4.70312C 504.251 4.70312 505.513 5.04688 506.615 5.73438C 507.724 6.41406 508.579 7.39453 509.181 8.67578C 509.79 9.94922 510.095 11.4219 510.095 13.0938L 510.095 13.8555ZM 506.533 13.082C 506.533 11.293 506.212 9.93359 505.572 9.00391C 504.931 8.07422 504.017 7.60938 502.829 7.60938C 501.65 7.60938 500.74 8.07031 500.099 8.99219C 499.458 9.90625 499.134 11.25 499.126 13.0234L 499.126 13.8555C 499.126 15.5977 499.447 16.9492 500.087 17.9102C 500.728 18.8711 501.65 19.3516 502.853 19.3516C 504.033 19.3516 504.939 18.8906 505.572 17.9688C 506.204 17.0391 506.525 15.6875 506.533 13.9141L 506.533 13.082Z"/>
</defs>
</svg>
