<svg width="455" height="27" viewBox="0 0 455 27" version="1.1" xmlns="http://www.w3.org/2000/svg" xmlns:xlink="http://www.w3.org/1999/xlink">
<title>&#194;&#161;EL GANADOR OBTENDR&#195;&#129; $120,000 MXN!</title>
<desc>Created using Figma</desc>
<g id="Canvas" transform="translate(179 -1208)">
<g id="&#194;&#161;EL GANADOR OBTENDR&#195;&#129; $120,000 MXN!">
<use xlink:href="#path0_fill" transform="translate(-302 1208)" fill="#344154"/>
</g>
</g>
<defs>
<path id="path0_fill" d="M 123.605 14.5117L 126.43 14.5117L 126.816 26.3242L 123.219 26.3242L 123.605 14.5117ZM 126.91 10.8906C 126.91 11.4141 126.73 11.8437 126.371 12.1797C 126.012 12.5156 125.559 12.6836 125.012 12.6836C 124.465 12.6836 124.012 12.5156 123.652 12.1797C 123.293 11.8437 123.113 11.4141 123.113 10.8906C 123.113 10.3672 123.285 9.9375 123.629 9.60156C 123.98 9.26563 124.441 9.09766 125.012 9.09766C 125.582 9.09766 126.039 9.26563 126.383 9.60156C 126.734 9.9375 126.91 10.3672 126.91 10.8906ZM 140.176 14.6055L 133.426 14.6055L 133.426 19.1758L 141.348 19.1758L 141.348 22L 129.91 22L 129.91 4.9375L 141.324 4.9375L 141.324 7.78516L 133.426 7.78516L 133.426 11.8516L 140.176 11.8516L 140.176 14.6055ZM 146.926 19.1758L 154.391 19.1758L 154.391 22L 143.41 22L 143.41 4.9375L 146.926 4.9375L 146.926 19.1758ZM 175.895 19.8438C 175.262 20.6016 174.367 21.1914 173.211 21.6133C 172.055 22.0273 170.773 22.2344 169.367 22.2344C 167.891 22.2344 166.594 21.9141 165.477 21.2734C 164.367 20.625 163.508 19.6875 162.898 18.4609C 162.297 17.2344 161.988 15.793 161.973 14.1367L 161.973 12.9766C 161.973 11.2734 162.258 9.80078 162.828 8.55859C 163.406 7.30859 164.234 6.35547 165.312 5.69922C 166.398 5.03516 167.668 4.70312 169.121 4.70312C 171.145 4.70312 172.727 5.1875 173.867 6.15625C 175.008 7.11719 175.684 8.51953 175.895 10.3633L 172.473 10.3633C 172.316 9.38672 171.969 8.67187 171.43 8.21875C 170.898 7.76563 170.164 7.53906 169.227 7.53906C 168.031 7.53906 167.121 7.98828 166.496 8.88672C 165.871 9.78516 165.555 11.1211 165.547 12.8945L 165.547 13.9844C 165.547 15.7734 165.887 17.125 166.566 18.0391C 167.246 18.9531 168.242 19.4102 169.555 19.4102C 170.875 19.4102 171.816 19.1289 172.379 18.5664L 172.379 15.625L 169.18 15.625L 169.18 13.0352L 175.895 13.0352L 175.895 19.8438ZM 188.387 18.4844L 182.223 18.4844L 181.051 22L 177.312 22L 183.664 4.9375L 186.922 4.9375L 193.309 22L 189.57 22L 188.387 18.4844ZM 183.172 15.6367L 187.438 15.6367L 185.293 9.25L 183.172 15.6367ZM 208.777 22L 205.262 22L 198.418 10.7734L 198.418 22L 194.902 22L 194.902 4.9375L 198.418 4.9375L 205.273 16.1875L 205.273 4.9375L 208.777 4.9375L 208.777 22ZM 221.691 18.4844L 215.527 18.4844L 214.355 22L 210.617 22L 216.969 4.9375L 220.227 4.9375L 226.613 22L 222.875 22L 221.691 18.4844ZM 216.477 15.6367L 220.742 15.6367L 218.598 9.25L 216.477 15.6367ZM 228.207 22L 228.207 4.9375L 233.457 4.9375C 234.957 4.9375 236.297 5.27734 237.477 5.95703C 238.664 6.62891 239.59 7.58984 240.254 8.83984C 240.918 10.082 241.25 11.4961 241.25 13.082L 241.25 13.8672C 241.25 15.4531 240.922 16.8633 240.266 18.0977C 239.617 19.332 238.699 20.2891 237.512 20.9688C 236.324 21.6484 234.984 21.9922 233.492 22L 228.207 22ZM 231.723 7.78516L 231.723 19.1758L 233.422 19.1758C 234.797 19.1758 235.848 18.7266 236.574 17.8281C 237.301 16.9297 237.672 15.6445 237.688 13.9727L 237.688 13.0703C 237.688 11.3359 237.328 10.0234 236.609 9.13281C 235.891 8.23438 234.84 7.78516 233.457 7.78516L 231.723 7.78516ZM 257.832 13.8555C 257.832 15.5352 257.535 17.0078 256.941 18.2734C 256.348 19.5391 255.496 20.5156 254.387 21.2031C 253.285 21.8906 252.02 22.2344 250.59 22.2344C 249.176 22.2344 247.914 21.8945 246.805 21.2148C 245.695 20.5352 244.836 19.5664 244.227 18.3086C 243.617 17.043 243.309 15.5898 243.301 13.9492L 243.301 13.1055C 243.301 11.4258 243.602 9.94922 244.203 8.67578C 244.812 7.39453 245.668 6.41406 246.77 5.73438C 247.879 5.04688 249.145 4.70312 250.566 4.70312C 251.988 4.70312 253.25 5.04688 254.352 5.73438C 255.461 6.41406 256.316 7.39453 256.918 8.67578C 257.527 9.94922 257.832 11.4219 257.832 13.0938L 257.832 13.8555ZM 254.27 13.082C 254.27 11.293 253.949 9.93359 253.309 9.00391C 252.668 8.07422 251.754 7.60938 250.566 7.60938C 249.387 7.60938 248.477 8.07031 247.836 8.99219C 247.195 9.90625 246.871 11.25 246.863 13.0234L 246.863 13.8555C 246.863 15.5977 247.184 16.9492 247.824 17.9102C 248.465 18.8711 249.387 19.3516 250.59 19.3516C 251.77 19.3516 252.676 18.8906 253.309 17.9688C 253.941 17.0391 254.262 15.6875 254.27 13.9141L 254.27 13.082ZM 266.703 15.7539L 263.902 15.7539L 263.902 22L 260.387 22L 260.387 4.9375L 266.727 4.9375C 268.742 4.9375 270.297 5.38672 271.391 6.28516C 272.484 7.18359 273.031 8.45312 273.031 10.0938C 273.031 11.2578 272.777 12.2305 272.27 13.0117C 271.77 13.7852 271.008 14.4023 269.984 14.8633L 273.676 21.8359L 273.676 22L 269.902 22L 266.703 15.7539ZM 263.902 12.9062L 266.738 12.9062C 267.621 12.9062 268.305 12.6836 268.789 12.2383C 269.273 11.7852 269.516 11.1641 269.516 10.375C 269.516 9.57031 269.285 8.9375 268.824 8.47656C 268.371 8.01562 267.672 7.78516 266.727 7.78516L 263.902 7.78516L 263.902 12.9062ZM 295.707 13.8555C 295.707 15.5352 295.41 17.0078 294.816 18.2734C 294.223 19.5391 293.371 20.5156 292.262 21.2031C 291.16 21.8906 289.895 22.2344 288.465 22.2344C 287.051 22.2344 285.789 21.8945 284.68 21.2148C 283.57 20.5352 282.711 19.5664 282.102 18.3086C 281.492 17.043 281.184 15.5898 281.176 13.9492L 281.176 13.1055C 281.176 11.4258 281.477 9.94922 282.078 8.67578C 282.688 7.39453 283.543 6.41406 284.645 5.73438C 285.754 5.04688 287.02 4.70312 288.441 4.70312C 289.863 4.70312 291.125 5.04688 292.227 5.73438C 293.336 6.41406 294.191 7.39453 294.793 8.67578C 295.402 9.94922 295.707 11.4219 295.707 13.0938L 295.707 13.8555ZM 292.145 13.082C 292.145 11.293 291.824 9.93359 291.184 9.00391C 290.543 8.07422 289.629 7.60938 288.441 7.60938C 287.262 7.60938 286.352 8.07031 285.711 8.99219C 285.07 9.90625 284.746 11.25 284.738 13.0234L 284.738 13.8555C 284.738 15.5977 285.059 16.9492 285.699 17.9102C 286.34 18.8711 287.262 19.3516 288.465 19.3516C 289.645 19.3516 290.551 18.8906 291.184 17.9688C 291.816 17.0391 292.137 15.6875 292.145 13.9141L 292.145 13.082ZM 298.262 22L 298.262 4.9375L 304.238 4.9375C 306.309 4.9375 307.879 5.33594 308.949 6.13281C 310.02 6.92188 310.555 8.08203 310.555 9.61328C 310.555 10.4492 310.34 11.1875 309.91 11.8281C 309.48 12.4609 308.883 12.9258 308.117 13.2227C 308.992 13.4414 309.68 13.8828 310.18 14.5469C 310.688 15.2109 310.941 16.0234 310.941 16.9844C 310.941 18.625 310.418 19.8672 309.371 20.7109C 308.324 21.5547 306.832 21.9844 304.895 22L 298.262 22ZM 301.777 14.5703L 301.777 19.1758L 304.789 19.1758C 305.617 19.1758 306.262 18.9805 306.723 18.5898C 307.191 18.1914 307.426 17.6445 307.426 16.9492C 307.426 15.3867 306.617 14.5938 305 14.5703L 301.777 14.5703ZM 301.777 12.0859L 304.379 12.0859C 306.152 12.0547 307.039 11.3477 307.039 9.96484C 307.039 9.19141 306.813 8.63672 306.359 8.30078C 305.914 7.95703 305.207 7.78516 304.238 7.78516L 301.777 7.78516L 301.777 12.0859ZM 326.105 7.78516L 320.879 7.78516L 320.879 22L 317.363 22L 317.363 7.78516L 312.207 7.78516L 312.207 4.9375L 326.105 4.9375L 326.105 7.78516ZM 338.387 14.6055L 331.637 14.6055L 331.637 19.1758L 339.559 19.1758L 339.559 22L 328.121 22L 328.121 4.9375L 339.535 4.9375L 339.535 7.78516L 331.637 7.78516L 331.637 11.8516L 338.387 11.8516L 338.387 14.6055ZM 355.496 22L 351.98 22L 345.137 10.7734L 345.137 22L 341.621 22L 341.621 4.9375L 345.137 4.9375L 351.992 16.1875L 351.992 4.9375L 355.496 4.9375L 355.496 22ZM 358.566 22L 358.566 4.9375L 363.816 4.9375C 365.316 4.9375 366.656 5.27734 367.836 5.95703C 369.023 6.62891 369.949 7.58984 370.613 8.83984C 371.277 10.082 371.609 11.4961 371.609 13.082L 371.609 13.8672C 371.609 15.4531 371.281 16.8633 370.625 18.0977C 369.977 19.332 369.059 20.2891 367.871 20.9688C 366.684 21.6484 365.344 21.9922 363.852 22L 358.566 22ZM 362.082 7.78516L 362.082 19.1758L 363.781 19.1758C 365.156 19.1758 366.207 18.7266 366.934 17.8281C 367.66 16.9297 368.031 15.6445 368.047 13.9727L 368.047 13.0703C 368.047 11.3359 367.687 10.0234 366.969 9.13281C 366.25 8.23438 365.199 7.78516 363.816 7.78516L 362.082 7.78516ZM 380.492 15.7539L 377.691 15.7539L 377.691 22L 374.176 22L 374.176 4.9375L 380.516 4.9375C 382.531 4.9375 384.086 5.38672 385.18 6.28516C 386.273 7.18359 386.82 8.45312 386.82 10.0938C 386.82 11.2578 386.566 12.2305 386.059 13.0117C 385.559 13.7852 384.797 14.4023 383.773 14.8633L 387.465 21.8359L 387.465 22L 383.691 22L 380.492 15.7539ZM 377.691 12.9062L 380.527 12.9062C 381.41 12.9062 382.094 12.6836 382.578 12.2383C 383.062 11.7852 383.305 11.1641 383.305 10.375C 383.305 9.57031 383.074 8.9375 382.613 8.47656C 382.16 8.01562 381.461 7.78516 380.516 7.78516L 377.691 7.78516L 377.691 12.9062ZM 399.137 18.4844L 392.973 18.4844L 391.801 22L 388.062 22L 394.414 4.9375L 397.672 4.9375L 404.059 22L 400.32 22L 399.137 18.4844ZM 393.922 15.6367L 398.188 15.6367L 396.043 9.25L 393.922 15.6367ZM 396.77 0.367188L 400.461 0.367188L 397.215 4L 394.461 4L 396.77 0.367188ZM 419.363 17.5117C 419.363 16.8711 419.184 16.3633 418.824 15.9883C 418.473 15.6055 417.871 15.2539 417.02 14.9336C 416.168 14.6133 415.434 14.2969 414.816 13.9844C 414.199 13.6641 413.668 13.3008 413.223 12.8945C 412.785 12.4805 412.441 11.9961 412.191 11.4414C 411.949 10.8867 411.828 10.2266 411.828 9.46094C 411.828 8.14063 412.25 7.05859 413.094 6.21484C 413.938 5.37109 415.059 4.87891 416.457 4.73828L 416.457 2.23047L 418.332 2.23047L 418.332 4.77344C 419.715 4.96875 420.797 5.54688 421.578 6.50781C 422.359 7.46094 422.75 8.69922 422.75 10.2227L 419.363 10.2227C 419.363 9.28516 419.168 8.58594 418.777 8.125C 418.395 7.65625 417.879 7.42188 417.23 7.42188C 416.59 7.42188 416.094 7.60547 415.742 7.97266C 415.391 8.33203 415.215 8.83203 415.215 9.47266C 415.215 10.0664 415.387 10.543 415.73 10.9023C 416.074 11.2617 416.711 11.6289 417.641 12.0039C 418.578 12.3789 419.348 12.7344 419.949 13.0703C 420.551 13.3984 421.059 13.7734 421.473 14.1953C 421.887 14.6094 422.203 15.0859 422.422 15.625C 422.641 16.1563 422.75 16.7773 422.75 17.4883C 422.75 18.8164 422.336 19.8945 421.508 20.7227C 420.68 21.5508 419.539 22.0391 418.086 22.1875L 418.086 24.5195L 416.223 24.5195L 416.223 22.1992C 414.621 22.0273 413.379 21.4609 412.496 20.5C 411.621 19.5312 411.184 18.2461 411.184 16.6445L 414.57 16.6445C 414.57 17.5742 414.789 18.2891 415.227 18.7891C 415.672 19.2812 416.309 19.5273 417.137 19.5273C 417.824 19.5273 418.367 19.3477 418.766 18.9883C 419.164 18.6211 419.363 18.1289 419.363 17.5117ZM 433.273 22L 429.887 22L 429.887 8.94531L 425.844 10.1992L 425.844 7.44531L 432.91 4.91406L 433.273 4.91406L 433.273 22ZM 450.523 22L 438.828 22L 438.828 19.6797L 444.348 13.7969C 445.105 12.9687 445.664 12.2461 446.023 11.6289C 446.391 11.0117 446.574 10.4258 446.574 9.87109C 446.574 9.11328 446.383 8.51953 446 8.08984C 445.617 7.65234 445.07 7.43359 444.359 7.43359C 443.594 7.43359 442.988 7.69922 442.543 8.23047C 442.105 8.75391 441.887 9.44531 441.887 10.3047L 438.488 10.3047C 438.488 9.26563 438.734 8.31641 439.227 7.45703C 439.727 6.59766 440.43 5.92578 441.336 5.44141C 442.242 4.94922 443.27 4.70312 444.418 4.70312C 446.176 4.70312 447.539 5.125 448.508 5.96875C 449.484 6.8125 449.973 8.00391 449.973 9.54297C 449.973 10.3867 449.754 11.2461 449.316 12.1211C 448.879 12.9961 448.129 14.0156 447.066 15.1797L 443.188 19.2695L 450.523 19.2695L 450.523 22ZM 464.094 14.9453C 464.094 17.3047 463.605 19.1094 462.629 20.3594C 461.652 21.6094 460.223 22.2344 458.34 22.2344C 456.48 22.2344 455.059 21.6211 454.074 20.3945C 453.09 19.168 452.586 17.4102 452.562 15.1211L 452.562 11.9805C 452.562 9.59766 453.055 7.78906 454.039 6.55469C 455.031 5.32031 456.457 4.70312 458.316 4.70312C 460.176 4.70312 461.598 5.31641 462.582 6.54297C 463.566 7.76172 464.07 9.51562 464.094 11.8047L 464.094 14.9453ZM 460.707 11.5C 460.707 10.0859 460.512 9.05859 460.121 8.41797C 459.738 7.76953 459.137 7.44531 458.316 7.44531C 457.52 7.44531 456.93 7.75391 456.547 8.37109C 456.172 8.98047 455.973 9.9375 455.949 11.2422L 455.949 15.3906C 455.949 16.7812 456.137 17.8164 456.512 18.4961C 456.895 19.168 457.504 19.5039 458.34 19.5039C 459.168 19.5039 459.766 19.1797 460.133 18.5312C 460.5 17.8828 460.691 16.8906 460.707 15.5547L 460.707 11.5ZM 467.41 26.2773L 465.641 25.3516L 466.062 24.5898C 466.586 23.6367 466.855 22.6875 466.871 21.7422L 466.871 19.1172L 469.73 19.1172L 469.719 21.4609C 469.711 22.3281 469.492 23.2031 469.062 24.0859C 468.633 24.9687 468.082 25.6992 467.41 26.2773ZM 483.734 14.9453C 483.734 17.3047 483.246 19.1094 482.27 20.3594C 481.293 21.6094 479.863 22.2344 477.98 22.2344C 476.121 22.2344 474.699 21.6211 473.715 20.3945C 472.73 19.168 472.227 17.4102 472.203 15.1211L 472.203 11.9805C 472.203 9.59766 472.695 7.78906 473.68 6.55469C 474.672 5.32031 476.098 4.70312 477.957 4.70312C 479.816 4.70312 481.238 5.31641 482.223 6.54297C 483.207 7.76172 483.711 9.51562 483.734 11.8047L 483.734 14.9453ZM 480.348 11.5C 480.348 10.0859 480.152 9.05859 479.762 8.41797C 479.379 7.76953 478.777 7.44531 477.957 7.44531C 477.16 7.44531 476.57 7.75391 476.188 8.37109C 475.812 8.98047 475.613 9.9375 475.59 11.2422L 475.59 15.3906C 475.59 16.7812 475.777 17.8164 476.152 18.4961C 476.535 19.168 477.145 19.5039 477.98 19.5039C 478.809 19.5039 479.406 19.1797 479.773 18.5312C 480.141 17.8828 480.332 16.8906 480.348 15.5547L 480.348 11.5ZM 497.516 14.9453C 497.516 17.3047 497.027 19.1094 496.051 20.3594C 495.074 21.6094 493.645 22.2344 491.762 22.2344C 489.902 22.2344 488.48 21.6211 487.496 20.3945C 486.512 19.168 486.008 17.4102 485.984 15.1211L 485.984 11.9805C 485.984 9.59766 486.477 7.78906 487.461 6.55469C 488.453 5.32031 489.879 4.70312 491.738 4.70312C 493.598 4.70312 495.02 5.31641 496.004 6.54297C 496.988 7.76172 497.492 9.51562 497.516 11.8047L 497.516 14.9453ZM 494.129 11.5C 494.129 10.0859 493.934 9.05859 493.543 8.41797C 493.16 7.76953 492.559 7.44531 491.738 7.44531C 490.941 7.44531 490.352 7.75391 489.969 8.37109C 489.594 8.98047 489.395 9.9375 489.371 11.2422L 489.371 15.3906C 489.371 16.7812 489.559 17.8164 489.934 18.4961C 490.316 19.168 490.926 19.5039 491.762 19.5039C 492.59 19.5039 493.188 19.1797 493.555 18.5312C 493.922 17.8828 494.113 16.8906 494.129 15.5547L 494.129 11.5ZM 511.297 14.9453C 511.297 17.3047 510.809 19.1094 509.832 20.3594C 508.855 21.6094 507.426 22.2344 505.543 22.2344C 503.684 22.2344 502.262 21.6211 501.277 20.3945C 500.293 19.168 499.789 17.4102 499.766 15.1211L 499.766 11.9805C 499.766 9.59766 500.258 7.78906 501.242 6.55469C 502.234 5.32031 503.66 4.70312 505.52 4.70312C 507.379 4.70312 508.801 5.31641 509.785 6.54297C 510.77 7.76172 511.273 9.51562 511.297 11.8047L 511.297 14.9453ZM 507.91 11.5C 507.91 10.0859 507.715 9.05859 507.324 8.41797C 506.941 7.76953 506.34 7.44531 505.52 7.44531C 504.723 7.44531 504.133 7.75391 503.75 8.37109C 503.375 8.98047 503.176 9.9375 503.152 11.2422L 503.152 15.3906C 503.152 16.7812 503.34 17.8164 503.715 18.4961C 504.098 19.168 504.707 19.5039 505.543 19.5039C 506.371 19.5039 506.969 19.1797 507.336 18.5312C 507.703 17.8828 507.895 16.8906 507.91 15.5547L 507.91 11.5ZM 524.527 4.9375L 528.91 17.3125L 533.27 4.9375L 537.887 4.9375L 537.887 22L 534.359 22L 534.359 17.3359L 534.711 9.28516L 530.105 22L 527.691 22L 523.098 9.29688L 523.449 17.3359L 523.449 22L 519.934 22L 519.934 4.9375L 524.527 4.9375ZM 547.273 10.8203L 550.473 4.9375L 554.516 4.9375L 549.547 13.3984L 554.645 22L 550.555 22L 547.273 16.0234L 543.992 22L 539.902 22L 545 13.3984L 540.031 4.9375L 544.074 4.9375L 547.273 10.8203ZM 570.301 22L 566.785 22L 559.941 10.7734L 559.941 22L 556.426 22L 556.426 4.9375L 559.941 4.9375L 566.797 16.1875L 566.797 4.9375L 570.301 4.9375L 570.301 22ZM 576.594 16.7617L 573.781 16.7617L 573.383 4.9375L 576.992 4.9375L 576.594 16.7617ZM 575.188 18.6133C 575.758 18.6133 576.215 18.7813 576.559 19.1172C 576.91 19.4531 577.086 19.8828 577.086 20.4062C 577.086 20.9219 576.91 21.3477 576.559 21.6836C 576.215 22.0195 575.758 22.1875 575.188 22.1875C 574.625 22.1875 574.168 22.0195 573.816 21.6836C 573.473 21.3477 573.301 20.9219 573.301 20.4062C 573.301 19.8906 573.473 19.4648 573.816 19.1289C 574.168 18.7852 574.625 18.6133 575.188 18.6133Z"/>
</defs>
</svg>
